<?xml version="1.0" standalone="no"?>
<!DOCTYPE svg PUBLIC "-//W3C//DTD SVG 20010904//EN"
 "http://www.w3.org/TR/2001/REC-SVG-20010904/DTD/svg10.dtd">
<svg version="1.0" xmlns="http://www.w3.org/2000/svg"
 width="3286.000000pt" height="3682.000000pt" viewBox="0 0 3286.000000 3682.000000"
 preserveAspectRatio="xMidYMid meet">
<metadata>
Created by potrace 1.15, written by Peter Selinger 2001-2017
</metadata>
<g transform="translate(0.000000,3682.000000) scale(0.100000,-0.100000)"
fill="#000000" stroke="none">
<path d="M11861 35743 c-20 -17 -71 -148 -71 -182 0 -25 -50 -88 -80 -101 -15
-6 -42 -10 -58 -9 -33 4 -72 -23 -72 -49 0 -23 38 -69 76 -92 19 -12 67 -31
107 -41 62 -16 78 -25 118 -66 29 -31 54 -70 68 -108 35 -93 67 -142 124 -184
66 -50 124 -73 272 -106 65 -14 130 -32 144 -40 40 -20 78 -65 102 -119 28
-64 23 -108 -38 -331 -43 -161 -45 -175 -40 -265 7 -126 52 -236 137 -338 44
-51 61 -81 66 -111 9 -57 62 -97 178 -136 79 -27 95 -36 122 -72 42 -55 54
-116 54 -276 0 -121 -25 -391 -51 -544 -14 -82 6 -218 41 -278 10 -16 44 -79
75 -140 78 -147 154 -269 230 -368 56 -74 260 -379 360 -538 22 -35 75 -106
118 -157 43 -52 89 -115 102 -141 44 -85 100 -161 190 -257 113 -119 190 -243
200 -320 5 -46 3 -63 -17 -102 -19 -39 -41 -60 -125 -117 -56 -38 -131 -95
-168 -126 -58 -50 -77 -59 -148 -77 -45 -11 -119 -26 -165 -32 -98 -13 -134
-5 -178 41 -34 36 -133 89 -166 89 -13 0 -36 -9 -53 -20 -60 -40 -175 -11
-175 44 0 14 -13 76 -30 140 -22 88 -49 153 -111 277 -117 236 -244 417 -456
656 -47 53 -92 112 -101 132 -9 22 -17 85 -21 166 -7 139 -11 150 -73 231 -57
76 -441 392 -518 427 -55 26 -138 26 -194 2 -22 -9 -72 -19 -111 -22 -69 -5
-73 -4 -103 23 -24 22 -38 53 -62 133 -19 63 -41 113 -55 127 -34 34 -86 40
-174 19 -114 -27 -167 -29 -215 -11 -55 21 -76 45 -110 127 -55 133 -122 163
-260 115 -50 -17 -97 -26 -137 -26 -54 0 -74 7 -204 70 -79 39 -149 70 -155
70 -32 0 -118 62 -231 166 -62 58 -121 80 -286 108 -50 9 -116 25 -146 36 -52
20 -176 109 -224 161 -33 36 -56 129 -48 192 14 114 -34 190 -145 230 -37 13
-90 40 -120 60 -98 66 -162 45 -162 -52 1 -28 4 -56 7 -62 4 -5 6 -48 6 -95
-1 -129 33 -181 154 -233 164 -71 191 -245 60 -376 -74 -72 -126 -103 -211
-123 -81 -20 -179 -67 -224 -108 -35 -32 -73 -44 -138 -44 -31 0 -75 -7 -97
-15 -22 -8 -66 -14 -99 -15 -41 0 -71 -7 -105 -24 -25 -14 -62 -30 -81 -37
-19 -7 -62 -40 -95 -74 -34 -33 -101 -85 -149 -115 -58 -36 -100 -71 -122
-101 -25 -35 -54 -57 -112 -87 -110 -57 -207 -92 -259 -92 -60 0 -133 39 -202
107 -63 62 -176 123 -229 123 -18 0 -50 -9 -71 -19 -56 -29 -195 -54 -259 -48
-89 9 -158 -8 -242 -63 -41 -27 -99 -56 -128 -66 -50 -16 -58 -16 -145 1 -115
22 -177 16 -292 -25 -79 -29 -105 -34 -215 -37 -169 -6 -193 2 -234 82 -34 67
-103 120 -166 131 -79 12 -103 28 -137 85 -41 69 -109 267 -123 357 -18 112
-60 244 -94 297 -19 28 -46 72 -61 99 -15 27 -41 55 -58 65 -17 9 -46 32 -64
50 -25 27 -36 32 -45 23 -9 -9 -8 -16 4 -29 37 -42 50 -112 44 -232 -4 -63 -8
-116 -10 -118 -10 -10 25 -105 53 -144 94 -130 125 -185 143 -256 29 -112 59
-171 129 -248 35 -39 81 -91 102 -117 57 -69 129 -119 257 -178 63 -28 147
-72 187 -96 51 -32 94 -49 145 -60 84 -17 104 -34 113 -98 6 -36 3 -52 -18
-88 -29 -49 -57 -149 -57 -203 0 -20 9 -67 19 -103 11 -37 22 -79 25 -94 4
-15 20 -43 37 -63 36 -40 58 -141 59 -266 0 -58 8 -104 35 -192 19 -64 38
-143 42 -177 13 -128 -32 -408 -87 -535 -12 -28 -52 -162 -90 -300 -61 -224
-80 -321 -122 -605 -6 -41 -19 -109 -29 -150 -26 -103 -39 -239 -38 -405 0
-126 10 -235 51 -527 10 -72 9 -94 -3 -130 -20 -60 -73 -109 -155 -142 -90
-36 -104 -49 -104 -100 0 -86 37 -103 295 -136 140 -17 169 -24 231 -54 58
-29 82 -49 139 -117 98 -116 180 -195 233 -226 26 -15 65 -39 87 -53 40 -27
146 -65 258 -94 100 -25 120 -44 353 -325 38 -46 104 -125 147 -175 42 -50 86
-109 97 -132 24 -47 26 -129 6 -177 -27 -66 -156 -151 -272 -181 -78 -20 -125
-20 -171 -1 -57 24 -187 55 -231 55 -53 0 -153 -52 -195 -100 -18 -21 -41 -65
-51 -97 -49 -156 -90 -200 -211 -229 -69 -16 -86 -22 -255 -91 -71 -30 -92
-34 -132 -29 -28 4 -56 2 -68 -4 -14 -8 -38 -7 -85 1 -73 14 -109 5 -118 -31
-7 -29 26 -62 61 -60 54 4 62 -1 105 -69 25 -37 50 -77 56 -88 18 -35 51 -205
51 -267 0 -74 100 -451 136 -513 14 -23 49 -62 78 -85 85 -68 115 -138 83
-195 -7 -12 -42 -44 -78 -72 -54 -42 -82 -55 -151 -73 -110 -29 -132 -22 -274
81 -122 87 -143 100 -237 135 -65 24 -68 25 -129 9 -95 -24 -99 -40 -31 -145
45 -71 47 -76 55 -180 9 -121 60 -286 129 -419 42 -81 153 -202 226 -246 46
-28 138 -59 217 -74 115 -21 241 -96 351 -209 28 -28 66 -60 86 -72 20 -11 46
-37 58 -57 12 -20 33 -51 47 -70 28 -39 30 -71 9 -131 -18 -50 -19 -151 -2
-200 8 -23 29 -47 61 -70 27 -19 85 -70 129 -112 81 -79 111 -104 257 -208
146 -104 190 -121 328 -129 103 -6 124 -10 164 -34 61 -35 103 -85 143 -171
19 -39 59 -102 90 -141 67 -85 77 -107 76 -168 0 -57 -14 -86 -101 -203 -104
-141 -135 -171 -226 -216 -90 -44 -115 -48 -254 -33 -74 7 -76 7 -125 -26 -48
-33 -50 -36 -53 -84 -4 -95 -11 -114 -44 -131 -25 -13 -38 -14 -68 -5 -49 15
-174 145 -231 241 l-44 75 0 175 c0 202 -5 233 -50 315 -69 124 -82 137 -232
214 -97 51 -154 88 -193 126 -104 100 -165 114 -299 65 l-90 -32 -83 35 c-59
25 -92 34 -115 30 -39 -6 -45 -13 -68 -80 -18 -49 -18 -54 0 -120 9 -37 23
-94 30 -125 12 -52 103 -230 126 -243 5 -4 16 -19 24 -36 14 -26 14 -32 1 -58
-8 -15 -29 -34 -46 -41 -31 -13 -32 -12 -88 46 -66 69 -135 105 -267 140 -181
49 -274 117 -295 219 -8 37 -23 67 -53 102 -23 28 -51 63 -63 79 -19 26 -23
27 -38 15 -22 -18 -42 -57 -50 -98 -5 -22 1 -53 20 -108 29 -82 27 -80 264
-310 40 -38 96 -104 125 -145 60 -84 91 -120 105 -120 5 0 48 -36 94 -80 81
-76 144 -121 230 -165 59 -30 111 -95 130 -165 26 -90 52 -115 205 -187 82
-39 152 -79 178 -104 24 -22 76 -60 115 -86 84 -54 91 -61 123 -128 29 -58 31
-107 10 -197 -13 -59 -13 -70 6 -148 11 -47 37 -123 58 -170 21 -47 46 -106
55 -132 10 -26 42 -82 73 -123 80 -110 104 -208 65 -267 -9 -14 -45 -50 -80
-78 -35 -28 -76 -70 -93 -93 -33 -46 -131 -124 -166 -133 -12 -3 -51 1 -86 10
-50 13 -75 14 -118 6 -95 -18 -119 -31 -200 -104 -88 -80 -186 -136 -254 -143
-64 -8 -125 10 -250 72 -93 46 -124 56 -200 66 -115 15 -277 7 -330 -15 -22
-9 -69 -34 -105 -56 -76 -45 -121 -56 -178 -41 -62 17 -96 66 -137 197 -23 71
-48 130 -73 164 -39 56 -172 164 -252 205 -83 42 -127 88 -215 220 -48 72
-108 153 -135 180 -54 56 -127 157 -190 259 -78 129 -145 202 -234 255 -44 27
-92 52 -106 56 -53 16 -118 56 -194 119 -44 37 -89 69 -101 72 -12 3 -86 6
-164 7 l-143 2 -64 67 c-35 37 -98 121 -141 185 -103 159 -193 271 -300 374
-109 105 -181 150 -320 196 -90 29 -129 37 -233 43 -145 8 -176 19 -336 120
-124 78 -141 93 -222 210 -89 128 -174 215 -314 321 -94 70 -131 92 -186 108
-38 12 -72 21 -76 21 -3 0 -6 -4925 -6 -10945 l0 -10945 3825 0 3826 0 -6 67
c-7 84 -9 95 -34 212 -22 101 -35 127 -146 296 -116 176 -213 353 -220 399
-18 126 -28 400 -35 881 l-7 540 -26 95 c-15 52 -38 140 -51 196 -27 108 -117
314 -205 469 -28 50 -73 135 -100 190 -64 131 -177 319 -243 400 -71 90 -178
169 -263 195 -67 21 -153 59 -203 90 -77 47 -158 64 -312 64 -118 1 -141 -2
-182 -21 -64 -29 -142 -104 -185 -178 -40 -68 -47 -75 -86 -75 -53 0 -64 13
-71 92 -12 117 -34 161 -128 252 -58 57 -112 124 -179 226 -112 169 -164 254
-179 295 -6 16 -33 65 -59 109 -76 126 -84 157 -75 312 6 128 6 134 -24 235
-50 167 -55 213 -37 321 32 188 66 345 90 410 45 125 55 210 55 482 0 293 -3
311 -87 489 -48 103 -58 135 -72 227 l-15 107 32 199 c36 221 41 364 17 454
-12 44 -12 68 -4 120 23 135 58 157 260 170 76 6 139 15 156 23 40 21 127 116
153 167 12 24 28 82 36 129 16 99 40 162 101 269 23 42 46 91 49 110 6 31 3
115 -12 368 -5 80 -3 114 11 160 55 189 53 130 50 1154 -3 903 -4 950 -24
1065 -15 89 -21 165 -21 295 0 119 -5 197 -16 245 -23 105 -42 229 -49 327 -4
56 -17 115 -36 170 -17 45 -44 133 -60 193 -45 161 -86 300 -114 385 -14 42
-25 88 -25 104 0 15 -11 65 -24 110 -27 90 -46 221 -46 312 0 33 -12 122 -26
199 -20 107 -28 189 -34 350 -4 121 -14 246 -24 295 -12 64 -16 145 -16 332 0
223 -3 261 -25 375 -13 71 -38 207 -55 303 -17 96 -42 234 -55 305 -17 90 -27
186 -31 311 -6 166 -5 186 14 250 47 154 174 275 347 330 95 30 122 28 263
-21 141 -50 229 -44 337 23 129 80 166 136 243 367 28 83 60 175 72 205 12 30
33 93 46 139 24 87 52 129 106 157 48 25 78 17 192 -53 124 -75 174 -93 255
-93 71 0 312 35 377 55 60 18 275 39 317 31 16 -3 58 -1 93 6 53 9 78 9 151
-5 89 -17 157 -14 240 12 18 5 87 12 155 16 138 7 153 10 188 37 38 30 87 48
159 58 72 10 69 11 336 -76 168 -55 166 -54 232 -117 41 -39 57 -62 73 -113
13 -39 45 -96 83 -148 34 -47 100 -138 147 -202 47 -64 113 -149 147 -188 63
-73 103 -159 103 -221 0 -16 -11 -66 -24 -110 -60 -200 -57 -176 -32 -321 13
-72 28 -140 34 -151 21 -39 36 -225 24 -299 -17 -103 -4 -145 67 -219 32 -33
70 -79 86 -102 25 -39 27 -47 20 -100 -4 -32 -8 -89 -8 -128 -1 -85 17 -125
73 -160 37 -23 40 -29 40 -68 0 -34 6 -49 26 -68 14 -13 41 -47 60 -75 18 -27
54 -65 78 -82 25 -18 65 -56 89 -85 42 -49 45 -56 49 -125 6 -85 -2 -99 -72
-135 -33 -16 -51 -34 -67 -67 -13 -24 -23 -53 -23 -65 0 -29 87 -125 129 -143
20 -8 61 -18 91 -22 72 -10 234 -55 286 -81 47 -23 64 -52 64 -110 0 -36 -6
-47 -50 -89 -70 -68 -94 -125 -87 -208 7 -73 -4 -104 -52 -145 -43 -36 -80
-41 -153 -21 -90 25 -115 39 -188 109 -108 104 -188 131 -229 79 -15 -19 -21
-41 -21 -76 0 -44 4 -53 45 -97 58 -62 80 -123 70 -196 -5 -45 -14 -62 -50
-103 -61 -67 -124 -86 -263 -76 -121 8 -159 -6 -204 -75 -28 -43 -29 -50 -23
-116 3 -38 10 -119 15 -180 5 -60 18 -166 30 -235 12 -69 30 -177 40 -240 38
-235 51 -306 65 -355 7 -27 17 -75 20 -105 4 -30 18 -79 31 -107 21 -44 39
-62 107 -109 98 -68 107 -78 107 -119 0 -39 -62 -102 -170 -173 -41 -27 -108
-80 -149 -118 l-73 -69 15 -37 c24 -57 53 -71 118 -57 30 6 81 22 113 36 63
26 80 25 152 -8 46 -22 65 -57 79 -143 4 -21 18 -57 33 -78 27 -41 30 -70 35
-273 2 -54 -39 -175 -73 -217 -38 -49 -116 -81 -218 -89 -161 -14 -222 -46
-259 -139 -8 -19 -21 -49 -29 -67 -27 -60 -28 -89 -3 -125 39 -55 47 -59 129
-52 72 6 78 5 132 -27 60 -35 78 -60 78 -114 0 -50 -6 -60 -67 -105 -82 -62
-106 -146 -63 -217 40 -67 110 -85 231 -60 93 19 146 11 267 -43 52 -23 113
-42 148 -46 32 -4 71 -15 86 -26 36 -25 62 -96 54 -143 -11 -56 11 -141 46
-180 31 -36 104 -84 218 -145 53 -28 69 -43 88 -80 12 -24 22 -57 22 -73 0
-63 -93 -108 -179 -87 -25 6 -92 36 -149 66 -114 60 -159 67 -231 38 -33 -13
-47 -29 -89 -102 -97 -170 -112 -214 -92 -267 18 -48 49 -73 146 -119 108 -51
231 -143 294 -217 154 -185 204 -230 301 -267 l86 -33 309 -6 c348 -6 315 0
459 -97 84 -57 94 -61 145 -60 42 0 76 10 145 42 154 70 199 72 275 12 49 -39
58 -55 81 -145 41 -163 112 -267 235 -345 67 -42 245 -122 327 -147 37 -11 73
-38 167 -124 146 -134 153 -135 186 -34 13 39 24 71 24 72 0 2 19 12 41 24 98
50 225 29 360 -59 115 -75 181 -110 219 -117 50 -9 159 18 218 55 83 51 130
62 240 58 l97 -3 78 -53 c94 -64 282 -255 355 -360 67 -98 93 -177 99 -310 5
-97 4 -105 -18 -135 -13 -18 -44 -64 -70 -103 -38 -57 -54 -72 -79 -78 -43 -8
-96 -63 -109 -113 -9 -33 -8 -50 3 -84 15 -42 14 -43 -13 -78 -57 -73 -67
-125 -31 -161 25 -25 56 -25 97 0 38 23 48 53 38 115 -5 37 -2 51 15 75 12 16
24 47 27 67 12 80 37 104 140 139 82 28 150 75 170 118 41 90 67 101 183 71
211 -54 304 -106 351 -197 34 -67 16 -197 -38 -265 -15 -19 -36 -45 -45 -57
-9 -12 -28 -66 -42 -121 -23 -86 -31 -103 -59 -124 -17 -14 -59 -53 -93 -87
-33 -34 -74 -69 -91 -77 -35 -18 -49 -57 -32 -88 7 -14 16 -18 27 -14 9 4 44
10 77 14 33 4 72 15 87 25 42 28 88 107 100 175 10 52 17 65 49 91 21 17 56
61 78 98 47 80 125 157 170 167 32 7 74 -10 205 -82 43 -24 64 -28 195 -36
108 -6 174 -16 254 -37 142 -38 201 -71 252 -144 33 -48 40 -66 43 -119 7
-113 -63 -229 -201 -332 -34 -26 -75 -48 -96 -51 -112 -18 -176 -91 -165 -188
5 -49 3 -56 -67 -176 -40 -69 -82 -158 -95 -198 -25 -82 -73 -159 -156 -249
-44 -48 -57 -71 -60 -99 -2 -20 -10 -40 -18 -44 -8 -4 -40 -22 -70 -40 -52
-30 -59 -32 -122 -26 -89 8 -110 17 -178 79 -82 74 -234 141 -355 157 -193 26
-201 25 -231 -31 -21 -42 -11 -95 37 -197 32 -66 57 -100 127 -170 114 -115
140 -124 372 -127 136 -2 177 -6 235 -24 38 -11 79 -21 91 -21 11 0 31 -11 44
-25 29 -31 60 -29 77 5 12 23 10 27 -16 50 -18 15 -34 43 -41 70 -7 25 -18 57
-26 72 -14 26 -12 30 32 88 25 33 54 65 64 70 10 5 45 7 78 4 97 -10 162 20
162 76 0 45 49 240 74 296 13 28 41 71 62 94 39 43 121 90 159 90 11 0 48 13
83 30 71 33 77 51 42 120 -24 47 -25 81 -5 120 18 35 73 70 111 70 77 0 228
-113 243 -180 10 -46 -4 -94 -32 -113 -13 -8 -46 -18 -73 -22 -75 -10 -84 -14
-84 -39 0 -23 47 -76 67 -76 22 0 43 -45 43 -92 0 -52 -9 -65 -72 -107 -52
-36 -102 -117 -102 -165 -1 -74 73 -106 130 -55 29 27 45 24 84 -16 29 -30 40
-35 82 -35 64 0 87 22 82 78 -3 41 -37 114 -76 164 -19 25 -20 28 -5 71 9 27
13 62 10 90 -4 33 -1 54 11 71 9 14 25 50 37 81 11 31 31 68 44 82 22 27 23
27 86 15 79 -14 104 -40 139 -143 13 -40 39 -97 57 -127 32 -53 42 -107 27
-147 -9 -22 -57 -45 -94 -45 -97 0 -170 -49 -170 -114 0 -44 16 -56 73 -56 32
0 72 -10 117 -30 38 -16 78 -30 90 -30 14 0 46 25 89 69 70 74 107 90 170 76
67 -14 141 -137 141 -232 0 -53 28 -95 86 -129 40 -23 46 -24 110 -14 40 7
102 9 148 5 l78 -7 60 58 c33 33 68 75 78 95 13 26 40 49 92 79 40 24 112 70
161 101 115 76 178 99 271 99 61 0 83 -5 134 -31 64 -31 125 -92 168 -165 36
-62 91 -230 109 -335 23 -134 38 -174 100 -258 62 -84 82 -139 91 -255 4 -50
19 -120 41 -185 19 -57 45 -153 59 -213 14 -61 36 -133 51 -162 33 -67 150
-179 260 -252 254 -168 333 -249 333 -339 0 -50 -10 -65 -97 -148 -71 -69 -75
-75 -68 -105 7 -34 46 -68 65 -57 6 3 16 21 24 39 7 18 33 49 57 68 41 33 50
36 134 41 124 9 150 1 216 -66 74 -73 136 -94 248 -81 83 10 296 7 433 -5 80
-8 106 -16 185 -60 10 -6 49 -22 88 -37 l70 -27 285 10 c285 11 285 11 403 47
65 19 142 38 170 42 99 12 175 85 188 181 9 67 20 79 132 155 140 94 217 113
332 83 48 -12 67 -12 126 -1 57 11 76 19 106 49 44 44 35 42 213 66 80 11 191
34 247 50 157 47 189 48 330 12 175 -45 213 -41 213 22 0 37 -71 105 -150 145
l-55 27 -235 0 c-221 -1 -242 -2 -350 -28 -63 -15 -135 -27 -161 -27 -25 0
-79 -9 -120 -19 -41 -11 -119 -24 -174 -30 -227 -25 -284 -34 -360 -56 -44
-13 -123 -29 -176 -36 -92 -12 -98 -11 -190 15 -104 30 -140 50 -216 124 -63
61 -70 76 -133 314 -55 203 -67 295 -71 548 -2 114 0 128 21 163 22 37 22 39
6 82 -20 50 -58 73 -166 101 -37 9 -122 47 -200 89 -182 98 -320 135 -448 120
-37 -5 -109 -9 -159 -9 -83 -1 -95 1 -115 22 -19 19 -23 34 -24 90 0 37 5 84
12 105 15 42 16 124 3 133 -14 8 -51 -16 -109 -71 -46 -45 -75 -62 -180 -104
-69 -28 -145 -61 -170 -73 -31 -15 -71 -23 -131 -26 -79 -4 -91 -2 -135 22
-27 14 -74 37 -104 50 -39 18 -71 43 -109 88 l-53 62 6 56 c4 30 12 80 18 110
5 30 12 171 15 312 4 234 2 273 -21 440 -25 184 -63 338 -126 508 -89 242
-113 311 -132 370 -24 78 -87 204 -138 280 -20 30 -53 84 -73 120 -40 72 -88
123 -130 139 -42 16 -143 13 -219 -6 l-67 -17 -70 71 c-39 39 -71 80 -71 90
-1 33 -37 98 -63 112 -16 9 -34 34 -48 68 -12 30 -46 90 -76 135 -68 102 -83
131 -123 248 -36 107 -57 151 -107 225 -69 105 -72 121 -63 390 5 152 12 252
20 274 10 25 11 66 5 160 -13 209 -9 223 77 316 70 77 78 92 78 158 0 49 -4
59 -54 125 -78 102 -126 203 -126 262 0 39 -7 58 -37 101 -37 54 -38 54 -35
144 2 73 8 104 32 162 27 64 30 83 30 180 0 97 -5 130 -45 284 -24 96 -56 201
-69 234 -14 33 -26 72 -26 87 0 15 -7 48 -16 74 -19 57 -20 75 -4 244 16 166
15 229 -5 300 -8 30 -22 84 -31 120 -70 293 -122 451 -160 491 -14 15 -44 35
-66 45 -35 16 -46 16 -96 5 -31 -7 -78 -15 -104 -18 -43 -5 -49 -3 -90 35
l-43 41 2 90 c2 97 19 179 59 280 52 129 16 207 -139 308 -128 83 -255 209
-298 296 -37 73 -83 153 -153 262 -29 44 -60 100 -71 125 -28 66 -32 71 -149
178 -59 54 -115 112 -125 129 -11 16 -54 53 -98 81 -43 28 -94 62 -115 76 -22
15 -53 53 -79 98 -89 154 -140 192 -229 168 -42 -11 -93 -49 -112 -84 -7 -11
-15 -77 -18 -146 -7 -140 -20 -178 -73 -211 -26 -16 -44 -19 -92 -16 -98 7
-173 56 -355 232 -52 50 -133 123 -180 161 -47 37 -168 150 -270 249 -102 99
-223 212 -270 251 -161 135 -160 133 -141 298 9 76 10 109 1 131 -6 17 -93
113 -194 215 -228 231 -251 268 -226 359 15 55 54 98 148 159 136 90 162 96
422 100 124 2 312 3 419 2 l194 -1 71 -33 c39 -18 101 -57 139 -87 37 -30 98
-72 135 -95 61 -37 71 -47 108 -119 57 -107 91 -125 156 -80 30 20 39 36 57
94 12 38 21 80 21 93 0 12 7 36 16 53 18 35 13 58 -22 111 -15 21 -46 102 -71
179 -37 119 -53 153 -105 230 -89 130 -94 135 -151 173 -29 20 -67 48 -85 64
-18 15 -40 28 -50 28 -47 -1 -109 -70 -142 -158 -41 -109 -147 -219 -274 -282
-84 -43 -141 -41 -308 11 -103 31 -160 42 -253 50 -66 5 -139 16 -162 25 -27
10 -73 45 -125 95 -73 70 -93 83 -187 123 -58 24 -155 61 -216 81 -60 21 -123
46 -140 56 -42 25 -99 103 -139 191 -27 59 -44 82 -82 111 -27 20 -66 50 -87
66 -24 19 -56 32 -85 37 -26 3 -66 12 -89 20 -36 12 -48 11 -84 -1 -23 -8 -57
-15 -76 -15 -48 0 -182 43 -273 88 -64 32 -78 43 -98 82 -21 40 -23 54 -18
129 6 97 -5 133 -53 174 -38 32 -88 47 -158 47 -70 0 -90 -9 -164 -75 -69 -62
-125 -95 -160 -95 -12 0 -49 17 -83 38 -73 45 -212 98 -281 107 -91 11 -199
37 -238 57 -76 38 -90 97 -62 258 8 47 15 127 15 179 l0 93 39 37 c22 20 55
48 73 63 34 26 36 27 84 13 27 -7 81 -27 120 -43 40 -17 114 -39 165 -50 281
-60 330 -72 356 -85 61 -31 226 -62 328 -62 213 1 328 15 471 60 208 64 247
52 419 -127 117 -121 211 -199 301 -248 91 -49 167 -103 241 -172 61 -56 93
-71 139 -62 24 4 42 1 66 -14 18 -11 59 -27 92 -36 32 -10 99 -37 150 -61 133
-63 159 -70 203 -59 56 14 61 39 33 171 -43 204 -53 227 -139 311 -112 108
-130 116 -281 118 -159 2 -239 16 -262 46 -63 84 -39 75 -254 98 -89 9 -119
21 -197 80 -29 22 -86 57 -127 77 -61 30 -87 37 -150 41 -41 2 -100 10 -131
18 -63 16 -225 18 -279 5 -19 -5 -64 -22 -99 -36 -36 -15 -99 -34 -142 -43
-66 -14 -90 -14 -170 -3 -113 15 -294 61 -404 103 -58 22 -109 33 -188 40 -94
9 -114 14 -152 39 -23 16 -46 36 -49 45 -12 30 -6 72 14 97 14 17 20 40 20 75
0 42 -6 58 -33 94 -18 24 -53 54 -78 68 -57 31 -79 49 -78 64 0 14 91 86 139
111 65 34 92 60 158 155 105 152 146 195 213 226 32 15 66 39 75 52 23 35 23
97 1 119 -26 26 -103 21 -173 -11 -73 -33 -99 -33 -135 3 -37 37 -36 50 2 87
17 16 51 55 75 86 36 46 55 61 99 77 70 26 90 26 168 0 53 -18 80 -21 187 -17
120 3 129 5 201 40 70 33 79 40 109 94 41 76 47 125 24 211 -15 56 -26 75 -62
109 -59 54 -65 98 -28 203 30 85 32 127 11 178 -34 80 -47 159 -48 292 -2 144
-26 267 -85 441 -34 100 -96 167 -202 217 -90 43 -107 57 -126 102 -25 60 -19
94 25 129 39 32 71 98 71 150 0 32 -45 164 -79 233 -16 32 -61 107 -101 168
-72 111 -119 220 -120 277 0 44 68 97 150 117 14 4 42 21 64 38 36 31 38 34
32 77 -8 60 -61 156 -108 196 -63 54 -153 71 -225 41 -58 -24 -108 -20 -145
14 -31 27 -33 34 -32 88 1 38 9 71 23 98 14 25 21 57 21 91 0 43 -6 58 -34 96
-27 35 -47 49 -97 68 -121 44 -190 59 -301 65 -101 6 -119 5 -166 -14 -63 -25
-184 -29 -237 -7 -44 19 -67 63 -59 114 16 99 -104 194 -195 156 -47 -20 -65
-38 -100 -98 -42 -74 -74 -101 -121 -101 -69 0 -115 62 -131 173 -11 78 -29
118 -78 174 -21 24 -46 58 -57 76 -18 33 -96 82 -128 82 -7 0 -24 -8 -37 -19
l-23 -18 48 -51 c31 -33 52 -67 61 -99 8 -26 23 -79 35 -118 11 -38 20 -81 20
-94 0 -14 7 -54 16 -90 15 -60 15 -68 0 -117 -11 -34 -28 -62 -48 -80 -30 -25
-37 -26 -97 -20 -86 9 -110 22 -210 112 -129 117 -175 132 -289 93 -74 -25
-117 -20 -162 17 -35 30 -37 49 -14 174 37 208 38 214 8 293 -22 59 -122 197
-222 308 -82 90 -271 194 -425 235 -84 22 -158 57 -189 90 -37 41 -48 92 -45
229 2 105 -1 126 -20 167 -30 66 -96 133 -159 163 -48 23 -58 33 -86 88 -24
47 -31 74 -30 112 0 28 -4 66 -10 85 -12 36 -163 234 -261 339 -52 57 -58 67
-53 95 8 41 53 86 85 86 14 0 58 -14 96 -30 39 -17 102 -35 140 -41 145 -23
208 -63 282 -176 18 -29 42 -57 54 -63 33 -18 92 -14 129 9 19 11 43 21 53 21
34 0 99 -41 115 -73 9 -18 32 -46 50 -64 31 -31 38 -33 104 -33 66 0 72 2 104
34 48 48 46 89 -7 184 -39 71 -62 93 -157 151 -47 28 -92 94 -92 136 0 68 64
109 198 129 64 10 108 24 168 54 80 40 94 53 175 160 22 29 58 66 81 82 62 45
97 47 220 15 70 -18 118 -25 140 -21 59 11 132 52 165 92 18 21 40 47 50 56
10 10 33 32 52 50 48 46 118 161 126 206 3 20 21 64 40 97 108 190 120 238 85
354 -15 51 -33 86 -59 115 -102 114 -161 208 -161 255 0 14 -4 42 -10 61 -5
19 -17 89 -26 157 -14 99 -14 128 -4 152 15 37 47 59 97 66 39 6 48 2 121 -48
34 -24 63 -32 169 -48 107 -17 141 -26 208 -60 44 -22 98 -54 119 -72 22 -17
69 -43 105 -57 37 -15 85 -36 106 -47 22 -11 84 -35 139 -53 85 -28 108 -32
170 -28 122 8 235 80 451 289 144 138 132 134 365 135 151 0 206 4 245 17 79
26 139 70 183 134 73 107 108 143 189 201 45 31 117 84 160 116 43 33 116 82
163 110 107 63 268 203 322 280 50 71 74 133 89 228 13 86 38 157 77 218 23
36 48 56 128 100 175 97 212 146 224 295 12 155 60 208 208 229 57 8 123 43
195 103 129 107 155 124 215 144 76 25 98 26 277 11 255 -22 356 -17 518 24
135 34 145 35 212 24 38 -6 108 -26 155 -45 93 -37 193 -67 281 -85 32 -6 109
-29 172 -50 64 -21 153 -44 199 -50 227 -31 279 -54 415 -184 185 -176 238
-245 318 -411 40 -82 76 -161 80 -175 42 -138 164 -289 309 -384 116 -76 376
-201 481 -231 142 -42 200 -29 312 69 65 57 117 76 205 76 22 0 71 9 108 20
56 17 81 32 145 89 43 39 103 83 134 99 100 52 225 129 276 171 230 188 263
211 373 260 61 28 116 51 121 51 18 0 227 91 261 114 86 57 119 68 168 58 56
-12 108 -5 142 18 14 9 33 20 42 23 9 3 26 23 37 44 30 59 59 80 128 93 34 6
77 17 95 24 18 8 60 17 93 21 92 11 254 44 278 56 12 7 67 42 122 78 l100 66
100 3 c97 3 105 2 240 -43 169 -57 219 -60 345 -20 47 15 150 62 230 105 80
42 156 81 170 85 23 7 74 26 280 104 102 39 239 54 435 49 137 -3 167 -7 208
-25 87 -40 197 -65 296 -68 81 -2 109 -7 176 -35 90 -36 203 -71 285 -90 51
-11 102 -39 328 -176 126 -76 250 -106 382 -92 41 4 158 12 260 18 295 16 433
27 460 38 14 5 70 10 125 10 l100 1 190 -94 c208 -102 369 -155 477 -155 42 0
97 -13 208 -50 112 -38 159 -49 184 -45 47 9 141 -11 258 -54 167 -63 186 -62
468 14 201 55 347 32 439 -69 126 -139 191 -183 302 -205 31 -7 108 -38 170
-70 109 -56 186 -81 250 -81 16 0 68 -14 117 -30 70 -25 114 -33 227 -41 183
-13 213 -21 315 -80 97 -56 224 -103 320 -118 36 -6 92 -20 125 -30 41 -13
108 -21 200 -26 187 -9 222 -21 307 -105 69 -68 168 -130 208 -130 28 0 210
-44 269 -64 52 -19 199 -21 316 -5 66 9 96 8 170 -5 184 -34 575 -71 671 -64
126 9 194 63 202 162 4 45 1 56 -21 82 -14 17 -58 45 -97 63 -71 33 -114 37
-177 16 -17 -6 -23 -3 -23 8 0 20 30 37 65 37 76 0 231 141 256 234 34 124
-40 314 -143 367 -54 27 -210 133 -230 156 -27 30 -65 122 -79 190 -17 81 -2
177 39 264 57 119 50 183 -24 230 -37 22 -65 76 -72 135 -4 38 -1 45 36 82 45
45 181 138 286 197 91 51 126 82 161 147 26 47 30 65 33 155 2 57 1 114 -2
128 -9 36 -81 85 -123 85 -39 0 -79 -25 -198 -125 -119 -100 -166 -128 -356
-205 -95 -39 -207 -88 -248 -108 -68 -33 -86 -37 -167 -40 -86 -4 -96 -2 -170
31 -44 19 -148 62 -233 96 -85 35 -180 75 -210 91 -63 31 -224 84 -289 95 -24
4 -58 19 -75 34 -18 15 -57 43 -87 64 -30 20 -71 50 -91 67 -24 21 -52 33 -91
39 -30 5 -83 21 -117 36 -67 28 -197 49 -240 38 -14 -3 -76 -30 -137 -59 -86
-42 -132 -57 -205 -69 -124 -21 -228 -45 -259 -61 -33 -16 -94 -81 -113 -120
-9 -17 -23 -61 -31 -98 -36 -154 -73 -200 -237 -296 -52 -30 -130 -82 -174
-115 -276 -209 -418 -259 -560 -195 -22 9 -80 43 -129 74 -61 38 -118 65 -175
82 -129 38 -178 63 -227 117 -58 65 -91 136 -114 245 -16 81 -17 97 -4 163 9
50 26 93 54 139 34 57 40 74 40 123 0 76 -14 106 -96 206 -116 142 -186 160
-400 108 -62 -15 -165 -32 -230 -37 -232 -19 -420 -60 -551 -121 -34 -16 -77
-29 -95 -29 -18 0 -58 -7 -88 -15 -77 -21 -248 -20 -300 1 -78 31 -171 10
-269 -62 -47 -34 -194 -77 -261 -77 -39 0 -73 8 -112 26 -48 21 -61 33 -82 76
-19 36 -42 61 -83 90 -32 22 -69 49 -83 60 -39 31 -74 26 -121 -16 -22 -21
-49 -55 -60 -76 -26 -50 -57 -64 -109 -48 -42 12 -70 50 -70 93 0 50 47 80
113 72 38 -5 52 -3 67 11 41 37 13 113 -59 161 -34 22 -62 29 -188 43 -138 17
-154 21 -233 61 -47 23 -97 51 -112 62 -15 10 -91 52 -168 91 -101 53 -159 90
-210 136 -85 77 -91 104 -33 148 20 15 55 45 78 65 23 21 100 68 171 106 395
209 382 202 433 266 26 34 59 81 73 106 14 25 45 66 67 92 23 25 48 62 56 82
29 69 14 170 -42 281 -11 22 -31 69 -43 105 -86 247 -335 581 -577 776 -137
110 -164 124 -248 124 -55 -1 -85 -7 -140 -30 -79 -34 -158 -45 -404 -55 -85
-4 -216 -17 -295 -31 -77 -13 -179 -24 -226 -24 -127 0 -204 -16 -300 -62
-147 -71 -236 -55 -295 53 -36 68 -47 209 -21 285 28 82 16 164 -23 164 -33 0
-86 -56 -115 -120 l-27 -61 -5 -357 c-4 -275 -9 -366 -20 -398 -55 -156 -355
-228 -498 -119 -76 58 -118 71 -130 40 -9 -25 33 -124 71 -166 41 -45 61 -52
231 -74 160 -20 205 -42 243 -117 48 -95 2 -288 -123 -512 -122 -217 -154
-258 -313 -394 -55 -47 -243 -228 -418 -401 -287 -284 -327 -328 -395 -431
-56 -86 -115 -156 -231 -275 -142 -146 -275 -306 -328 -395 -20 -34 -58 -143
-84 -243 -14 -57 -34 -88 -138 -217 -133 -164 -173 -230 -241 -395 -78 -193
-131 -233 -325 -247 -60 -4 -157 -13 -215 -21 -96 -12 -123 -11 -320 11 -263
29 -290 38 -325 114 -19 42 -25 69 -25 129 0 82 -21 168 -51 211 -29 40 -132
105 -244 153 -72 31 -91 48 -211 192 -51 61 -114 128 -139 150 -25 21 -64 66
-86 99 -52 80 -156 179 -215 205 -54 24 -110 20 -161 -11 -43 -26 -59 -60 -78
-170 -9 -51 -23 -106 -30 -120 -23 -44 -72 -80 -110 -80 -50 0 -135 72 -228
193 -51 67 -152 81 -327 44 -135 -28 -364 -50 -450 -44 -101 8 -169 35 -304
121 -127 81 -181 139 -220 236 -31 77 -100 190 -115 190 -16 0 -111 100 -143
149 -16 25 -38 76 -49 113 -29 97 -83 171 -286 389 -212 227 -257 282 -322
386 -64 104 -96 169 -129 261 -17 47 -60 127 -112 207 -98 149 -177 282 -222
374 -29 59 -32 74 -32 160 -1 105 -3 98 94 271 34 60 52 105 60 155 15 85 52
168 113 258 52 75 54 81 66 181 20 173 -49 279 -252 385 -84 44 -129 51 -166
25 -30 -21 -138 -12 -198 17 -88 42 -179 146 -203 229 -10 33 12 238 30 285 5
13 14 64 21 112 8 59 21 107 40 144 17 35 35 95 45 153 l16 97 -31 122 c-21
79 -44 141 -65 177 -19 30 -44 75 -56 100 -28 54 -132 160 -180 182 -20 9 -75
25 -122 34 l-87 17 -115 -27 c-123 -29 -160 -28 -214 4 -41 25 -59 62 -99 204
-18 66 -41 128 -50 139 -43 46 -106 60 -142 30z m10549 -4607 c63 -19 136 -36
162 -36 159 -1 643 -187 814 -313 73 -54 97 -97 102 -190 4 -61 2 -71 -24
-108 -41 -59 -98 -94 -204 -125 -84 -24 -104 -26 -209 -21 -135 6 -228 31
-273 74 -56 53 -81 109 -88 197 -10 114 -44 222 -84 262 -58 58 -144 64 -252
19 -56 -23 -116 -20 -147 9 -34 32 -66 96 -73 148 -7 50 14 84 68 112 41 20
64 17 208 -28z m-6 -815 c93 -35 126 -67 126 -121 0 -42 -14 -79 -34 -92 -19
-13 -128 -9 -201 7 -39 9 -115 19 -169 22 -116 7 -136 19 -136 82 0 55 29 86
98 106 134 40 204 39 316 -4z m4200 -477 c48 -49 71 -185 46 -276 -19 -68 -91
-80 -142 -25 l-31 32 6 100 c6 109 15 143 47 175 27 27 42 25 74 -6z m3223
-79 c102 -27 152 -50 342 -159 135 -78 272 -130 384 -145 77 -10 97 -32 97
-105 0 -65 -13 -83 -103 -147 -127 -88 -177 -127 -226 -172 -36 -33 -60 -47
-99 -56 -115 -24 -129 -24 -186 0 -55 22 -56 22 -115 4 -69 -21 -95 -16 -167
27 -37 22 -58 44 -75 77 -21 43 -23 59 -25 221 -1 177 -12 249 -50 322 -18 35
-5 70 44 121 43 44 56 45 179 12z m-853 -339 c20 -8 40 -28 53 -52 11 -22 30
-58 42 -80 12 -23 27 -73 33 -110 5 -38 21 -98 33 -134 13 -36 31 -101 40
-145 39 -182 71 -258 156 -371 85 -114 95 -144 64 -204 -28 -55 -87 -65 -162
-29 -56 27 -80 62 -98 145 -18 87 -75 199 -100 199 -11 0 -37 -28 -68 -74 -61
-89 -109 -115 -227 -125 -41 -4 -101 -11 -132 -17 -53 -9 -67 -7 -170 26 -97
30 -132 48 -241 121 -100 66 -132 93 -143 119 -18 44 -18 105 1 132 16 22 219
130 307 162 85 32 174 43 273 37 80 -6 94 -4 123 14 18 11 40 36 49 55 15 30
15 42 5 80 -17 62 -15 106 5 135 58 86 96 130 109 130 8 0 30 -6 48 -14z
m1177 -796 c10 -6 28 -28 39 -49 27 -53 74 -91 114 -91 17 0 58 -7 89 -15 32
-8 68 -15 80 -15 14 0 39 -17 62 -40 45 -46 95 -63 152 -54 26 4 52 0 79 -11
60 -25 162 -12 210 26 20 16 45 29 54 29 44 0 160 -34 205 -60 28 -16 67 -36
87 -45 70 -32 57 -85 -29 -112 -43 -13 -60 -14 -105 -4 -29 6 -89 16 -134 21
-45 5 -93 14 -108 20 -43 16 -73 12 -114 -14 -20 -14 -64 -35 -97 -47 -33 -12
-88 -39 -122 -60 -123 -76 -141 -82 -214 -77 -100 8 -184 51 -273 141 -117
117 -143 190 -112 318 29 120 78 170 137 139z m-22283 -7895 c63 -27 152 -129
152 -176 0 -7 14 -41 31 -75 34 -71 63 -227 57 -309 -5 -55 -43 -123 -85 -151
-23 -14 -34 -15 -99 -4 -42 7 -97 10 -131 6 -133 -15 -281 -18 -315 -7 -22 7
-65 42 -112 91 -78 80 -78 80 -71 122 12 74 35 142 58 169 12 15 58 55 101 89
44 35 117 101 163 148 108 109 166 132 251 97z m2112 -1863 c43 -23 117 -126
176 -246 52 -106 58 -166 21 -231 -33 -59 -99 -105 -150 -105 -65 0 -119 19
-152 54 -68 73 -155 277 -155 364 0 53 37 127 78 156 46 32 128 36 182 8z
m268 -833 c58 -29 71 -57 45 -101 -20 -35 -72 -75 -110 -84 -51 -13 -132 32
-146 83 -14 49 17 106 63 114 67 12 104 9 148 -12z m1268 -138 c15 -12 34 -30
41 -41 12 -17 9 -22 -34 -51 -56 -39 -190 -97 -243 -105 -33 -5 -40 -3 -53 17
-27 44 -28 64 -5 99 30 44 65 68 129 91 66 24 127 20 165 -10z"/>
<path d="M24287 35630 c-15 -4 -46 -22 -69 -39 -47 -35 -81 -39 -133 -14 -34
16 -37 16 -92 -7 -105 -42 -170 -88 -187 -131 -15 -38 -17 -39 -63 -39 -27 0
-66 -7 -89 -15 -22 -7 -103 -26 -180 -40 -223 -42 -392 -108 -517 -203 -27
-21 -82 -78 -122 -127 l-73 -91 -98 -38 -99 -38 -86 16 c-114 21 -131 20 -189
-9 -28 -14 -67 -25 -89 -25 -77 0 -60 -38 20 -44 30 -2 74 -12 99 -21 103 -39
286 -34 386 10 30 13 130 78 222 143 258 184 262 186 476 244 140 37 357 154
371 199 5 16 16 19 69 19 70 0 157 30 235 79 95 61 137 74 215 66 100 -10 115
-9 164 4 34 10 42 16 42 35 0 34 -28 53 -90 60 -30 3 -64 8 -75 10 -11 3 -32
1 -48 -4z"/>
<path d="M21985 34740 c-62 -29 -132 -99 -172 -175 -24 -43 -51 -88 -61 -99
-11 -12 -49 -65 -86 -118 -54 -78 -69 -108 -76 -154 -21 -126 -71 -237 -141
-309 -30 -32 -38 -72 -18 -92 40 -40 142 76 256 290 41 78 85 158 98 177 12
19 31 61 43 92 12 32 37 81 55 110 19 29 50 78 69 109 57 88 80 138 73 160 -7
21 -11 22 -40 9z"/>
</g>
</svg>
