<?xml version="1.0" standalone="no"?>
<!DOCTYPE svg PUBLIC "-//W3C//DTD SVG 20010904//EN"
 "http://www.w3.org/TR/2001/REC-SVG-20010904/DTD/svg10.dtd">
<svg version="1.0" xmlns="http://www.w3.org/2000/svg"
 width="3286.000000pt" height="3682.000000pt" viewBox="0 0 3286.000000 3682.000000"
 preserveAspectRatio="xMidYMid meet">
<metadata>
Created by potrace 1.15, written by Peter Selinger 2001-2017
</metadata>
<g transform="translate(0.000000,3682.000000) scale(0.100000,-0.100000)"
fill="#000000" stroke="none">
<path d="M23405 35300 c-11 -5 -33 -9 -48 -9 -49 -2 -160 -52 -209 -96 -26
-23 -62 -45 -79 -49 -35 -7 -119 -85 -119 -111 0 -7 9 -17 20 -20 16 -5 32 4
64 33 24 22 54 43 67 47 13 4 32 16 42 26 11 12 32 19 57 19 22 0 62 9 90 20
28 11 61 20 73 20 12 0 42 11 67 24 25 13 64 29 88 36 27 9 42 19 42 30 0 31
-105 52 -155 30z"/>
<path d="M12686 34797 c-3 -28 -11 -90 -16 -137 -6 -47 -14 -133 -18 -191 -4
-58 -12 -112 -18 -120 -33 -41 -55 -328 -32 -415 27 -100 119 -222 230 -307
186 -142 249 -224 283 -369 21 -90 19 -254 -5 -358 -30 -131 -28 -413 4 -575
23 -118 46 -174 92 -225 13 -14 37 -61 54 -104 37 -91 76 -147 184 -261 52
-55 76 -88 76 -105 0 -24 42 -95 112 -189 39 -52 71 -106 108 -181 15 -31 68
-98 118 -152 58 -63 100 -118 117 -155 14 -32 32 -69 38 -83 11 -23 39 -44
138 -105 58 -36 174 -227 229 -376 40 -110 41 -197 4 -278 -42 -92 -96 -122
-246 -141 -46 -5 -114 -19 -153 -30 -38 -11 -92 -20 -119 -20 -68 0 -332 -53
-476 -95 -30 -9 -86 -18 -125 -21 -38 -3 -117 -14 -175 -24 -158 -29 -270 -44
-320 -43 -142 3 -171 2 -216 -12 -27 -8 -78 -15 -114 -15 -36 0 -103 -9 -150
-20 -47 -11 -120 -20 -162 -20 -43 0 -119 -9 -170 -19 -51 -11 -145 -29 -208
-41 -263 -49 -332 -66 -445 -110 -27 -10 -101 -35 -162 -54 -116 -37 -306
-108 -403 -151 -65 -28 -133 -49 -215 -66 -33 -6 -102 -34 -154 -60 -52 -27
-106 -49 -120 -49 -14 0 -46 -10 -71 -21 -32 -15 -78 -23 -160 -28 -87 -6
-128 -14 -167 -31 l-53 -24 -27 20 c-51 38 -55 57 -38 210 11 94 12 141 5 148
-5 5 -10 26 -10 46 0 19 -7 46 -15 60 -8 14 -26 48 -39 77 l-25 51 -78 16
c-43 9 -112 23 -153 32 -41 9 -86 18 -100 21 -14 2 -42 16 -62 30 -38 26 -101
52 -129 53 -9 0 -36 -11 -60 -23 -24 -13 -57 -27 -72 -31 -22 -5 -34 -19 -53
-62 -13 -30 -24 -63 -24 -74 0 -34 -47 -55 -119 -54 -55 2 -73 -3 -118 -28
-29 -16 -53 -34 -53 -40 0 -5 -20 -27 -44 -49 -32 -29 -48 -55 -61 -96 -21
-67 -65 -119 -108 -128 -18 -4 -51 -14 -74 -22 -38 -12 -45 -12 -67 2 -20 13
-37 15 -82 9 -53 -6 -63 -12 -117 -65 l-60 -58 7 -57 c4 -32 13 -65 21 -74 21
-23 19 -27 -15 -45 -39 -20 -81 -4 -132 54 -30 33 -38 49 -38 80 0 42 -22 74
-48 69 -11 -2 -20 -31 -34 -113 -10 -60 -27 -137 -38 -170 -34 -98 -57 -184
-79 -290 -11 -55 -29 -138 -39 -185 -38 -174 -56 -276 -57 -320 0 -39 -3 -46
-29 -59 -56 -27 -90 26 -106 165 -9 89 -27 155 -47 175 -19 19 -57 6 -72 -25
-7 -16 -14 -65 -15 -110 -3 -106 -13 -170 -37 -227 -14 -36 -16 -54 -9 -79 5
-18 7 -44 3 -58 -3 -13 0 -41 7 -62 10 -32 10 -45 0 -70 -17 -42 -32 -47 -129
-49 l-83 -1 -52 -47 c-81 -74 -87 -89 -95 -211 -6 -84 -4 -128 10 -207 10 -55
23 -131 29 -170 6 -38 15 -99 21 -135 5 -36 19 -115 30 -176 18 -93 19 -120
10 -163 -17 -80 -14 -101 30 -191 22 -46 46 -109 54 -139 19 -77 40 -148 59
-200 9 -24 16 -59 16 -78 0 -78 -80 -351 -122 -416 -70 -109 -78 -126 -78
-164 0 -22 -11 -74 -25 -114 -15 -41 -35 -108 -47 -149 -11 -41 -33 -94 -49
-118 -16 -24 -29 -49 -29 -56 0 -16 -91 -156 -113 -174 -8 -7 -30 -42 -48 -78
-19 -36 -48 -82 -64 -103 -17 -20 -50 -69 -74 -109 -53 -88 -71 -102 -133
-102 -64 0 -113 -41 -123 -103 -4 -23 -21 -73 -39 -112 l-31 -70 3 -162 c2
-152 1 -164 -22 -217 -21 -46 -32 -59 -73 -80 -78 -39 -80 -45 -42 -123 33
-66 34 -72 40 -233 5 -118 13 -186 28 -240 32 -117 36 -131 74 -205 20 -38 52
-115 72 -170 40 -110 144 -316 199 -392 19 -26 74 -84 122 -128 49 -44 111
-102 139 -129 98 -95 104 -98 219 -106 113 -7 144 -19 174 -71 9 -16 48 -87
86 -159 38 -71 85 -144 104 -162 85 -81 133 -135 138 -154 14 -54 -15 -103
-134 -231 -64 -69 -134 -138 -156 -152 -21 -14 -50 -34 -65 -44 -32 -21 -107
-45 -181 -57 -65 -11 -96 -40 -105 -98 -3 -20 -10 -50 -16 -67 -36 -99 -48
-139 -54 -179 -12 -77 -37 -83 -195 -47 -188 42 -200 44 -224 28 -12 -8 -39
-40 -61 -71 -47 -68 -98 -92 -172 -81 -54 8 -206 70 -224 91 -6 7 -26 16 -45
20 -19 3 -51 22 -71 41 -21 19 -71 50 -111 70 -65 31 -81 35 -133 31 -66 -5
-99 -27 -99 -65 0 -64 48 -90 136 -74 33 6 79 10 104 10 38 -1 48 -5 63 -27
19 -30 72 -98 120 -154 20 -23 50 -43 79 -53 44 -15 108 -72 108 -96 0 -5 -10
-53 -21 -107 -28 -129 -23 -222 19 -318 17 -38 35 -102 41 -143 14 -90 52
-165 131 -260 32 -38 63 -78 69 -89 17 -31 13 -81 -10 -150 -22 -66 -60 -108
-107 -118 -84 -18 -122 -58 -122 -127 0 -76 -59 -134 -109 -107 -36 18 -168
40 -248 40 -75 0 -75 0 -124 -44 -27 -24 -66 -66 -88 -93 -46 -58 -100 -85
-230 -113 -103 -23 -138 -17 -197 34 -103 88 -209 116 -442 116 -210 -1 -220
-5 -292 -113 -65 -97 -102 -127 -160 -127 -41 0 -48 5 -117 73 -62 63 -73 79
-73 108 0 54 -25 129 -63 194 -74 124 -77 127 -170 163 -47 19 -92 40 -98 49
-7 8 -38 27 -69 43 -57 29 -140 108 -140 134 0 21 -60 146 -91 189 -15 21 -45
51 -66 66 -70 51 -198 196 -232 262 -84 165 -134 234 -191 263 -14 7 -65 23
-115 36 -49 12 -102 28 -116 36 -29 15 -101 92 -127 137 -9 15 -36 37 -60 49
-38 18 -53 20 -105 13 -94 -13 -129 -9 -177 15 -105 54 -152 98 -198 185 -23
42 -69 103 -117 155 -45 47 -96 108 -115 135 -47 70 -215 246 -253 267 -18 9
-40 17 -49 18 -49 1 -121 25 -169 56 -30 19 -77 42 -106 51 -48 15 -57 15
-135 -1 -119 -25 -146 -35 -163 -59 -28 -40 -27 -42 84 -219 20 -31 50 -79 66
-108 17 -28 44 -70 61 -93 16 -23 51 -78 76 -122 26 -44 56 -93 68 -110 35
-50 118 -186 202 -330 22 -38 49 -79 59 -90 10 -11 26 -38 36 -60 26 -57 72
-134 106 -178 47 -61 75 -104 103 -160 15 -28 34 -62 44 -77 97 -142 139 -207
161 -247 47 -87 90 -157 140 -228 27 -38 63 -95 80 -125 16 -30 42 -74 57 -97
15 -23 41 -62 57 -88 17 -25 39 -58 51 -73 11 -15 42 -67 68 -116 26 -49 61
-108 77 -130 53 -73 77 -110 112 -171 93 -165 150 -259 208 -345 35 -53 74
-114 87 -135 13 -22 42 -71 64 -110 22 -38 48 -79 58 -90 9 -11 42 -63 73
-115 30 -52 82 -135 114 -183 32 -49 70 -107 85 -130 16 -23 38 -62 51 -87 12
-25 61 -103 108 -175 48 -71 97 -150 109 -175 29 -57 66 -115 106 -165 17 -22
53 -80 80 -130 26 -49 65 -113 86 -142 20 -28 51 -77 68 -108 36 -67 42 -77
136 -220 39 -60 79 -126 89 -145 9 -19 56 -93 104 -163 120 -179 136 -204 172
-272 34 -64 73 -128 233 -377 18 -29 46 -75 62 -101 60 -99 90 -141 111 -155
20 -13 24 -12 48 12 26 26 26 29 20 119 -3 50 -13 157 -22 237 -21 198 -15
276 27 365 l34 70 4 222 c3 184 1 235 -14 300 -9 43 -20 141 -24 218 -5 102
-13 157 -29 205 -34 102 -36 139 -11 198 18 43 33 59 84 91 33 22 91 68 128
103 88 83 168 114 273 104 185 -17 211 -18 262 -6 30 6 73 22 96 36 23 13 49
24 57 24 8 0 40 18 71 40 61 43 126 136 140 199 19 88 43 158 60 180 11 13 19
30 19 38 0 9 11 36 24 62 43 83 59 144 81 311 7 55 26 85 64 104 58 30 229
-20 311 -91 19 -16 56 -42 81 -57 l46 -26 209 8 c227 9 240 13 350 87 46 31
69 31 165 0 70 -22 81 -23 143 -12 56 9 80 9 150 -6 113 -23 132 -22 196 13
61 33 123 38 208 19 45 -11 54 -10 103 14 30 14 64 39 76 55 31 41 110 52 185
24 29 -11 77 -22 107 -26 30 -4 69 -13 87 -21 17 -7 74 -18 125 -25 52 -7 99
-16 104 -20 6 -4 23 -10 39 -14 35 -8 116 -73 174 -139 l42 -48 0 -91 0 -91
66 -61 c36 -33 77 -81 90 -106 13 -25 44 -70 69 -100 25 -30 53 -68 63 -84 9
-16 49 -65 89 -108 l72 -79 -5 -72 c-6 -78 -35 -175 -68 -221 -33 -48 -38
-129 -14 -200 11 -34 28 -70 37 -81 40 -47 71 -166 50 -191 -9 -12 -9 -26 1
-68 13 -57 8 -121 -15 -193 -10 -29 -11 -51 -5 -73 14 -49 28 -60 75 -60 26 0
47 -6 56 -16 7 -8 25 -22 41 -30 26 -13 28 -19 28 -74 0 -33 -7 -78 -16 -100
-11 -27 -14 -52 -9 -73 3 -17 10 -60 15 -94 10 -79 37 -117 102 -145 61 -26
91 -68 77 -105 -17 -47 5 -94 74 -155 34 -30 76 -75 92 -99 16 -24 44 -64 62
-88 22 -29 33 -55 33 -77 0 -18 5 -36 10 -39 16 -10 12 -54 -7 -86 -17 -28
-17 -30 5 -45 13 -9 22 -26 22 -40 0 -42 194 -239 245 -248 58 -12 135 -54
145 -81 19 -49 -32 -126 -112 -170 -15 -9 -37 -33 -48 -55 -21 -42 -20 -67 5
-125 21 -48 5 -116 -36 -158 -19 -19 -45 -49 -58 -66 -12 -17 -40 -40 -60 -50
-45 -23 -115 -98 -134 -143 -8 -18 -47 -64 -86 -103 -77 -77 -88 -108 -51
-145 17 -17 28 -19 58 -14 57 11 74 19 124 63 49 44 86 52 112 25 19 -19 19
-27 1 -134 -20 -116 -32 -168 -67 -285 -48 -163 -67 -256 -68 -325 0 -36 -9
-103 -20 -150 -28 -123 -28 -496 0 -620 15 -70 17 -93 8 -135 -15 -70 7 -470
33 -587 11 -52 19 -127 19 -183 0 -95 18 -183 54 -266 8 -20 24 -86 35 -146
10 -61 28 -127 39 -149 11 -21 27 -69 36 -105 10 -37 39 -110 67 -163 27 -53
49 -104 49 -112 0 -9 14 -47 31 -86 27 -62 30 -77 24 -128 -6 -51 -4 -60 17
-85 13 -15 44 -37 68 -49 51 -24 81 -64 106 -139 9 -29 25 -63 34 -77 10 -14
59 -106 111 -205 86 -168 98 -186 183 -273 152 -156 220 -200 365 -233 62 -14
233 -97 328 -160 45 -30 110 -70 144 -89 34 -19 96 -62 137 -95 79 -64 230
-162 298 -195 24 -11 80 -24 132 -29 100 -11 109 -14 194 -77 41 -30 73 -45
106 -49 26 -4 86 -16 134 -26 102 -22 393 -27 431 -8 12 6 45 36 73 65 69 74
83 73 216 -16 84 -57 146 -112 320 -288 119 -120 235 -231 259 -247 24 -16 71
-52 104 -79 33 -27 92 -64 131 -82 51 -24 93 -55 145 -105 121 -116 142 -130
417 -268 145 -73 291 -151 325 -175 34 -24 103 -60 152 -80 50 -20 101 -44
115 -54 47 -35 72 -44 174 -62 100 -18 177 -48 241 -94 17 -12 46 -31 65 -43
114 -67 160 -99 227 -155 41 -35 89 -74 107 -88 18 -14 79 -75 135 -137 107
-117 131 -161 131 -237 0 -51 4 -55 60 -84 38 -19 51 -21 76 -12 27 9 37 7 69
-12 76 -46 559 -519 632 -618 58 -79 168 -179 228 -206 33 -16 86 -27 150 -34
65 -7 118 -19 159 -36 177 -77 193 -86 356 -194 14 -10 46 -28 70 -40 24 -12
56 -30 70 -40 90 -62 295 -213 347 -255 33 -27 87 -66 120 -85 140 -83 205
-149 358 -362 53 -74 116 -148 233 -273 20 -22 80 -78 133 -125 77 -67 122
-98 220 -147 159 -80 151 -77 429 -113 36 -4 84 -15 107 -23 22 -9 123 -77
222 -153 158 -119 189 -147 235 -213 62 -88 177 -201 256 -252 167 -109 205
-139 311 -247 63 -64 138 -151 167 -193 37 -56 60 -80 83 -88 67 -23 99 -9 99
43 0 56 -11 71 -81 119 -52 36 -84 69 -125 127 -57 82 -77 101 -165 160 -54
37 -331 306 -386 375 -17 22 -49 79 -71 125 -22 47 -59 110 -81 140 -23 30
-59 93 -82 140 -65 137 -101 184 -157 208 -66 29 -93 35 -466 103 -112 20
-193 50 -324 117 -85 44 -196 151 -266 257 -79 120 -90 135 -138 192 -27 31
-48 60 -48 64 0 4 -40 41 -88 83 -49 41 -105 99 -125 129 -20 29 -56 69 -79
88 -23 19 -74 62 -114 96 -66 57 -113 92 -184 140 -14 10 -60 43 -103 75 -43
32 -119 79 -170 104 -51 26 -128 72 -172 102 -44 31 -105 68 -135 84 -30 16
-75 42 -100 58 -25 16 -66 40 -91 54 -88 48 -223 171 -403 370 -64 71 -77 91
-72 110 6 26 25 37 72 41 49 5 84 32 84 67 0 36 -19 73 -80 157 -26 36 -61 93
-78 127 -43 85 -71 115 -142 153 -34 18 -76 49 -93 68 -107 117 -258 248 -332
286 -16 9 -47 32 -67 52 l-38 37 7 88 6 88 -63 40 c-34 23 -76 44 -94 48 -17
3 -77 19 -132 35 -56 16 -120 29 -142 29 -28 0 -68 14 -129 44 -81 39 -180 76
-243 90 -35 7 -70 42 -70 70 0 33 26 52 100 70 35 9 71 23 80 31 9 8 22 15 28
15 18 0 42 43 42 76 0 38 -32 68 -90 85 -33 10 -56 7 -170 -20 -72 -17 -144
-38 -160 -46 -38 -20 -53 -19 -103 4 -43 20 -78 58 -92 100 -4 13 -22 29 -40
37 -42 17 -50 42 -30 89 19 48 20 45 -11 78 -30 33 -47 32 -162 -14 -41 -16
-89 -29 -108 -29 -43 0 -100 28 -139 70 -52 55 -99 73 -174 66 -76 -6 -120 2
-211 38 -92 38 -94 39 -104 79 -8 32 -6 41 30 94 93 138 195 208 384 262 116
34 127 40 195 101 29 26 84 64 122 84 39 20 87 52 107 70 32 30 36 39 36 84 0
38 -6 57 -23 79 -13 15 -39 50 -57 77 -18 28 -75 91 -125 140 -50 50 -104 107
-121 126 -16 20 -57 59 -91 88 -33 30 -66 66 -73 81 -6 16 -22 33 -36 39 -33
15 -33 65 0 95 13 12 30 36 39 54 9 17 34 48 54 67 33 32 42 36 74 31 29 -5
51 1 105 28 113 57 114 59 130 172 8 55 17 119 20 142 8 54 -21 97 -82 124
-51 21 -87 71 -80 109 3 14 8 61 11 106 l7 81 -34 35 -34 36 -105 -5 c-99 -5
-108 -4 -128 16 -29 29 -31 100 -6 174 16 47 2 112 -31 145 -32 31 -35 131 -5
159 33 31 81 144 81 190 0 24 -9 70 -21 103 l-21 60 22 35 c12 19 30 40 40 45
20 11 117 168 126 205 7 28 -17 78 -61 125 -29 32 -75 143 -75 182 0 9 -30 35
-66 59 -54 35 -71 53 -90 94 -13 27 -24 64 -24 80 0 50 43 129 84 154 56 35
106 106 106 152 0 52 -14 84 -61 138 -54 62 -138 124 -229 171 -139 71 -177
120 -194 250 -4 30 -22 69 -52 115 -62 94 -72 121 -84 212 -17 128 -32 203
-41 203 -5 0 -15 13 -24 30 -9 18 -26 32 -43 35 -115 24 -150 49 -159 113 -4
30 -1 47 10 60 8 9 29 45 46 80 31 60 31 64 19 114 -10 42 -20 57 -48 74 -19
13 -48 34 -65 47 -45 36 -165 117 -174 117 -4 0 -16 -9 -25 -19 -20 -22 -109
-37 -151 -27 l-26 7 18 30 c10 17 33 44 51 60 30 27 44 69 23 69 -5 0 -18 15
-29 34 -14 24 -41 44 -92 70 -40 20 -80 36 -89 36 -9 0 -27 6 -41 13 -14 8
-41 17 -60 20 -36 8 -80 42 -80 63 0 25 51 53 108 59 31 4 74 13 95 21 29 11
77 13 220 9 l182 -4 26 -31 c17 -20 31 -54 38 -91 10 -51 16 -61 44 -76 19
-10 65 -18 114 -21 78 -4 83 -3 106 22 14 15 27 35 30 46 6 24 -49 103 -141
201 -34 36 -75 84 -91 105 -41 56 -134 141 -173 158 -18 8 -58 24 -88 36 -33
14 -71 40 -95 65 -25 26 -59 49 -90 60 -31 11 -71 38 -105 71 -99 96 -145 97
-370 15 -81 -30 -113 -27 -158 14 -22 19 -44 51 -50 72 -11 36 -67 118 -117
173 -12 14 -32 43 -44 65 -11 22 -32 58 -46 80 -58 94 -56 88 -45 181 6 47 8
94 5 103 -3 10 -30 42 -60 70 -66 63 -69 83 -20 147 19 25 35 52 35 59 0 7
-14 25 -32 40 -30 26 -36 27 -102 20 -39 -3 -96 -7 -126 -8 l-55 -2 2 44 c1
24 6 48 11 53 5 5 33 11 63 15 94 11 144 83 104 153 -21 37 -18 75 11 133 67
131 10 198 -182 211 l-82 5 -36 -35 c-34 -33 -36 -39 -31 -78 6 -39 4 -45 -25
-69 -17 -15 -36 -27 -42 -27 -10 0 -145 22 -249 40 -30 6 -69 10 -85 10 -39 0
-110 34 -124 59 -5 11 -10 29 -10 41 0 16 -15 28 -62 50 -53 25 -75 30 -142
30 -75 0 -79 1 -112 34 l-34 34 0 276 c0 345 2 350 129 367 66 9 81 22 57 48
-44 48 -27 122 31 142 52 17 107 55 123 85 12 21 11 29 -3 53 -9 16 -17 36
-17 45 0 10 -28 30 -71 52 -82 41 -104 40 -204 -5 -33 -15 -85 -36 -115 -45
-30 -9 -84 -26 -120 -37 -61 -20 -68 -20 -103 -6 -32 14 -37 20 -37 49 1 48
17 70 95 130 39 30 88 71 110 91 59 55 98 64 190 44 155 -34 260 -16 319 56
18 23 43 61 54 83 28 55 126 177 190 236 36 34 62 49 91 54 64 10 93 57 60 98
-17 22 -28 26 -73 26 -63 0 -106 -27 -203 -129 -163 -171 -142 -156 -284 -190
-70 -17 -145 -33 -167 -37 -55 -9 -97 15 -124 71 -20 41 -21 50 -10 107 23
125 21 142 -31 213 -24 33 -47 73 -51 90 -4 16 -25 46 -46 66 -33 32 -45 37
-104 42 -122 11 -197 59 -246 157 -15 30 -36 71 -46 90 -10 19 -18 55 -19 80
0 45 1 45 55 74 30 16 71 32 91 37 20 5 68 27 106 49 39 22 79 40 91 40 25 0
65 -17 111 -47 19 -13 41 -23 51 -23 25 0 60 38 60 66 0 16 15 41 43 68 41 43
43 44 126 50 109 9 162 32 185 80 9 20 16 51 14 69 -3 27 -9 34 -48 49 -25 9
-72 17 -106 17 -48 1 -69 7 -105 30 -58 36 -74 73 -64 144 11 75 10 144 -1
207 -10 58 0 106 32 155 12 18 14 38 10 72 -10 86 -11 87 -44 94 -35 7 -46 -1
-56 -42 -3 -15 -38 -61 -78 -102 l-73 -76 -69 3 c-54 3 -71 7 -76 20 -3 9 -19
25 -36 35 -26 16 -36 34 -57 103 -15 47 -35 92 -44 100 -10 9 -57 28 -104 42
-70 22 -95 35 -133 71 -25 25 -72 58 -104 74 -31 16 -75 43 -96 60 -73 58
-106 73 -175 81 -84 9 -119 25 -149 70 -23 35 -136 100 -175 100 -22 0 -146
61 -212 105 -27 18 -81 44 -120 56 -38 13 -85 34 -103 47 -63 48 -182 237
-182 291 0 11 -22 64 -49 118 -70 139 -111 286 -111 400 0 32 -9 96 -20 143
-22 96 -24 154 -9 220 20 88 79 119 183 95 33 -8 98 -15 143 -15 47 0 117 -9
165 -20 46 -11 102 -20 126 -20 24 0 82 -11 130 -24 123 -34 323 -44 372 -19
47 24 80 76 80 125 0 21 9 56 20 78 11 22 20 58 20 80 0 35 -6 47 -40 79 -25
24 -40 47 -40 62 0 27 -44 242 -56 274 -11 31 -45 65 -65 65 -30 0 -62 -50
-54 -85 17 -77 76 -386 82 -430 4 -35 1 -44 -27 -70 -28 -27 -40 -31 -108 -35
-47 -4 -99 -1 -132 7 -30 7 -117 13 -193 13 l-138 0 -64 60 c-35 32 -74 61
-87 64 -169 33 -208 39 -347 57 -170 23 -269 92 -352 247 -29 53 -62 111 -75
127 -12 17 -38 62 -57 100 -22 45 -54 88 -88 120 -30 28 -72 79 -94 113 -22
35 -63 94 -92 131 -28 38 -57 80 -63 93 -19 36 -52 68 -71 68 -17 0 -109 104
-109 124 0 17 21 36 40 36 17 0 63 -47 94 -96 32 -51 94 -103 135 -114 23 -6
48 -21 56 -34 8 -12 26 -29 40 -36 20 -11 28 -10 50 4 14 9 25 24 25 32 0 9
-42 62 -92 118 -61 66 -101 120 -117 156 -13 30 -26 62 -30 69 -13 27 -55 50
-116 66 -50 13 -69 25 -118 73 -65 64 -117 139 -117 168 0 10 9 46 20 78 26
77 25 81 -10 96 -62 25 -89 110 -60 185 8 21 4 48 -19 128 -16 56 -34 126 -41
156 -7 30 -30 92 -51 138 -51 109 -51 143 0 214 44 61 58 108 41 139 -23 43
70 190 219 345 43 44 96 107 118 140 23 33 64 83 93 110 28 28 76 84 105 125
58 82 242 266 315 315 162 109 170 119 186 245 7 50 13 61 74 125 37 39 92
104 122 145 55 75 95 114 278 273 313 271 397 315 830 432 74 20 158 46 185
57 28 11 91 31 140 44 109 28 189 64 274 122 35 25 96 60 135 78 61 30 80 34
148 34 63 0 99 7 185 36 66 22 117 46 133 61 13 14 41 33 60 43 27 14 44 35
72 93 48 96 83 126 199 167 52 18 144 58 204 89 117 60 125 63 282 117 57 19
131 53 165 74 147 92 292 160 397 185 152 38 214 60 326 115 96 49 176 70 342
94 95 14 199 56 289 117 49 33 102 68 118 77 16 9 50 35 77 57 53 45 131 95
147 95 6 0 53 22 104 48 51 26 138 68 193 92 99 44 101 44 215 45 63 0 144 -4
180 -9 61 -8 70 -6 140 24 72 30 79 31 170 25 52 -3 131 -6 175 -5 44 0 134 2
200 3 112 1 124 0 180 -26 121 -55 371 -111 566 -126 68 -6 144 -16 169 -25
101 -33 151 -56 192 -89 24 -19 81 -62 128 -95 47 -33 129 -105 182 -159 l96
-99 116 -238 c64 -130 116 -240 116 -243 0 -17 98 -138 146 -181 82 -74 274
-164 419 -197 73 -17 322 -20 397 -4 29 6 66 18 82 26 16 8 61 24 99 35 76 21
299 120 363 162 79 52 136 92 193 137 32 25 111 72 177 103 96 47 131 70 189
127 52 50 88 76 131 93 151 59 294 127 410 194 38 22 88 45 110 51 21 6 71 29
109 51 106 59 212 110 230 110 9 0 47 13 83 29 37 16 103 34 147 41 75 11 243
70 355 125 158 77 329 71 629 -20 50 -15 108 -25 144 -25 71 0 182 25 217 50
14 9 45 27 70 39 25 12 77 39 115 60 206 112 304 151 382 151 16 0 71 9 123
21 84 18 122 20 325 17 l231 -3 54 -29 c87 -45 136 -56 251 -56 81 0 122 -5
170 -21 35 -12 105 -24 154 -28 73 -5 99 -11 140 -35 28 -16 75 -42 105 -59
30 -16 78 -49 105 -72 85 -71 112 -86 175 -97 68 -12 110 -5 110 18 0 9 -25
40 -55 69 -30 29 -55 61 -55 72 0 11 11 32 25 47 20 22 32 26 79 26 31 0 77
-6 103 -12 41 -12 49 -18 66 -57 19 -43 19 -45 1 -98 l-19 -55 25 -20 c26 -21
43 -21 145 2 28 5 80 13 118 17 37 3 70 10 73 14 7 11 125 11 184 -1 26 -5
112 -4 206 2 190 11 205 8 324 -62 96 -56 246 -130 264 -130 6 0 74 -21 151
-46 114 -38 158 -47 235 -51 53 -3 104 -11 116 -18 34 -22 144 -47 175 -40 28
6 93 -8 224 -48 60 -19 94 -22 235 -22 l165 0 75 40 c65 34 84 40 145 41 97 2
163 11 197 25 44 18 134 -6 172 -46 32 -34 76 -119 76 -150 0 -53 70 -119 140
-131 19 -3 52 -17 73 -30 43 -28 89 -55 162 -94 28 -14 77 -41 110 -60 33 -18
78 -37 100 -42 91 -19 247 -32 358 -30 167 4 256 -23 367 -109 80 -61 213 -83
354 -58 67 12 130 -1 271 -56 39 -15 95 -30 125 -34 71 -9 107 -29 203 -112
95 -82 173 -128 247 -145 30 -7 96 -25 145 -38 204 -58 219 -60 309 -42 102
20 198 20 301 0 88 -17 246 -34 257 -28 4 2 51 -5 105 -17 83 -18 107 -20 160
-11 41 6 77 7 105 1 72 -17 132 1 156 47 9 17 7 27 -14 57 -13 20 -29 48 -34
62 -14 37 -44 30 -48 -11 -3 -28 -8 -33 -45 -42 -92 -24 -104 -24 -154 1 -26
14 -90 39 -141 56 -84 28 -123 48 -174 90 -25 20 -7 38 45 46 23 4 56 14 72
23 17 8 55 21 85 28 30 7 89 22 130 34 41 12 102 28 135 37 89 22 98 27 129
72 24 34 27 43 16 56 -22 27 -48 37 -68 26 -17 -9 -67 -11 -235 -10 -61 1 -90
-14 -102 -52 -4 -10 -29 -30 -56 -43 l-50 -25 -77 16 c-88 18 -244 12 -312
-12 -22 -8 -91 -26 -153 -41 -62 -14 -132 -34 -157 -44 -110 -44 -237 -52
-326 -21 -78 28 -164 93 -279 212 -75 78 -112 126 -147 192 -27 48 -48 93 -48
98 0 6 -9 22 -20 36 -11 14 -20 34 -20 45 0 24 -16 56 -45 88 -12 14 -30 48
-39 77 -11 32 -27 58 -42 68 -24 15 -25 21 -23 93 3 89 -14 183 -42 230 -17
30 -19 53 -18 223 l1 190 -31 48 c-17 26 -31 58 -31 70 0 12 -6 32 -14 44 -12
19 -13 27 -1 54 11 25 23 34 57 44 67 18 200 6 293 -26 96 -33 319 -138 329
-154 13 -20 124 -71 189 -85 34 -8 107 -27 162 -42 98 -27 99 -27 170 -11 38
9 106 24 150 32 44 9 107 29 139 45 32 17 66 30 75 30 50 0 286 103 399 174
48 29 121 71 162 91 41 21 88 47 103 59 126 95 137 117 137 264 0 120 -13 153
-65 166 -46 12 -136 -45 -236 -149 -77 -80 -210 -153 -374 -206 -33 -10 -87
-32 -120 -48 -126 -61 -231 -109 -268 -121 -67 -21 -190 11 -347 91 -41 21
-113 52 -160 69 -46 17 -107 43 -135 57 -48 24 -149 65 -207 83 -15 5 -45 17
-65 28 -61 33 -183 64 -338 86 -44 7 -182 47 -260 77 -90 33 -184 44 -263 30
-39 -7 -87 -21 -107 -31 -27 -14 -59 -19 -121 -19 -46 0 -94 -6 -107 -12 -12
-7 -49 -22 -82 -33 -78 -27 -123 -83 -123 -150 0 -25 -7 -58 -16 -73 -8 -15
-22 -49 -31 -74 -29 -81 -81 -137 -175 -187 -47 -25 -107 -61 -135 -81 -27
-20 -63 -43 -80 -51 -16 -8 -66 -50 -110 -92 -52 -49 -97 -82 -125 -93 -92
-34 -391 -128 -491 -155 -36 -10 -106 -38 -155 -63 l-89 -44 -285 3 c-301 3
-368 11 -555 61 -49 14 -116 31 -148 39 -68 16 -117 51 -149 103 -28 45 -35
51 -76 51 -18 0 -69 18 -114 41 -45 23 -116 52 -157 66 -42 13 -101 35 -131
47 -30 13 -82 33 -115 45 -33 12 -134 59 -224 104 -155 77 -171 88 -264 177
-90 86 -98 97 -93 124 11 52 20 56 125 56 63 0 117 6 156 18 51 16 60 22 63
44 2 18 -5 32 -24 47 -23 18 -40 21 -123 21 -67 0 -141 9 -245 30 -175 36
-196 33 -253 -36 -21 -24 -42 -44 -49 -44 -25 0 -112 45 -167 87 -61 47 -146
85 -213 96 -73 12 -148 54 -208 116 -53 56 -56 63 -56 109 0 27 6 54 13 60 6
6 43 22 81 36 81 31 168 31 190 1 7 -10 22 -16 36 -13 31 4 41 38 12 38 -11 0
-22 9 -25 20 -3 11 -16 25 -29 30 -12 6 -43 22 -68 35 -57 30 -97 31 -208 1
-77 -20 -93 -22 -124 -11 -41 14 -80 42 -110 80 -22 28 -145 124 -218 170 -25
16 -88 50 -141 76 -53 26 -100 53 -104 59 -10 16 -91 50 -120 50 -45 0 -121
44 -208 121 -48 43 -127 104 -175 135 -48 31 -98 65 -112 74 -40 27 -104 58
-177 86 -142 53 -187 64 -273 64 -47 0 -123 9 -170 20 -63 14 -123 20 -228 20
-88 0 -152 4 -165 11 -44 23 -82 62 -100 102 -49 110 -96 102 -158 -28 -67
-138 -127 -214 -339 -426 -106 -106 -205 -196 -250 -226 -73 -49 -163 -125
-238 -201 -21 -20 -57 -53 -81 -72 -114 -92 -288 -301 -387 -466 -57 -95 -122
-174 -197 -241 -40 -36 -84 -83 -99 -105 -15 -22 -52 -70 -82 -107 -30 -37
-70 -92 -88 -122 -48 -79 -90 -138 -388 -545 -47 -64 -92 -130 -101 -148 -62
-126 -118 -229 -150 -276 -39 -59 -111 -130 -132 -130 -6 0 -56 -27 -110 -59
-119 -72 -147 -77 -397 -63 -167 9 -181 12 -300 52 -69 23 -145 48 -170 55
-86 25 -135 47 -161 71 -14 13 -36 24 -50 24 -13 0 -37 9 -54 20 -16 11 -38
20 -49 20 -25 0 -83 64 -115 130 -150 300 -360 500 -619 589 -97 33 -139 36
-197 13 -90 -35 -119 -36 -206 -7 -44 15 -92 37 -107 49 -104 84 -268 159
-408 186 -53 10 -72 9 -157 -9 -131 -28 -337 -29 -458 -2 -125 29 -137 34
-217 89 -67 46 -78 50 -150 57 -125 11 -144 32 -146 170 -1 92 -2 93 -63 216
-35 68 -72 135 -83 149 -11 14 -39 72 -63 130 -29 71 -62 130 -101 180 -32 41
-83 109 -114 150 -68 91 -128 160 -158 180 -25 17 -47 45 -215 265 -67 88
-141 180 -165 205 -45 47 -64 90 -64 147 0 36 -14 72 -47 121 -12 18 -29 59
-38 90 -21 71 -39 106 -81 157 -41 51 -81 135 -94 200 -5 28 -17 86 -27 130
-14 64 -18 153 -23 436 l-5 357 -44 83 c-50 96 -81 142 -127 184 -17 17 -87
88 -154 158 -114 120 -126 137 -179 245 l-56 117 -1 155 c-1 129 2 162 17 195
63 141 64 366 2 410 -20 14 -21 13 -27 -38z m9335 -3508 c41 7 92 14 114 17
44 6 141 -18 245 -61 101 -42 287 -114 370 -142 97 -34 163 -59 225 -88 28
-12 79 -33 115 -46 118 -41 320 -156 383 -217 32 -32 63 -66 67 -77 80 -187
87 -210 78 -236 -5 -16 -16 -33 -23 -39 -8 -6 -71 -22 -142 -36 -70 -14 -171
-34 -223 -45 -122 -24 -252 -25 -361 0 -126 29 -146 37 -190 74 -44 38 -103
58 -136 46 -51 -19 -210 47 -298 123 -28 23 -78 61 -110 82 -33 22 -71 47 -85
57 -50 33 -130 69 -185 83 -81 22 -277 31 -364 17 -109 -17 -279 -60 -320 -80
-38 -19 -142 -52 -301 -95 -105 -29 -165 -64 -195 -116 -11 -19 -39 -52 -61
-74 -57 -56 -63 -72 -53 -131 12 -74 12 -72 -32 -120 -89 -97 -186 -134 -210
-81 -7 14 -8 37 -5 52 8 31 73 98 126 129 48 28 57 70 29 134 l-21 50 33 61
c24 45 66 93 160 182 124 118 190 165 381 274 125 71 150 83 273 129 204 77
249 93 290 103 22 6 69 20 105 32 160 52 193 58 221 42 21 -12 37 -12 100 -3z
m-275 -634 c78 -13 116 -30 194 -81 74 -49 290 -160 326 -168 43 -9 175 -64
194 -80 8 -7 58 -37 110 -65 52 -29 122 -69 155 -89 l60 -37 199 -3 c210 -4
240 0 348 44 73 31 135 31 196 1 26 -13 76 -32 112 -42 129 -35 266 -84 360
-127 30 -14 75 -34 100 -44 94 -40 121 -85 80 -137 -20 -25 -23 -25 -168 -29
l-147 -4 -78 -42 c-107 -58 -158 -56 -307 8 -36 16 -101 34 -145 40 -44 7
-120 25 -170 42 -64 21 -122 32 -200 38 -60 4 -141 16 -180 25 -51 12 -127 17
-280 20 -171 2 -225 6 -290 23 -210 53 -293 64 -460 60 -154 -3 -162 -4 -226
-34 -64 -31 -109 -44 -221 -65 -31 -5 -72 -20 -90 -33 -99 -67 -246 -133 -343
-154 -129 -29 -174 -41 -220 -60 -27 -12 -79 -32 -115 -45 -36 -14 -135 -58
-220 -98 -138 -65 -204 -100 -292 -160 -47 -32 -223 -119 -254 -125 -34 -7
-84 26 -84 55 0 21 44 84 92 132 68 68 194 206 241 265 48 58 85 83 239 164
32 17 82 39 110 51 29 11 78 38 108 59 30 22 100 61 155 88 64 31 121 68 158
101 54 51 57 55 57 101 0 27 5 52 10 55 6 3 10 14 10 23 0 40 50 74 260 178
118 59 235 112 260 119 40 11 144 29 225 39 17 1 35 4 40 4 6 1 47 -5 91 -13z
m7242 -400 c53 -25 53 -25 50 -67 -4 -58 -29 -70 -221 -109 -152 -30 -158 -31
-177 -14 -22 20 -25 46 -10 75 16 31 104 87 163 104 31 9 59 21 62 26 11 18
79 10 133 -15z m-123 -519 c56 -26 161 -130 169 -167 3 -13 7 -43 10 -67 2
-25 16 -60 33 -84 82 -117 99 -166 112 -314 11 -126 40 -197 132 -325 38 -53
78 -116 88 -140 34 -75 71 -219 71 -271 0 -44 -4 -54 -34 -84 -32 -32 -38 -34
-104 -34 -96 0 -161 23 -212 75 -39 40 -42 46 -49 120 -5 56 -12 81 -25 90
-23 18 -48 9 -67 -23 -8 -15 -41 -40 -75 -57 l-59 -30 -215 0 -215 0 -83 38
c-46 20 -118 64 -160 96 -43 32 -100 70 -129 84 -71 36 -106 83 -126 166 -23
94 -22 166 2 190 10 10 48 28 84 40 69 23 92 43 170 146 20 28 92 102 158 165
66 63 141 144 166 180 86 122 161 194 222 216 52 19 80 17 136 -10z m537 -17
c45 -30 58 -48 58 -79 0 -14 9 -42 20 -63 11 -20 20 -49 20 -65 0 -15 9 -46
20 -67 18 -36 20 -58 19 -225 -1 -198 5 -229 46 -256 22 -14 25 -24 25 -70 0
-29 5 -56 10 -59 6 -3 10 -17 10 -29 0 -13 9 -43 20 -67 22 -49 26 -109 9
-126 -14 -14 -56 0 -76 25 -29 38 -86 168 -129 299 -41 122 -47 152 -54 263
-4 69 -12 139 -18 156 -9 29 -57 121 -100 194 -12 20 -28 55 -36 79 -14 38
-14 46 -1 72 31 60 87 66 157 18z m-7468 -151 c39 -55 14 -78 -189 -187 -57
-31 -165 -29 -270 5 -85 27 -98 37 -89 69 8 28 33 45 65 45 14 0 60 12 100 26
141 49 203 63 286 63 74 1 83 -1 97 -21z m-14099 -8794 c48 -8 124 -45 146
-70 24 -28 198 -377 205 -411 3 -16 -4 -73 -15 -126 -12 -53 -21 -110 -21
-127 0 -17 -9 -39 -21 -51 -24 -24 -50 -23 -204 6 -118 22 -178 19 -254 -11
-84 -34 -143 -29 -245 20 -76 37 -136 98 -136 138 0 10 -16 35 -35 57 -26 29
-35 47 -35 75 0 31 9 45 63 100 43 42 71 81 86 118 25 62 39 72 126 89 72 13
88 27 125 100 36 71 100 114 155 104 11 -2 38 -7 60 -11z m2131 -1843 c49 -22
106 -77 134 -129 11 -20 34 -57 50 -82 74 -112 85 -146 84 -260 l-2 -105 -41
-36 c-26 -24 -60 -41 -91 -49 -32 -8 -65 -26 -94 -51 -24 -21 -53 -39 -63 -39
-30 0 -90 70 -112 130 -12 31 -34 76 -49 100 -53 84 -92 208 -99 313 -4 61 -2
71 21 102 38 49 111 106 149 115 51 12 69 11 113 -9z m383 -815 c19 -20 22
-32 17 -58 -4 -18 -11 -59 -16 -91 -15 -90 -41 -131 -95 -151 -44 -17 -49 -17
-112 0 -36 10 -100 38 -142 63 l-76 46 -14 63 c-18 76 -11 92 47 109 30 8 52
9 78 1 39 -10 45 -9 159 21 98 27 127 26 154 -3z m2511 -7414 c0 -4 20 -38 44
-75 41 -63 82 -143 235 -458 81 -167 83 -235 8 -215 -23 6 -95 96 -154 193
-43 72 -130 261 -150 328 -8 28 -26 82 -39 120 -28 83 -28 79 -8 99 16 16 64
22 64 8z m1228 -1254 c18 -11 39 -30 47 -42 23 -36 28 -99 11 -142 -40 -104
-70 -253 -91 -449 -22 -214 -50 -285 -113 -285 -35 0 -51 17 -89 95 -38 76
-51 130 -56 230 -4 54 -14 103 -32 150 -31 83 -29 128 11 207 28 54 38 71 117
180 66 92 115 106 195 56z"/>
<path d="M21508 33973 c-41 -46 -68 -90 -68 -112 0 -12 -6 -30 -12 -41 -10
-15 -10 -22 0 -32 9 -9 15 -9 24 3 7 8 34 31 59 52 41 32 47 42 53 88 5 38 4
54 -6 60 -19 13 -22 12 -50 -18z"/>
<path d="M21305 33653 c-22 -26 -44 -53 -49 -61 -24 -40 -35 -137 -36 -302 0
-147 4 -194 24 -290 41 -196 73 -297 107 -334 15 -17 22 -18 43 -8 47 21 45
38 -23 322 -61 251 -63 261 -59 385 3 85 10 133 23 165 20 51 31 148 18 160
-4 5 -26 -12 -48 -37z"/>
<path d="M24237 30552 c-33 -36 -21 -55 58 -97 64 -34 77 -38 85 -25 17 27 11
52 -23 85 -59 57 -93 68 -120 37z"/>
<path d="M26692 29947 c-59 -63 1 -400 81 -451 19 -13 41 -20 134 -43 32 -8
90 15 113 44 12 15 20 41 20 62 0 31 -9 44 -68 101 -49 47 -77 84 -100 134
-18 37 -32 73 -32 79 0 5 -16 30 -36 53 -41 51 -77 58 -112 21z"/>
<path d="M10679 22801 c-70 -22 -93 -64 -105 -196 -6 -69 -6 -71 20 -83 39
-17 77 -15 111 8 17 11 40 20 53 20 35 0 80 27 96 58 12 23 13 37 4 73 -13 52
-21 64 -72 101 -40 29 -61 32 -107 19z"/>
<path d="M11675 17332 c-7 -7 29 -72 39 -73 6 0 31 -1 56 -3 78 -5 143 -17
191 -36 25 -11 97 -29 160 -40 63 -12 128 -28 144 -35 17 -8 44 -17 60 -20 17
-4 50 -15 75 -25 97 -38 166 -44 337 -30 87 8 190 15 228 16 83 3 112 13 167
56 39 32 43 33 122 31 75 -1 89 -5 150 -38 46 -26 78 -52 99 -82 54 -76 120
-144 158 -163 20 -11 61 -41 90 -68 60 -54 111 -84 179 -102 24 -6 62 -27 83
-45 36 -31 68 -42 162 -57 12 -2 21 -12 23 -25 2 -11 19 -38 39 -58 33 -34 40
-37 76 -32 46 6 74 -5 136 -57 23 -20 61 -41 84 -47 23 -6 75 -22 115 -36 40
-13 80 -22 88 -19 39 15 -1 113 -58 142 -18 9 -45 26 -59 37 -22 16 -30 17
-48 7 -20 -10 -27 -7 -65 32 -23 24 -74 72 -114 108 -60 55 -72 71 -72 97 0
43 21 61 72 61 28 1 47 7 55 18 16 22 4 36 -46 53 -52 17 -83 13 -123 -14 -57
-39 -96 -35 -218 24 -63 30 -108 58 -128 78 -24 26 -80 43 -139 43 -60 0 -83
12 -154 77 -80 74 -123 100 -179 109 -25 4 -51 12 -59 18 -22 17 -129 38 -211
40 -41 2 -109 6 -150 10 -70 7 -78 5 -115 -18 -22 -14 -67 -39 -100 -56 -57
-29 -66 -30 -187 -30 -106 0 -142 4 -220 26 -51 14 -120 32 -153 39 -33 7 -73
20 -90 29 -16 9 -38 16 -47 16 -10 0 -41 10 -70 22 -46 19 -73 21 -216 22 -90
1 -165 -1 -167 -2z"/>
</g>
</svg>
