<?xml version="1.0" standalone="no"?>
<!DOCTYPE svg PUBLIC "-//W3C//DTD SVG 20010904//EN"
 "http://www.w3.org/TR/2001/REC-SVG-20010904/DTD/svg10.dtd">
<svg version="1.0" xmlns="http://www.w3.org/2000/svg"
 width="3286.000000pt" height="3682.000000pt" viewBox="0 0 3286.000000 3682.000000"
 preserveAspectRatio="xMidYMid meet">
<metadata>
Created by potrace 1.15, written by Peter Selinger 2001-2017
</metadata>
<g transform="translate(0.000000,3682.000000) scale(0.100000,-0.100000)"
fill="#000000" stroke="none">
<path d="M14424 30017 c-55 -57 -145 -97 -219 -97 -60 -1 -134 -30 -223 -88
-60 -40 -96 -56 -152 -68 -40 -8 -89 -22 -109 -31 -25 -12 -81 -18 -191 -23
-146 -7 -162 -10 -275 -47 -179 -61 -345 -111 -387 -118 -21 -3 -62 -19 -93
-35 -58 -31 -275 -90 -329 -90 -17 0 -63 -9 -101 -20 -38 -11 -85 -20 -102
-20 -18 0 -65 -8 -105 -19 -40 -10 -118 -28 -173 -41 -55 -12 -131 -33 -170
-45 -38 -13 -99 -26 -135 -29 -92 -8 -179 -29 -294 -70 -115 -42 -132 -51
-243 -133 -45 -34 -108 -74 -140 -89 -32 -15 -113 -66 -180 -112 -143 -97
-360 -211 -453 -236 -36 -9 -78 -22 -95 -27 -92 -32 -211 -69 -220 -69 -6 0
-46 -21 -90 -46 -44 -26 -93 -53 -109 -62 -16 -8 -65 -39 -108 -68 -49 -33
-111 -63 -164 -80 -68 -22 -88 -34 -99 -55 -11 -20 -43 -39 -130 -78 -64 -28
-147 -72 -183 -98 -37 -26 -103 -71 -147 -100 -44 -30 -111 -84 -150 -122 -38
-38 -97 -87 -130 -109 -103 -70 -161 -131 -180 -187 -20 -62 -29 -73 -85 -112
-71 -48 -438 -425 -482 -493 -21 -34 -66 -87 -100 -118 -34 -31 -80 -86 -103
-122 -39 -61 -47 -68 -111 -93 -91 -35 -196 -136 -243 -232 -18 -36 -50 -86
-72 -111 -21 -25 -39 -48 -40 -52 0 -4 -2 -30 -3 -57 -2 -28 -8 -59 -14 -70
-12 -22 -61 -168 -112 -335 -59 -193 -72 -230 -81 -235 -16 -10 -38 -106 -49
-210 -6 -59 -21 -134 -36 -176 -14 -41 -34 -114 -45 -162 -10 -49 -27 -103
-38 -121 -19 -32 -62 -164 -81 -249 -6 -26 -26 -82 -46 -123 -30 -61 -38 -91
-44 -167 -4 -51 -13 -113 -21 -139 -11 -42 -11 -56 5 -118 15 -58 16 -75 6
-99 -10 -25 -9 -36 10 -78 12 -27 24 -79 27 -118 3 -38 18 -106 33 -150 20
-55 30 -108 34 -170 3 -49 10 -106 16 -125 5 -19 13 -77 16 -130 3 -52 12
-120 20 -150 9 -34 18 -152 24 -315 6 -143 13 -285 16 -316 6 -55 5 -57 -28
-83 -53 -39 -122 -67 -154 -60 -18 3 -37 0 -48 -9 -16 -12 -17 -18 -8 -46 15
-43 88 -126 142 -161 25 -16 63 -50 84 -76 21 -25 54 -53 73 -60 45 -19 125
-78 140 -103 7 -11 23 -47 37 -80 13 -33 40 -84 59 -113 20 -29 41 -64 47 -78
7 -14 41 -49 77 -79 99 -83 120 -142 83 -230 -13 -28 -28 -55 -34 -59 -6 -4
-40 -40 -76 -81 -36 -41 -98 -100 -138 -130 -41 -31 -92 -71 -115 -88 -23 -18
-53 -33 -67 -33 -59 -1 -104 -35 -169 -126 -79 -110 -91 -138 -91 -212 0 -76
-25 -114 -101 -156 -80 -44 -90 -53 -138 -126 -24 -36 -76 -99 -116 -140 -68
-69 -168 -214 -209 -301 -10 -20 -33 -56 -53 -78 -29 -34 -34 -47 -28 -69 4
-15 10 -70 14 -122 8 -110 23 -148 87 -232 53 -70 65 -119 41 -164 -8 -16 -23
-50 -32 -76 -22 -62 -55 -88 -112 -88 -36 0 -50 -6 -74 -29 -26 -27 -29 -36
-29 -95 0 -121 -30 -152 -145 -149 -38 0 -90 8 -115 17 -104 36 -168 17 -264
-82 -36 -38 -65 -57 -112 -73 -45 -16 -78 -37 -120 -77 l-57 -54 -68 4 c-46 4
-86 14 -121 32 -109 54 -171 67 -351 72 -192 6 -192 6 -284 -88 -58 -59 -83
-109 -83 -166 0 -106 -63 -202 -124 -186 -39 9 -112 65 -144 109 -29 40 -35
54 -78 179 -16 45 -41 88 -72 125 -70 81 -147 191 -162 230 -20 50 -54 86
-121 126 -32 20 -59 40 -59 44 0 14 -106 69 -144 75 -66 9 -77 27 -150 234
-19 54 -31 70 -89 118 -67 57 -112 116 -142 189 -9 22 -41 63 -71 91 -30 28
-67 75 -82 105 -33 65 -108 121 -232 174 -76 31 -89 41 -119 86 -19 28 -45 58
-57 65 -36 24 -156 54 -216 54 -72 0 -98 10 -152 60 -25 23 -75 53 -117 70
-92 38 -172 116 -259 253 -85 132 -87 135 -142 169 -32 20 -62 50 -84 84 -26
41 -47 59 -87 78 -28 14 -74 43 -100 65 -34 29 -64 43 -105 52 -31 6 -90 20
-130 31 -41 11 -95 18 -124 16 -48 -3 -54 -6 -63 -31 -7 -23 -5 -35 9 -60 11
-18 27 -46 35 -62 9 -17 48 -78 86 -135 38 -58 89 -140 114 -182 25 -42 83
-134 127 -205 45 -70 88 -144 97 -163 8 -19 35 -63 61 -96 25 -34 53 -79 62
-100 14 -34 63 -110 182 -282 17 -26 32 -52 32 -59 0 -14 121 -203 158 -248
14 -16 36 -53 48 -82 13 -29 61 -108 108 -177 47 -69 92 -139 101 -156 25 -48
67 -61 161 -50 44 5 102 17 129 25 41 13 76 15 195 9 165 -7 188 -15 227 -77
33 -52 44 -61 118 -96 33 -16 76 -45 95 -66 19 -20 62 -55 95 -77 33 -23 96
-76 140 -118 60 -58 93 -81 135 -96 60 -21 130 -80 130 -110 0 -36 -27 -61
-73 -68 -24 -4 -71 -20 -103 -36 -51 -25 -70 -29 -144 -30 -55 0 -93 -5 -105
-14 -11 -7 -37 -16 -59 -20 -21 -4 -63 -18 -94 -32 -37 -16 -73 -24 -112 -24
-43 0 -65 -6 -91 -23 -50 -34 -44 -64 34 -188 36 -57 71 -120 79 -139 8 -19
32 -57 53 -85 42 -55 155 -235 155 -247 0 -4 42 -70 94 -146 51 -75 105 -162
120 -192 14 -30 55 -95 90 -145 36 -49 84 -126 107 -170 23 -44 67 -116 99
-160 72 -101 120 -178 120 -195 0 -7 23 -45 52 -84 28 -39 67 -100 85 -134 18
-35 68 -116 111 -180 43 -65 88 -137 101 -162 22 -42 57 -96 197 -305 34 -49
72 -112 86 -140 34 -68 111 -187 133 -205 15 -13 19 -12 36 9 17 21 19 42 19
206 0 129 4 196 14 229 10 32 17 127 22 281 6 212 5 237 -10 260 -35 53 -47
104 -35 150 9 35 7 55 -10 117 -12 41 -21 82 -21 91 0 16 41 85 72 122 10 11
28 35 40 54 15 23 48 47 98 73 41 21 80 45 86 52 13 19 107 56 139 56 14 0 35
13 52 31 77 86 105 109 131 109 15 0 50 9 78 20 29 10 80 26 115 34 127 30
340 106 385 137 66 45 120 106 137 153 8 23 38 115 67 206 28 91 65 200 81
242 23 63 29 93 29 160 0 114 19 152 77 156 37 3 44 -1 65 -28 54 -74 167
-110 343 -110 143 0 170 -7 267 -64 91 -55 144 -70 196 -56 21 5 65 14 98 19
32 5 91 21 129 36 67 26 75 27 205 21 74 -3 169 -2 210 3 142 19 245 37 265
49 11 6 71 27 133 46 l113 36 197 -6 c239 -6 295 -16 359 -60 68 -48 112 -66
142 -61 39 8 86 -26 133 -97 23 -33 54 -73 70 -88 32 -29 58 -85 58 -121 0
-28 35 -77 55 -77 7 0 27 -21 44 -47 17 -27 64 -91 105 -143 41 -52 97 -127
124 -165 61 -87 110 -224 116 -321 2 -38 16 -104 30 -148 16 -47 26 -101 26
-136 0 -31 7 -79 15 -106 22 -73 20 -163 -5 -189 -19 -21 -19 -23 -4 -71 9
-27 21 -54 26 -61 17 -21 48 -148 48 -195 0 -26 -5 -67 -12 -91 l-11 -43 45
-45 c28 -28 52 -65 63 -97 34 -94 64 -108 152 -71 48 19 82 4 110 -51 13 -25
26 -68 29 -95 6 -45 4 -53 -21 -78 -23 -22 -37 -27 -76 -27 -68 0 -94 -26 -84
-84 4 -22 10 -76 14 -118 l6 -77 57 -58 c31 -32 73 -85 94 -118 21 -33 54 -76
73 -95 20 -20 44 -48 54 -64 11 -17 44 -40 81 -56 60 -28 165 -118 202 -176 9
-13 20 -58 24 -99 6 -64 13 -83 49 -138 50 -77 51 -105 12 -190 -62 -133 -72
-225 -45 -416 6 -42 -2 -112 -27 -241 -21 -104 -21 -117 -4 -144 9 -14 32 -35
51 -47 19 -11 53 -49 76 -83 23 -33 66 -89 97 -122 31 -34 76 -85 101 -114 61
-70 109 -90 240 -98 211 -14 325 0 352 42 13 20 9 63 -12 107 -11 24 -20 54
-20 66 0 31 63 79 122 94 47 11 51 10 76 -13 25 -23 137 -78 159 -78 4 0 16
-9 26 -20 23 -27 49 -25 76 4 30 32 75 50 95 39 8 -4 30 -29 48 -54 72 -102
182 -212 233 -234 73 -32 104 -38 137 -24 37 15 43 44 29 138 -36 238 -42 269
-67 316 -24 46 -34 85 -79 290 -15 65 -22 84 -69 172 -9 18 -20 63 -25 100 -5
53 -15 80 -42 123 -20 30 -39 74 -42 96 -11 69 -55 185 -85 228 -16 23 -38 66
-50 97 -11 31 -34 85 -51 121 -17 36 -31 81 -31 100 0 44 -23 109 -52 151 -60
83 -115 198 -121 252 -4 28 -9 61 -13 75 -3 14 -9 57 -13 95 -5 56 -14 82 -43
130 -20 33 -49 87 -64 120 -15 33 -40 75 -56 93 -47 55 -50 112 -5 112 13 0
32 6 42 14 18 13 19 18 7 60 -6 26 -12 72 -12 104 0 63 -24 127 -61 161 -19
18 -24 34 -29 113 -5 66 -13 105 -28 135 -26 50 -28 80 -6 111 15 22 19 22
243 22 179 0 239 3 281 16 30 9 69 14 88 10 40 -6 243 -135 288 -182 41 -44
82 -45 165 -3 41 21 84 34 127 39 55 5 69 11 89 35 20 23 24 35 19 64 -3 20
-6 49 -6 64 0 19 -10 39 -31 58 l-31 29 -225 0 c-198 0 -235 3 -302 21 l-77
21 -75 -21 c-59 -16 -103 -21 -200 -21 -109 0 -133 4 -194 27 -46 17 -93 26
-136 27 -74 2 -95 13 -116 64 -7 17 -29 57 -48 87 -20 30 -39 65 -44 77 -16
41 -139 237 -175 280 -20 23 -48 67 -63 98 -14 30 -63 109 -108 175 -106 156
-151 253 -139 297 l10 33 128 3 c91 2 144 -2 180 -12 28 -8 83 -22 122 -30 39
-8 96 -28 126 -45 54 -31 81 -37 112 -25 27 10 18 33 -24 59 -22 14 -40 31
-40 39 0 19 -58 96 -73 96 -7 0 -29 11 -50 25 -30 21 -37 32 -37 58 0 48 20
78 80 120 30 21 83 64 118 95 81 73 110 84 176 65 42 -11 72 -11 171 -2 161
16 177 27 246 157 25 47 58 88 144 180 59 63 87 85 118 94 60 17 69 25 54 51
-18 32 -27 37 -75 37 -85 0 -148 -46 -225 -165 -75 -117 -153 -177 -261 -200
-37 -7 -94 -23 -129 -34 -34 -11 -88 -28 -119 -36 -31 -9 -83 -32 -115 -52
-98 -60 -200 -111 -242 -123 -51 -13 -98 4 -130 49 -23 32 -62 142 -85 242 -9
36 -29 77 -60 118 -25 35 -46 71 -46 81 0 9 -11 38 -24 63 -45 83 -48 113 -25
197 29 102 23 185 -20 272 -17 36 -31 76 -31 90 0 30 -28 58 -59 58 -25 0
-109 -54 -118 -75 -9 -26 -98 -75 -135 -75 -41 0 -68 25 -96 91 -24 56 -61 82
-132 90 -30 3 -83 12 -117 19 -57 13 -64 12 -83 -5 -11 -10 -20 -24 -20 -31 0
-23 31 -44 65 -44 56 0 155 -52 221 -116 34 -32 76 -68 95 -79 47 -28 69 -76
69 -151 0 -33 7 -83 15 -110 9 -27 20 -82 24 -122 6 -47 20 -96 39 -135 51
-106 64 -152 61 -220 -5 -87 17 -112 59 -67 31 33 75 41 110 20 17 -11 35 -27
41 -38 5 -10 28 -40 50 -67 32 -38 42 -61 51 -114 25 -139 9 -154 -176 -159
l-121 -4 -58 37 c-35 23 -82 42 -122 51 -35 7 -79 22 -97 34 -19 11 -39 20
-45 20 -31 0 -121 52 -165 96 -64 64 -72 77 -90 156 -25 107 -60 198 -135 351
-39 78 -71 152 -71 165 0 47 -29 91 -93 141 -35 28 -83 76 -106 106 -23 30
-67 73 -99 96 -31 23 -67 52 -80 65 -12 13 -47 40 -78 59 -60 39 -77 67 -109
187 -28 105 -11 257 66 583 35 146 35 137 -5 199 l-36 56 0 164 c0 118 -4 176
-15 212 -9 27 -20 85 -25 128 -13 108 -44 168 -131 252 -86 84 -126 143 -168
254 -50 129 -55 136 -181 265 -113 116 -214 248 -237 310 -7 17 -24 71 -39
120 -14 50 -35 104 -45 121 -11 18 -28 72 -38 121 -11 48 -32 122 -47 163 -23
64 -28 98 -34 230 -5 85 -13 175 -20 200 -6 25 -13 76 -15 115 -6 113 46 205
117 205 21 0 46 -16 96 -62 37 -34 75 -69 84 -78 9 -8 36 -26 59 -40 24 -14
111 -93 193 -175 168 -167 196 -184 268 -162 41 13 49 39 13 45 -29 6 -109 68
-200 156 -44 43 -106 98 -138 124 -32 26 -59 56 -62 67 -15 72 -15 116 1 161
34 99 20 137 -91 264 -31 36 -75 91 -97 123 -22 33 -61 73 -86 90 -72 49 -155
137 -182 192 -13 28 -43 79 -66 115 -22 36 -62 108 -87 160 -43 88 -47 104
-58 215 -12 125 -18 145 -79 235 -20 30 -51 85 -68 122 -39 81 -36 106 19 160
21 20 42 54 48 75 17 61 13 170 -10 252 -17 62 -20 94 -17 185 4 96 10 127 45
231 22 66 50 151 62 190 13 38 38 91 57 116 19 26 44 69 55 96 12 26 50 90 86
140 35 51 86 126 112 165 26 40 55 79 64 86 9 8 36 46 61 87 26 40 53 75 61
79 18 7 75 94 75 115 0 9 18 39 39 66 21 28 55 80 74 116 54 99 222 354 266
402 21 23 54 67 72 97 19 30 84 106 146 168 62 63 113 118 113 122 0 5 45 39
101 76 56 37 116 82 134 101 23 24 41 33 65 33 26 0 43 10 80 48 26 26 52 58
59 70 6 12 30 31 51 42 22 11 40 24 40 29 0 4 13 22 29 39 17 18 33 47 36 69
19 111 52 154 177 237 32 21 79 60 105 87 26 28 68 62 93 76 25 14 74 47 110
73 36 25 93 59 127 73 34 15 101 52 149 82 48 30 92 55 98 55 6 0 43 23 81 51
39 28 117 74 175 101 99 47 217 125 285 189 17 15 75 51 130 80 55 29 120 63
145 76 27 14 76 27 120 32 69 9 234 49 405 100 38 12 87 21 107 21 21 0 67 11
104 25 56 21 84 25 174 25 121 0 117 2 159 -83 l26 -52 144 4 c102 2 164 9
210 22 36 11 82 19 101 19 19 0 67 9 105 20 49 14 100 20 172 20 120 0 178 18
288 88 l69 45 138 -5 c149 -6 160 -3 215 49 67 63 88 68 313 71 139 3 218 0
245 -8 59 -18 227 -21 299 -5 33 7 81 24 106 36 68 35 178 38 250 8 47 -20 79
-24 220 -29 174 -6 234 -18 470 -91 71 -22 114 -29 175 -29 50 0 106 -7 150
-20 38 -11 86 -20 105 -20 45 0 138 -28 265 -78 100 -40 100 -41 233 -173 145
-147 141 -140 305 -496 5 -12 32 -45 59 -74 27 -29 61 -72 75 -96 23 -40 193
-193 215 -193 5 0 42 -22 81 -49 131 -90 263 -115 562 -105 138 5 175 10 270
36 61 17 117 37 126 45 9 8 52 29 95 47 44 18 132 68 196 110 64 42 121 76
125 76 13 0 115 71 144 100 24 23 79 55 149 84 14 6 70 56 126 112 82 82 110
104 151 118 28 9 77 35 108 57 31 23 82 50 113 60 83 29 159 67 230 116 43 31
78 47 115 53 96 15 231 65 295 109 101 68 74 112 -44 73 -75 -26 -161 -33
-247 -22 -62 7 -71 6 -120 -19 -93 -49 -221 -132 -247 -160 -44 -48 -95 -81
-161 -102 -35 -11 -95 -39 -134 -62 -38 -23 -81 -47 -95 -53 -14 -6 -52 -32
-83 -58 -59 -48 -86 -56 -107 -31 -23 28 1 67 110 178 79 80 113 124 126 157
9 25 27 64 40 87 47 82 -2 106 -91 44 -32 -23 -64 -41 -71 -41 -8 0 -44 -26
-81 -58 -45 -38 -92 -68 -138 -86 -84 -33 -125 -64 -228 -173 -63 -65 -89 -85
-129 -99 -28 -9 -67 -31 -87 -49 -20 -18 -56 -43 -81 -56 -25 -12 -59 -33 -76
-46 -16 -12 -60 -34 -97 -47 -66 -26 -243 -107 -371 -171 -65 -34 -73 -35
-177 -35 -171 0 -204 22 -220 151 -10 84 -41 156 -93 219 -20 25 -73 97 -117
160 -44 63 -90 127 -103 142 -12 14 -47 68 -77 119 -66 114 -178 235 -274 297
-38 25 -87 58 -107 74 -35 27 -176 79 -255 94 -17 3 -56 -1 -86 -10 -30 -9
-67 -16 -81 -16 -46 0 -170 47 -245 93 -40 25 -86 49 -102 52 -16 4 -31 11
-34 16 -4 5 -13 9 -21 9 -8 0 -45 15 -82 33 -65 31 -71 32 -217 35 -129 3
-161 0 -237 -19 l-87 -22 -75 21 c-41 12 -101 22 -133 22 -32 0 -90 9 -128 20
-49 14 -100 20 -171 20 -163 0 -284 50 -284 116 0 30 -20 74 -34 73 -6 0 -34
-24 -62 -52z m-6710 -6407 c20 -22 36 -47 36 -56 0 -9 8 -28 18 -42 10 -15 31
-67 46 -117 16 -49 43 -135 61 -190 47 -145 56 -192 65 -328 5 -67 16 -144 24
-171 10 -31 16 -86 16 -149 0 -71 6 -122 20 -174 29 -102 27 -217 -4 -229 -20
-8 -158 25 -191 46 -31 19 -49 58 -70 154 -3 17 -33 55 -74 95 -91 88 -128
165 -144 296 -8 73 -8 104 1 127 10 27 8 40 -13 93 l-25 61 21 61 20 61 -25
50 c-14 28 -30 53 -36 57 -18 11 -12 92 8 112 10 10 26 30 35 46 10 15 26 27
36 27 10 0 41 -25 70 -56 51 -56 52 -57 72 -38 15 14 19 27 16 49 -9 54 -44
137 -71 167 -32 37 -33 62 -3 76 38 18 53 13 91 -28z m122 -2785 c19 -8 47
-24 61 -35 14 -11 33 -20 41 -20 25 0 101 -69 108 -98 4 -15 10 -31 14 -37 4
-5 17 -43 30 -83 13 -43 42 -101 70 -140 66 -95 71 -124 68 -352 l-3 -195 -27
-13 c-23 -11 -36 -11 -80 2 -29 8 -93 24 -143 36 -49 12 -116 28 -147 36 -66
16 -100 18 -114 5 -18 -16 -102 -33 -133 -26 -29 6 -118 -13 -166 -35 -34 -16
-125 -50 -134 -50 -5 0 -20 12 -35 26 -32 33 -34 78 -5 154 14 37 18 65 14 89
-8 43 -42 111 -55 111 -17 0 -32 52 -25 87 4 23 16 38 43 54 62 37 92 71 123
139 17 36 36 76 44 90 16 30 77 67 125 76 56 10 97 41 132 100 49 82 119 110
194 79z m232 -2092 c53 -31 66 -53 50 -87 -14 -31 -22 -32 -135 -5 -123 28
-142 58 -73 108 37 26 44 28 78 19 20 -6 56 -21 80 -35z"/>
<path d="M28825 29976 c-44 -12 -117 -37 -162 -54 -96 -37 -111 -39 -160 -12
-50 26 -60 20 -193 -128 -30 -34 -89 -85 -130 -114 -41 -28 -76 -55 -78 -60
-2 -4 -20 -17 -40 -30 -20 -12 -70 -46 -110 -75 -41 -29 -95 -59 -120 -67 -93
-27 -125 -47 -204 -126 -56 -56 -92 -83 -117 -89 -20 -5 -67 -17 -106 -27 -43
-11 -96 -34 -138 -61 l-67 -43 -263 0 c-286 0 -410 10 -502 41 -33 12 -100 30
-150 41 -49 11 -126 28 -170 38 -111 25 -206 65 -302 126 -86 55 -181 100
-273 130 -30 9 -89 36 -130 59 -120 67 -167 78 -290 71 -89 -6 -116 -4 -175
14 -38 11 -86 20 -105 20 -20 0 -69 9 -109 21 -84 23 -119 22 -135 -4 -9 -15
-6 -21 14 -37 14 -11 43 -25 65 -31 22 -6 51 -19 66 -29 14 -11 54 -30 90 -44
35 -13 96 -40 134 -60 39 -20 76 -36 84 -36 8 0 50 -17 95 -39 44 -21 119 -54
166 -72 47 -18 96 -41 109 -51 12 -9 38 -20 57 -24 19 -3 37 -10 40 -15 3 -5
12 -9 21 -9 8 0 28 -9 43 -20 97 -69 401 -194 525 -215 22 -4 71 -16 110 -26
38 -11 92 -19 120 -19 28 0 83 -9 123 -20 39 -11 97 -20 128 -20 35 0 83 -10
128 -26 68 -24 83 -25 223 -22 l149 3 55 37 c36 25 78 42 124 53 39 8 108 24
155 34 128 30 170 28 244 -14 85 -48 100 -47 92 5 -11 71 9 99 108 149 105 54
151 101 160 166 3 25 12 58 20 74 20 38 153 166 218 209 29 19 67 47 83 63 29
27 114 69 139 69 7 0 42 16 78 35 101 53 206 85 282 85 82 0 111 11 164 63 60
59 54 91 -22 104 -20 3 -41 12 -47 19 -14 17 -16 17 -114 -10z"/>
<path d="M22123 29909 c-33 -34 -7 -51 137 -88 47 -12 92 -24 100 -27 8 -3 23
1 33 8 16 12 17 16 3 43 -25 50 -69 69 -171 73 -65 3 -94 0 -102 -9z"/>
<path d="M30985 29889 c-108 -23 -142 -33 -168 -52 -22 -15 -55 -22 -135 -28
-59 -5 -123 -12 -144 -15 -28 -5 -43 -1 -66 16 -33 25 -65 23 -70 -3 -6 -31
18 -49 56 -42 27 5 42 1 75 -22 35 -24 51 -28 127 -31 76 -3 95 0 165 26 44
17 97 35 117 42 20 6 42 17 48 25 6 8 27 19 46 25 40 14 64 48 43 61 -17 10
-40 10 -94 -2z"/>
<path d="M21070 29763 c-58 -30 -122 -64 -142 -74 -62 -32 -100 -73 -101 -110
-3 -51 26 -49 115 10 42 27 109 64 149 82 122 53 194 117 158 140 -29 18 -78
5 -179 -48z"/>
<path d="M22530 29780 c-11 -11 -20 -24 -20 -29 0 -5 -9 -11 -20 -14 -24 -6
-27 -35 -5 -43 14 -6 13 -8 -2 -20 -10 -7 -31 -14 -46 -14 -16 0 -26 -4 -22
-10 3 -5 26 -10 49 -10 30 0 52 -7 72 -22 25 -20 38 -23 99 -20 290 13 535
-11 710 -70 33 -11 96 -24 140 -29 44 -4 113 -13 152 -19 40 -6 98 -10 130 -8
l57 3 40 60 c37 54 47 62 96 77 30 9 66 19 80 22 14 3 34 12 45 20 16 12 18
18 9 33 -10 17 -33 18 -315 19 l-304 0 -77 28 c-68 25 -85 28 -145 21 -136
-14 -557 5 -627 29 -63 21 -72 20 -96 -4z"/>
<path d="M27824 28775 c-17 -67 184 -252 292 -270 88 -14 57 45 -59 113 -45
26 -90 61 -105 81 -72 99 -116 125 -128 76z"/>
<path d="M29677 28326 c-45 -16 -107 -62 -107 -80 0 -27 25 -36 102 -36 121 0
196 -37 315 -155 82 -82 212 -191 268 -225 22 -14 64 -28 95 -32 153 -22 149
-22 198 3 45 23 56 24 237 24 160 0 197 -3 237 -18 53 -21 68 -17 68 17 0 39
-104 76 -230 83 -104 5 -118 9 -135 43 -9 17 -22 30 -30 30 -8 0 -14 3 -14 8
4 21 -3 23 -21 7 -16 -14 -24 -15 -51 -6 -46 16 -169 14 -219 -4 -23 -8 -57
-15 -74 -15 -44 0 -181 86 -235 147 -96 108 -117 129 -161 157 -51 32 -142 66
-180 65 -14 0 -42 -6 -63 -13z"/>
<path d="M29056 28307 c-17 -13 -15 -16 26 -50 24 -20 55 -41 68 -47 14 -6 41
-20 60 -30 70 -38 230 -18 230 29 0 32 -26 39 -158 43 -92 4 -125 8 -135 20
-11 13 -61 48 -70 48 -2 0 -11 -6 -21 -13z"/>
<path d="M31670 28213 c-90 -15 -180 -65 -180 -100 0 -7 11 -18 25 -25 19 -9
41 -7 107 11 46 12 101 27 123 33 49 12 65 25 65 49 0 34 -55 46 -140 32z"/>
<path d="M12041 17242 c-17 -33 25 -57 85 -48 39 5 48 3 63 -16 14 -17 32 -22
82 -26 48 -4 71 -10 92 -28 21 -17 41 -24 73 -24 24 0 78 -9 120 -21 72 -20
85 -20 208 -9 72 6 140 17 151 24 11 6 52 18 90 25 39 8 92 25 120 39 27 14
72 28 100 31 45 5 50 8 50 31 0 23 -3 25 -40 22 -85 -5 -162 -4 -207 3 -35 6
-54 3 -80 -10 -95 -49 -124 -53 -385 -56 -248 -3 -250 -3 -279 20 -22 18 -37
22 -66 18 -28 -4 -44 0 -63 15 -14 11 -43 22 -64 25 -32 4 -41 2 -50 -15z"/>
<path d="M13430 17152 c0 -19 29 -46 61 -56 19 -6 42 -24 54 -43 11 -17 43
-44 70 -59 28 -15 71 -48 96 -73 26 -25 69 -57 95 -70 133 -65 171 -87 214
-121 22 -18 83 -47 137 -65 124 -43 136 -37 93 49 -17 32 -30 69 -30 82 0 43
-86 78 -228 93 -66 8 -81 14 -147 60 -40 28 -80 51 -88 51 -7 0 -38 17 -68 39
-66 47 -112 71 -136 71 -10 0 -29 12 -42 25 -22 24 -81 36 -81 17z"/>
<path d="M13615 14826 c-22 -7 -57 -23 -78 -36 -35 -20 -51 -23 -150 -23 -62
1 -134 3 -161 4 -44 4 -51 1 -70 -24 -18 -24 -21 -45 -25 -146 -3 -112 -2
-119 20 -145 35 -40 126 -68 239 -73 l95 -4 50 35 c28 19 67 47 88 61 20 14
37 31 37 39 0 7 12 30 26 52 27 40 94 196 94 220 0 8 -9 23 -20 34 -23 23 -83
26 -145 6z"/>
<path d="M12114 10094 c-9 -20 -24 -49 -35 -63 -16 -22 -18 -32 -9 -57 6 -17
24 -41 40 -53 36 -26 39 -58 8 -91 -19 -20 -23 -37 -24 -90 -1 -36 -7 -83 -14
-106 -11 -37 -10 -45 15 -95 33 -64 95 -159 142 -214 18 -21 45 -63 58 -91 14
-29 38 -65 55 -80 17 -16 45 -54 62 -84 20 -33 96 -119 195 -219 90 -90 171
-176 180 -192 10 -16 21 -29 25 -29 4 0 14 -12 22 -27 25 -49 249 -270 311
-309 33 -20 82 -59 109 -85 27 -27 74 -65 105 -86 31 -20 148 -129 261 -243
135 -136 228 -221 271 -248 36 -23 84 -63 105 -88 21 -25 66 -62 99 -81 33
-20 83 -57 110 -83 76 -72 196 -149 272 -175 88 -30 161 -68 252 -133 41 -29
79 -52 84 -52 5 0 53 -26 106 -58 143 -86 150 -90 231 -129 41 -20 100 -53
130 -74 31 -20 78 -48 105 -61 28 -14 73 -39 102 -56 28 -17 82 -44 120 -61
128 -56 226 -111 312 -175 47 -35 127 -83 176 -106 50 -24 124 -66 165 -95 41
-28 95 -62 120 -74 25 -12 52 -27 60 -34 35 -27 69 -86 90 -156 21 -68 25 -74
64 -92 22 -10 51 -19 63 -19 15 0 92 -70 250 -228 125 -126 250 -244 276 -262
27 -18 70 -51 97 -75 26 -23 72 -56 101 -73 30 -17 65 -42 77 -57 12 -14 53
-45 90 -69 37 -24 81 -59 97 -76 17 -18 57 -50 90 -73 33 -22 82 -60 108 -83
27 -24 76 -56 110 -73 35 -16 92 -49 128 -74 36 -24 114 -68 174 -97 61 -30
146 -76 190 -104 68 -44 91 -53 158 -62 94 -14 114 -30 192 -149 56 -86 104
-133 199 -198 77 -52 131 -106 183 -182 57 -84 461 -483 552 -546 157 -107
180 -110 251 -40 39 39 58 50 86 53 52 4 68 32 34 58 -32 25 -118 50 -202 60
-38 4 -80 16 -95 25 -50 32 -243 228 -285 290 -23 33 -65 85 -93 115 -28 30
-70 84 -94 120 -31 48 -60 77 -104 105 -34 22 -84 62 -112 89 -27 27 -77 67
-110 89 -33 22 -94 72 -135 112 -75 72 -429 319 -527 366 -48 23 -304 190
-432 281 -41 29 -100 69 -131 88 -70 43 -353 325 -403 401 -20 31 -99 119
-175 195 -75 77 -145 152 -155 167 -41 63 -111 133 -174 174 -15 10 -87 77
-159 148 -114 113 -190 183 -256 240 -10 8 -35 25 -56 38 -21 14 -53 41 -71
62 -18 21 -65 61 -106 89 -40 28 -90 64 -111 79 -157 114 -277 193 -324 215
-30 13 -77 41 -105 62 -47 34 -275 182 -458 297 -46 29 -100 60 -122 68 -69
29 -218 136 -305 219 -52 49 -114 97 -158 120 -40 22 -90 54 -110 71 -20 17
-68 52 -107 77 -38 26 -75 55 -82 66 -6 11 -40 37 -75 58 -38 23 -122 95 -213
185 -82 82 -169 162 -192 179 -24 16 -57 49 -73 73 -17 23 -155 168 -308 322
-152 154 -298 309 -323 345 -29 41 -67 80 -105 105 -59 41 -72 63 -89 146 -2
14 -16 38 -30 53 -21 23 -30 26 -59 21 -25 -5 -47 0 -87 19 -30 15 -61 32 -70
39 -22 16 -126 176 -145 223 -25 60 -73 116 -141 164 -34 25 -63 48 -63 52 0
11 -73 83 -105 103 -16 11 -51 36 -76 57 -25 21 -49 38 -53 38 -4 0 -14 -16
-22 -36z"/>
</g>
</svg>
