<?xml version="1.0" standalone="no"?>
<!DOCTYPE svg PUBLIC "-//W3C//DTD SVG 20010904//EN"
 "http://www.w3.org/TR/2001/REC-SVG-20010904/DTD/svg10.dtd">
<svg version="1.0" xmlns="http://www.w3.org/2000/svg"
 width="789.000000pt" height="882.000000pt" viewBox="0 0 789.000000 882.000000"
 preserveAspectRatio="xMidYMid meet">
<metadata>
Created by potrace 1.16, written by Peter Selinger 2001-2019
</metadata>
<g transform="translate(0.000000,882.000000) scale(0.100000,-0.100000)"
fill="#000000" stroke="none">
<path d="M3147 7980 c3 -11 9 -22 13 -25 5 -3 6 4 3 15 -3 11 -9 22 -13 25 -5
3 -6 -4 -3 -15z"/>
<path d="M3160 7738 c1 -25 51 -121 63 -119 13 2 12 5 -17 74 -30 68 -46 85
-46 45z"/>
<path d="M5320 7533 c0 -10 97 -68 208 -124 42 -21 88 -48 102 -59 26 -21 26
-21 69 -2 45 21 42 39 -4 22 -35 -13 -30 -15 -74 25 -21 19 -65 47 -97 62 -33
14 -73 37 -91 51 -33 24 -113 42 -113 25z"/>
<path d="M5033 7501 c-105 -58 -233 -170 -233 -203 0 -13 -96 -143 -140 -190
-66 -69 -104 -113 -136 -158 -72 -101 -171 -125 -298 -74 -58 23 -69 32 -106
89 -55 84 -102 116 -178 121 -40 3 -75 13 -108 31 -42 24 -60 27 -144 28 -105
2 -178 16 -191 36 -5 8 -9 27 -9 43 0 54 -106 216 -142 216 -16 0 -7 -17 28
-51 43 -41 84 -118 84 -158 0 -39 -20 -58 -72 -66 -64 -9 -135 -25 -213 -46
-38 -10 -89 -19 -112 -19 -40 0 -142 -27 -208 -55 -16 -7 -50 -18 -75 -25 -25
-6 -65 -17 -90 -25 -25 -7 -63 -16 -85 -20 -99 -17 -341 -152 -511 -287 -167
-132 -187 -147 -215 -147 -30 -1 -32 -6 -74 -136 -15 -44 -35 -92 -46 -107
-10 -15 -19 -40 -19 -55 0 -34 -16 -97 -36 -140 -8 -17 -14 -38 -14 -46 0 -22
-38 -137 -60 -182 -48 -99 -61 -152 -61 -252 0 -54 3 -112 7 -130 5 -24 1 -39
-15 -59 l-20 -26 20 -40 c24 -48 106 -138 125 -138 7 0 33 -30 59 -66 33 -48
45 -73 41 -89 -6 -22 -85 -95 -103 -95 -16 0 -53 -46 -53 -65 0 -24 -85 -105
-110 -105 -11 0 -28 -17 -43 -43 -29 -49 -27 -81 10 -139 12 -21 23 -44 23
-51 0 -7 -18 -32 -39 -55 -33 -36 -45 -42 -79 -42 -28 0 -49 -8 -77 -30 -51
-40 -71 -45 -103 -24 -20 13 -42 17 -82 15 -45 -2 -60 -7 -86 -32 -35 -34 -52
-31 -77 11 -10 16 -34 47 -55 68 -106 113 -198 225 -207 251 -3 10 -19 24 -36
31 -16 7 -46 26 -66 42 -20 16 -43 26 -51 23 -22 -8 -45 10 -110 88 -59 71
-63 75 -113 81 -29 4 -60 11 -69 16 -22 12 -45 -4 -36 -25 5 -14 289 -472 826
-1334 25 -40 50 -72 54 -70 12 5 15 287 5 317 -15 41 3 63 110 134 14 10 43
18 64 18 63 0 103 23 117 67 7 21 21 54 31 73 11 19 19 47 19 63 0 46 18 46
162 1 41 -13 52 -13 82 0 23 10 55 13 97 9 44 -3 75 0 107 12 88 34 218 2 257
-64 11 -18 36 -52 56 -75 52 -59 66 -104 51 -161 -10 -39 -10 -51 3 -76 9 -17
19 -52 22 -79 3 -28 12 -55 19 -61 8 -6 14 -19 14 -28 1 -40 38 -130 71 -171
20 -25 44 -66 54 -91 10 -29 26 -51 41 -58 27 -12 32 -42 9 -61 -8 -7 -15 -26
-15 -42 0 -16 -5 -38 -11 -50 -8 -14 -8 -27 1 -47 9 -22 7 -42 -10 -102 -30
-104 -38 -262 -17 -324 9 -26 14 -58 11 -70 -4 -18 0 -26 23 -37 17 -8 47 -44
78 -95 54 -88 66 -99 95 -83 26 14 46 3 72 -38 75 -121 261 -323 519 -562 83
-77 193 -170 201 -170 4 0 38 -19 75 -43 37 -24 104 -61 148 -81 168 -79 190
-93 247 -146 41 -40 58 -63 58 -81 0 -32 9 -42 26 -28 10 8 24 2 57 -27 24
-22 56 -54 71 -71 15 -18 47 -42 72 -52 24 -11 59 -31 77 -45 19 -14 37 -26
41 -26 4 0 51 -29 104 -64 93 -61 129 -92 234 -203 53 -56 135 -103 179 -103
26 0 29 4 29 30 0 24 -5 31 -27 36 -74 16 -95 28 -136 77 -91 111 -183 191
-303 262 -131 77 -181 122 -299 270 -106 132 -125 148 -264 230 -256 151 -314
188 -399 259 -95 79 -222 211 -222 231 0 7 10 19 22 27 l23 15 -48 56 c-52 60
-57 77 -27 77 11 0 20 -5 20 -10 0 -6 15 -17 33 -25 43 -18 59 -3 29 28 -18
17 -37 23 -95 27 l-72 5 -37 75 c-20 41 -37 81 -37 88 -1 7 -16 46 -35 85 -18
40 -39 106 -46 147 -7 41 -15 88 -18 104 -13 78 70 -34 165 -221 32 -62 64
-115 71 -118 41 -16 84 68 61 119 -9 20 -9 29 1 41 7 8 14 37 16 63 3 43 0 55
-29 92 -17 24 -38 51 -46 62 -23 31 -3 34 29 3 43 -42 61 -29 59 42 -1 32 1
67 5 78 5 15 -3 33 -30 69 -20 27 -48 69 -61 93 -12 24 -48 75 -78 112 -30 38
-55 72 -55 76 0 4 -34 59 -76 121 -73 108 -75 114 -69 156 6 38 3 49 -18 74
-13 16 -28 44 -31 61 -4 18 -12 35 -17 38 -18 12 -9 46 16 57 21 9 31 7 66
-16 36 -24 44 -26 70 -16 42 18 56 38 38 56 -11 10 -44 15 -117 18 l-103 3
-29 34 c-16 19 -29 43 -30 54 0 11 -8 42 -17 68 -17 47 -17 49 0 62 15 10 28
11 70 1 61 -14 52 -12 102 -21 22 -4 59 -14 83 -22 46 -17 145 -13 183 8 30
16 59 5 109 -41 25 -22 50 -40 56 -40 6 0 23 -9 37 -20 14 -11 30 -20 36 -20
6 0 28 -11 49 -24 20 -12 48 -26 62 -31 19 -5 15 0 -16 24 -23 17 -49 42 -58
56 -9 14 -22 25 -29 25 -6 0 -39 14 -72 31 -33 17 -77 40 -99 51 -30 15 -50
18 -87 14 -27 -3 -72 -9 -100 -12 -50 -6 -232 28 -253 47 -6 5 -2 16 8 28 30
33 11 44 -60 36 -75 -8 -84 6 -34 48 24 21 37 24 69 20 30 -4 42 -1 55 13 59
68 86 102 86 108 0 18 -32 2 -57 -30 -22 -28 -39 -38 -75 -45 -26 -4 -65 -20
-86 -34 -22 -14 -46 -23 -55 -19 -18 7 -37 55 -37 95 0 15 -5 31 -11 34 -6 4
-9 21 -8 39 4 59 -1 75 -38 120 -21 25 -48 59 -61 75 -12 17 -51 47 -85 67
-81 49 -107 73 -107 100 0 12 -15 41 -34 63 -26 31 -39 60 -50 114 -22 101
-40 233 -41 292 0 48 1 50 29 53 17 2 81 -4 144 -13 88 -13 117 -14 128 -4 26
22 13 159 -16 159 -7 0 -8 -22 -4 -64 6 -60 5 -64 -16 -71 -31 -10 -144 4
-167 20 -12 9 -34 12 -66 8 -46 -6 -50 -4 -88 33 -29 28 -39 46 -39 69 0 31
-47 107 -82 133 -47 35 -101 178 -104 277 0 22 -4 61 -9 86 -12 75 35 155 248
416 88 108 189 203 217 203 8 1 44 23 80 50 105 80 176 112 495 221 66 23 125
45 130 49 16 13 118 50 136 50 9 0 36 11 60 24 88 48 432 83 525 53 27 -9 72
-19 99 -23 106 -14 174 -66 232 -176 45 -87 89 -124 160 -136 56 -9 139 0 157
18 6 6 16 10 24 10 7 0 40 18 72 40 32 22 62 40 66 40 4 0 17 9 28 19 12 10
57 38 101 61 44 24 85 47 90 51 6 4 33 13 59 19 27 6 69 20 95 32 31 15 66 22
109 22 61 1 61 3 -1 26 -16 6 -27 16 -25 23 6 18 110 68 136 65 36 -5 24 -22
-24 -36 -67 -19 -53 -31 31 -25 92 7 98 -7 25 -56 -19 -12 -27 -20 -17 -17 10
3 24 6 31 6 7 0 34 14 60 31 40 27 58 32 129 36 82 6 248 -16 310 -39 20 -8
31 -8 40 1 16 16 112 14 155 -5 20 -9 65 -19 99 -24 35 -4 93 -23 135 -43 40
-19 91 -37 113 -41 22 -3 73 -14 113 -23 68 -15 77 -15 126 0 86 27 112 23
154 -24 37 -41 89 -75 99 -65 6 5 -36 45 -48 46 -3 0 -14 16 -25 36 l-19 36
40 32 c22 17 68 59 102 94 54 56 66 63 95 60 29 -3 36 -10 60 -58 14 -30 34
-86 43 -124 9 -38 25 -81 36 -94 47 -61 -7 -110 -68 -62 -27 21 -113 29 -113
10 0 -5 15 -10 34 -10 19 0 50 -9 69 -20 27 -16 49 -20 100 -18 55 3 70 -1 94
-19 96 -75 98 -76 196 -79 50 -1 122 -8 159 -15 49 -9 71 -10 79 -2 7 7 -5 12
-45 17 -31 4 -58 12 -62 17 -3 6 -17 15 -31 20 -35 13 -25 19 38 23 57 4 109
22 109 39 0 6 -17 7 -42 2 -24 -4 -56 -7 -73 -7 -16 0 -65 -8 -109 -19 -105
-25 -115 -24 -161 14 -21 17 -59 46 -84 62 -56 37 -77 72 -114 194 -41 133
-41 145 3 148 97 7 123 3 197 -33 91 -45 139 -48 214 -15 30 13 72 31 94 41
22 10 55 30 73 45 57 48 31 113 -26 66 -15 -12 -56 -35 -92 -52 -36 -17 -75
-35 -87 -41 -28 -14 -85 -3 -153 29 -76 36 -151 63 -174 63 -11 0 -45 -9 -75
-19 -31 -11 -81 -25 -111 -32 -41 -9 -64 -22 -92 -50 -45 -47 -100 -82 -153
-99 -22 -7 -59 -22 -82 -32 -36 -17 -59 -19 -155 -16 -97 3 -121 7 -168 29
-30 15 -73 32 -95 39 -22 7 -77 32 -123 56 -90 48 -107 51 -131 30 -9 -8 -61
-19 -123 -25 -93 -10 -115 -10 -160 4 -54 17 -304 45 -393 45 -31 0 -73 -10
-110 -26 -33 -14 -80 -32 -105 -40 -25 -9 -94 -40 -155 -70 -60 -30 -116 -54
-122 -54 -24 0 -13 31 26 78 56 68 127 173 144 213 8 20 43 60 77 90 129 111
163 146 156 157 -10 16 -14 15 -73 -17z m-3130 -2532 c33 -15 67 -93 67 -154
l0 -48 -37 7 c-21 3 -62 6 -91 6 -44 0 -57 4 -77 26 -14 15 -25 33 -25 40 0
24 45 81 85 108 46 30 46 30 78 15z m509 -439 c31 -24 60 -83 52 -104 -3 -8 1
-25 10 -38 20 -29 21 -101 1 -118 -32 -26 -105 18 -105 64 0 12 -11 44 -25 70
-30 57 -32 99 -5 126 25 25 41 25 72 0z"/>
<path d="M5687 7253 c-9 -9 12 -33 29 -33 19 0 18 26 -2 34 -19 7 -19 7 -27
-1z"/>
<path d="M5452 7243 c-6 -2 -10 -9 -6 -14 8 -14 78 -11 115 6 l34 14 -65 0
c-36 0 -71 -3 -78 -6z"/>
<path d="M2575 5420 c-3 -5 -1 -10 4 -10 6 0 11 5 11 10 0 6 -2 10 -4 10 -3 0
-8 -4 -11 -10z"/>
<path d="M3091 3586 c-15 -18 -6 -36 18 -36 25 0 41 -20 41 -51 0 -44 18 -50
128 -44 98 5 100 5 116 -20 16 -25 36 -26 36 -2 0 22 -68 87 -84 81 -9 -3 -32
12 -61 41 -39 41 -50 46 -73 40 -37 -9 -74 -10 -93 -1 -9 4 -21 1 -28 -8z"/>
<path d="M3826 1028 c-21 -32 -31 -78 -17 -78 6 0 14 12 17 28 4 15 14 37 22
50 9 14 10 22 3 22 -6 0 -17 -10 -25 -22z"/>
<path d="M4980 699 c0 -23 43 -80 71 -94 36 -19 39 -4 4 19 -14 9 -33 33 -42
51 -16 34 -33 46 -33 24z"/>
</g>
</svg>
