<?xml version="1.0" standalone="no"?>
<!DOCTYPE svg PUBLIC "-//W3C//DTD SVG 20010904//EN"
 "http://www.w3.org/TR/2001/REC-SVG-20010904/DTD/svg10.dtd">
<svg version="1.0" xmlns="http://www.w3.org/2000/svg"
 width="789.000000pt" height="882.000000pt" viewBox="0 0 789.000000 882.000000"
 preserveAspectRatio="xMidYMid meet">
<metadata>
Created by potrace 1.16, written by Peter Selinger 2001-2019
</metadata>
<g transform="translate(0.000000,882.000000) scale(0.100000,-0.100000)"
fill="#000000" stroke="none">
<path d="M3558 7129 c-22 -12 -23 -35 -2 -43 9 -3 42 -6 75 -6 33 0 67 -4 77
-10 32 -17 126 -38 205 -45 l78 -7 40 -54 c22 -30 43 -64 49 -78 19 -51 103
-126 141 -126 6 0 -5 18 -25 40 -21 23 -36 50 -36 65 0 25 -45 100 -89 148
-37 41 -110 76 -144 70 -19 -4 -46 3 -81 21 -46 23 -69 28 -162 31 -63 2 -116
0 -126 -6z"/>
<path d="M3311 7109 c-33 -15 -41 -23 -33 -31 13 -13 92 13 112 38 18 21 -24
17 -79 -7z"/>
<path d="M4498 6893 c-28 -33 -39 -61 -26 -69 13 -8 71 52 65 69 -6 18 -23 18
-39 0z"/>
<path d="M1793 6268 c-21 -34 -57 -134 -83 -237 -23 -89 -28 -121 -21 -152 12
-54 49 -98 84 -98 15 -1 39 -8 52 -17 22 -14 25 -14 31 -1 7 18 -9 52 -41 87
-23 25 -23 26 -7 77 12 37 22 53 35 53 14 0 17 10 17 60 0 45 8 79 32 136 21
50 28 78 21 85 -16 16 -110 21 -120 7z"/>
<path d="M1874 5677 c-7 -20 1 -47 15 -47 17 0 22 33 7 49 -14 13 -16 13 -22
-2z"/>
<path d="M1692 5277 c-11 -13 -8 -21 16 -49 16 -18 36 -47 45 -64 9 -17 23
-36 31 -43 28 -24 18 -53 -36 -103 -29 -26 -58 -48 -64 -48 -16 0 -54 -53 -54
-74 0 -9 -11 -26 -26 -38 -45 -40 -106 -127 -114 -165 -6 -26 -4 -47 6 -71 8
-19 14 -40 14 -47 0 -10 -31 -56 -70 -102 -6 -7 -28 -13 -50 -13 -21 0 -42 -5
-45 -10 -4 -6 -27 -21 -53 -34 -40 -19 -53 -21 -85 -13 -33 8 -43 6 -68 -12
-15 -11 -33 -21 -38 -21 -6 0 -26 -14 -46 -31 -28 -25 -41 -30 -62 -25 -27 7
-123 -24 -154 -51 -8 -7 -20 -13 -26 -13 -21 0 -73 -35 -79 -53 -4 -12 11 -46
42 -95 26 -42 66 -107 88 -144 23 -37 49 -70 58 -73 32 -11 117 26 146 63 15
19 50 59 79 89 46 47 56 52 73 43 27 -15 68 6 89 44 10 16 30 33 50 40 30 10
36 18 56 79 27 85 36 94 66 73 35 -24 107 -21 128 6 l18 21 56 -26 c63 -30 87
-33 125 -13 93 47 119 55 163 45 143 -30 206 -77 267 -201 22 -46 44 -96 48
-113 10 -42 22 -55 53 -55 43 0 92 -62 120 -151 6 -19 11 -42 11 -50 0 -8 7
-27 16 -44 12 -22 18 -72 24 -185 3 -85 12 -168 18 -183 11 -25 16 -28 54 -25
l43 3 0 72 c0 61 4 75 23 96 22 24 22 24 6 93 -8 38 -25 84 -36 102 -14 23
-19 44 -15 70 3 26 -3 51 -19 83 -12 25 -25 63 -29 85 -8 52 -27 117 -37 129
-4 5 -8 16 -8 24 0 8 -12 28 -27 44 -20 20 -28 39 -28 65 0 32 -4 39 -35 54
-23 11 -54 44 -90 95 -69 97 -103 131 -159 155 -50 21 -74 24 -116 13 l-30 -7
32 30 c18 17 37 48 43 72 6 23 20 58 30 78 58 114 19 260 -69 263 -14 0 -51
12 -81 27 l-55 27 -8 85 c-8 89 -26 130 -56 130 -11 0 -33 12 -50 26 -38 32
-101 43 -119 21z m226 -304 c25 -22 62 -91 62 -116 0 -10 5 -27 11 -38 14 -28
-13 -69 -45 -69 -13 0 -37 -7 -52 -15 -16 -8 -42 -15 -57 -15 -15 0 -44 -7
-64 -15 -46 -20 -63 -13 -63 23 0 16 -9 37 -20 47 -27 25 -25 37 10 63 17 13
30 31 30 41 0 18 58 71 78 71 5 0 17 9 27 20 22 25 56 26 83 3z m20 -494 c2
-11 -6 -18 -25 -22 -37 -7 -54 10 -28 29 24 18 49 14 53 -7z m-8 -54 c0 -8 -7
-15 -15 -15 -16 0 -20 12 -8 23 11 12 23 8 23 -8z"/>
<path d="M291 4887 c1 -23 134 -222 151 -225 30 -6 68 27 68 59 0 22 -14 42
-57 85 -70 67 -88 80 -130 88 -23 4 -33 2 -32 -7z"/>
<path d="M700 4592 c0 -18 13 -43 34 -67 33 -39 33 -39 45 -17 13 24 9 33 -31
81 -33 39 -48 39 -48 3z"/>
<path d="M834 4455 c-7 -16 70 -94 93 -95 28 -1 21 22 -18 65 -43 47 -66 56
-75 30z"/>
</g>
</svg>
