<?xml version="1.0" standalone="no"?>
<!DOCTYPE svg PUBLIC "-//W3C//DTD SVG 20010904//EN"
 "http://www.w3.org/TR/2001/REC-SVG-20010904/DTD/svg10.dtd">
<svg version="1.0" xmlns="http://www.w3.org/2000/svg"
 width="789.000000pt" height="882.000000pt" viewBox="0 0 789.000000 882.000000"
 preserveAspectRatio="xMidYMid meet">
<metadata>
Created by potrace 1.16, written by Peter Selinger 2001-2019
</metadata>
<g transform="translate(0.000000,882.000000) scale(0.100000,-0.100000)"
fill="#000000" stroke="none">
<path d="M2840 8514 c-6 -14 -20 -34 -32 -44 l-22 -17 25 -13 c13 -7 45 -35
70 -61 34 -37 52 -49 75 -49 16 0 40 -7 53 -16 24 -18 25 -43 3 -127 -15 -55
1 -99 51 -141 23 -20 50 -43 61 -52 17 -15 18 -26 12 -128 -5 -82 -4 -120 5
-142 14 -32 160 -253 214 -324 59 -76 85 -119 85 -137 0 -10 -21 -36 -46 -59
-34 -32 -56 -43 -92 -48 -54 -7 -61 -2 -86 67 -10 27 -41 73 -71 105 -29 31
-62 75 -73 98 -34 66 -110 152 -193 218 -82 65 -154 105 -284 157 -58 24 -91
44 -120 76 -44 47 -89 71 -247 133 -59 23 -112 48 -119 56 -17 21 -31 17 -19
-5 17 -34 12 -80 -12 -102 -13 -11 -63 -54 -113 -95 -49 -41 -96 -80 -104 -87
-8 -7 -29 -21 -47 -32 -17 -11 -43 -28 -57 -38 -22 -16 -28 -16 -67 -3 -38 13
-53 13 -124 0 -45 -8 -108 -22 -141 -30 -33 -9 -81 -18 -107 -21 -42 -4 -51
-1 -88 29 -48 37 -65 66 -76 123 -15 84 -89 185 -164 225 -13 7 -38 28 -57 46
-32 32 -53 43 -53 27 1 -18 41 -54 108 -97 93 -60 105 -79 148 -236 18 -67 60
-113 129 -144 58 -26 77 -46 81 -84 1 -15 10 -54 19 -87 12 -45 15 -91 13
-180 -3 -101 -8 -131 -31 -189 -15 -38 -27 -81 -27 -96 0 -15 -9 -56 -20 -91
-12 -35 -20 -86 -20 -114 1 -27 -2 -75 -5 -105 -13 -108 -15 -101 36 -116 32
-10 55 -25 78 -54 21 -26 40 -40 56 -40 13 0 36 -7 52 -15 15 -8 39 -16 53
-19 29 -6 160 -158 160 -186 0 -26 -62 -70 -100 -70 -12 0 -34 10 -51 22 -41
31 -61 19 -88 -57 -8 -22 -25 -37 -60 -53 -27 -12 -55 -22 -63 -22 -8 0 -23
-6 -33 -14 -18 -13 -18 -14 3 -41 12 -15 22 -41 22 -57 0 -55 29 -135 55 -152
35 -23 31 -42 -13 -71 -43 -28 -59 -26 -105 12 -16 13 -39 23 -53 23 -23 0
-24 -3 -19 -42 10 -73 27 -122 54 -151 31 -34 72 -57 101 -57 12 0 44 -19 71
-42 48 -41 50 -45 45 -84 -5 -39 -3 -43 37 -77 81 -70 110 -87 149 -87 35 0
40 -4 78 -61 22 -33 40 -66 40 -72 0 -7 -17 -32 -38 -57 -35 -40 -44 -45 -93
-50 -50 -5 -54 -7 -53 -30 1 -14 4 -33 9 -42 14 -33 -19 -19 -62 25 -58 61
-67 80 -52 122 12 31 11 38 -7 62 -11 16 -35 36 -53 45 -18 9 -43 26 -56 38
-18 17 -30 20 -58 15 -20 -4 -44 -2 -56 5 -17 9 -22 8 -27 -5 -4 -8 -1 -21 5
-29 7 -8 14 -29 16 -46 2 -18 9 -38 14 -43 14 -14 14 -44 0 -53 -6 -3 -23 5
-37 19 -15 14 -38 31 -52 37 -35 16 -70 36 -83 49 -19 19 -29 12 -23 -15 9
-33 83 -109 150 -152 29 -18 57 -46 66 -64 8 -18 24 -34 35 -36 11 -2 41 -20
68 -40 44 -34 47 -39 47 -81 0 -54 16 -105 47 -148 13 -17 23 -38 23 -45 0 -8
-18 -33 -40 -56 -35 -38 -44 -43 -80 -40 -31 1 -46 -4 -67 -24 -38 -36 -88
-45 -114 -22 -14 12 -41 19 -82 22 -56 4 -64 2 -86 -22 -37 -40 -81 -29 -81
19 0 32 -26 61 -75 85 -28 14 -52 34 -62 54 -8 17 -33 50 -53 72 -21 23 -45
56 -54 72 -11 21 -27 34 -52 41 -20 5 -47 22 -60 36 -17 19 -32 25 -45 22 -33
-9 -43 -1 -124 94 -41 49 -83 89 -91 89 -9 0 -28 7 -44 16 -30 19 -77 13 -86
-10 -3 -8 120 -216 274 -462 153 -247 366 -588 472 -759 106 -170 199 -318
208 -328 10 -12 19 -14 25 -8 10 10 5 72 -34 414 -5 48 -6 94 -2 101 4 7 23
26 42 42 28 24 42 28 83 26 52 -2 105 18 123 47 5 9 21 49 35 90 32 93 47 104
100 73 34 -19 49 -22 93 -16 28 4 57 11 64 16 7 5 47 9 90 9 113 -2 159 3 176
17 33 28 197 -32 197 -72 0 -11 38 -69 83 -129 24 -31 28 -43 22 -70 -15 -71
1 -220 26 -243 13 -12 19 -30 19 -59 0 -29 6 -47 20 -60 11 -10 20 -23 20 -30
0 -7 9 -20 21 -31 12 -10 27 -31 35 -47 14 -26 13 -29 -13 -53 -27 -25 -27
-26 -8 -40 11 -8 31 -17 45 -20 70 -15 94 -41 66 -73 -9 -10 -16 -32 -16 -49
0 -45 -25 -55 -78 -32 -23 11 -42 23 -42 28 0 16 -28 22 -39 8 -8 -10 -6 -20
10 -40 18 -23 20 -31 9 -56 -12 -29 -41 -47 -59 -36 -5 4 -22 1 -37 -4 -27
-11 -27 -11 -21 -89 3 -42 13 -113 22 -157 13 -65 21 -84 46 -104 16 -14 29
-30 29 -36 0 -5 -20 -25 -45 -44 -24 -18 -42 -37 -39 -42 7 -11 41 -10 49 2
28 45 73 -55 67 -146 -3 -31 -39 -64 -71 -64 -59 0 -67 -51 -14 -85 38 -23 40
-35 13 -60 -40 -36 -18 -70 38 -59 15 3 40 -1 57 -10 17 -9 40 -16 53 -16 19
0 22 -5 22 -40 0 -36 4 -41 45 -66 47 -27 57 -52 29 -74 -13 -11 -23 -10 -59
8 -53 26 -65 23 -89 -23 -15 -28 -17 -37 -6 -50 7 -8 18 -15 24 -15 14 0 63
-50 95 -97 l22 -33 103 0 c90 0 105 -2 121 -20 21 -24 44 -25 71 -5 40 30 94
6 94 -44 0 -12 19 -42 41 -66 32 -34 49 -45 72 -45 17 0 39 -8 49 -17 18 -16
21 -16 47 0 39 23 62 21 105 -8 42 -28 70 -31 106 -10 38 22 58 18 110 -20 33
-24 56 -52 74 -90 14 -31 26 -61 26 -67 0 -6 -16 -28 -35 -49 -33 -36 -44 -59
-29 -59 4 0 12 7 19 16 14 20 76 44 128 51 27 4 43 0 57 -12 33 -30 33 -52 0
-119 -31 -61 -40 -70 -102 -94 -19 -8 -32 -26 -47 -67 -22 -59 -28 -115 -11
-115 6 0 10 11 10 24 0 13 8 39 17 58 9 18 19 40 23 48 4 8 25 24 46 35 26 14
47 36 65 68 14 27 36 58 47 70 l22 21 30 -22 c17 -13 40 -22 53 -21 55 5 88
-3 116 -27 44 -37 42 -72 -9 -118 -22 -20 -44 -36 -49 -36 -5 0 -13 -10 -17
-22 -3 -13 -12 -30 -19 -38 -6 -8 -20 -35 -29 -60 -10 -25 -24 -53 -33 -62
-15 -17 -10 -38 9 -38 17 0 37 33 38 61 0 23 25 55 57 73 7 4 26 0 43 -9 17
-9 41 -14 53 -12 24 4 13 11 -35 21 -50 11 -45 76 6 76 13 0 33 -11 46 -25 18
-19 33 -25 54 -23 28 3 32 -1 44 -37 15 -45 44 -80 85 -101 18 -10 30 -26 34
-45 9 -48 65 -63 105 -29 45 40 133 90 156 90 33 0 78 -49 90 -96 25 -103 33
-152 33 -184 -1 -19 7 -60 16 -90 14 -42 25 -59 48 -70 17 -9 44 -30 62 -48
17 -18 41 -32 52 -32 14 0 23 -8 27 -25 4 -14 13 -25 23 -25 10 0 30 -14 46
-30 25 -26 36 -30 79 -29 78 0 149 -11 168 -28 25 -22 124 -10 188 22 27 14
57 25 67 26 11 0 13 3 6 6 -22 8 -14 38 16 67 23 22 37 27 68 25 39 -3 51 0
166 33 l68 19 64 -25 c35 -15 67 -26 72 -26 4 0 -17 18 -47 40 l-55 41 -90 -5
c-49 -3 -124 -10 -165 -15 -197 -25 -184 -25 -214 0 -29 26 -39 77 -40 221 -1
63 -3 69 -26 78 -14 6 -36 17 -50 25 -14 8 -58 22 -98 31 -53 12 -77 22 -87
38 l-15 22 -60 -28 c-116 -56 -158 -27 -165 113 -6 109 -18 179 -45 259 -47
136 -96 220 -130 220 -24 0 -43 25 -35 49 4 15 -1 23 -22 33 -16 7 -31 26 -37
43 -5 17 -13 40 -19 52 -5 12 -7 29 -3 39 4 11 -2 26 -16 41 -20 21 -22 32
-20 145 1 97 -3 138 -20 198 -21 76 -28 122 -47 310 -14 128 -75 354 -108 393
-13 16 -23 32 -23 37 0 5 -21 21 -46 36 -31 18 -51 39 -61 63 -9 20 -27 50
-42 68 -33 40 -66 86 -67 96 -1 4 -2 12 -3 17 0 6 -9 10 -20 10 -32 0 -71 39
-71 70 0 35 -25 46 -58 24 -21 -14 -23 -21 -18 -54 4 -28 2 -43 -10 -54 -33
-34 -47 -24 -258 170 -73 68 -78 76 -72 105 5 27 0 37 -50 89 -65 68 -67 91
-9 128 31 19 48 22 146 22 127 0 151 -9 214 -83 36 -42 45 -41 20 3 -20 35
-18 42 6 35 20 -7 21 -5 14 31 -11 60 -43 112 -82 133 -20 10 -25 9 -40 -17
-10 -16 -33 -42 -51 -57 -32 -27 -35 -28 -84 -16 -84 19 -278 118 -319 162
-39 43 -74 51 -84 19 -8 -27 -19 -25 -39 5 -9 14 -32 31 -51 39 -31 13 -35 19
-35 51 0 28 -5 38 -24 47 -21 9 -29 7 -56 -16 l-31 -26 -38 19 c-20 11 -55 23
-76 26 -61 11 -65 19 -59 89 8 76 18 89 64 76 186 -49 238 -56 300 -40 25 6
55 14 67 17 17 4 35 -7 75 -44 29 -27 72 -59 95 -71 23 -11 50 -25 60 -31 32
-17 109 -51 116 -51 4 0 7 18 7 41 0 33 -6 47 -31 70 -34 31 -45 34 -83 20
-19 -8 -30 -6 -49 10 -14 10 -36 19 -50 19 -13 0 -31 7 -38 16 -30 36 -149 60
-191 38 -37 -19 -85 -18 -160 6 -34 11 -77 20 -95 20 -38 0 -48 12 -32 38 24
38 -13 74 -54 54 -69 -34 -99 -16 -49 29 26 23 37 26 70 22 31 -4 43 -1 56 13
70 81 88 105 82 111 -4 4 -16 2 -26 -5 -23 -14 -40 -15 -58 -3 -22 13 67 92
90 80 9 -5 35 -9 57 -9 64 0 103 56 65 94 -8 9 -24 16 -34 16 -31 0 -32 18 -3
32 23 11 27 19 25 43 -1 17 -4 53 -5 80 -6 83 -23 130 -54 144 -16 7 -39 19
-53 27 -14 7 -37 19 -52 25 -28 11 -44 41 -33 59 10 16 22 12 51 -15 64 -59
82 16 25 99 -39 56 -39 97 -2 106 34 8 36 23 8 55 -21 26 -27 27 -55 17 -39
-13 -47 -4 -47 56 0 42 -2 44 -39 57 -30 11 -52 11 -94 4 -68 -13 -80 -9 -74
29 6 43 -26 52 -54 17 -28 -35 -54 -29 -69 14 -20 60 -38 52 -30 -13 7 -57 -3
-86 -30 -86 -7 0 -32 16 -56 35 -27 24 -48 34 -58 29 -9 -4 -25 -7 -36 -8 -18
-1 -20 4 -17 65 3 65 3 66 -40 111 -27 29 -61 52 -93 63 -74 27 -86 40 -79 86
5 32 2 42 -19 63 -15 14 -34 26 -43 26 -13 0 -15 6 -11 30 5 24 -1 38 -39 85
-36 44 -43 59 -34 69 9 12 17 12 48 1 20 -8 49 -16 64 -19 17 -4 29 -16 36
-35 10 -28 55 -61 85 -61 17 0 47 32 47 49 0 7 -11 27 -25 43 -35 41 -29 60
25 75 28 8 57 27 78 49 22 24 39 34 50 31 61 -20 61 -20 91 12 35 37 91 137
91 161 0 10 -13 34 -29 54 -36 44 -52 130 -29 152 13 13 18 12 42 -7 14 -11
33 -18 41 -15 8 3 50 -13 93 -34 107 -54 125 -53 199 14 l59 54 62 -5 61 -6
65 67 c38 38 74 66 85 66 13 0 31 16 48 41 40 61 40 60 50 104 7 33 15 43 46
58 38 18 57 48 57 92 0 19 7 26 34 34 19 5 52 23 73 40 36 29 42 30 128 29 50
0 105 3 123 7 22 5 45 2 70 -8 60 -24 147 -47 179 -47 47 0 125 -80 166 -171
40 -87 51 -98 137 -138 76 -36 129 -40 155 -11 10 11 26 20 36 20 10 0 31 11
47 25 17 14 35 25 42 25 6 0 35 22 63 49 55 52 104 77 176 91 57 11 66 6 97
-45 14 -24 39 -54 57 -67 56 -42 64 -42 15 1 -53 47 -88 98 -88 129 0 28 34
48 95 57 28 4 59 15 70 25 31 28 59 32 106 15 60 -20 69 -19 146 17 38 17 79
36 92 42 47 22 255 7 307 -22 12 -6 24 -9 28 -5 3 3 34 -12 68 -33 61 -38 65
-39 143 -36 44 1 105 6 135 11 48 8 60 6 100 -14 59 -30 76 -36 130 -46 89
-16 136 -27 168 -39 24 -9 40 -10 56 -2 13 6 44 13 68 17 40 6 49 4 79 -22 63
-54 149 -91 230 -99 43 -4 85 -14 99 -24 26 -18 122 -40 174 -40 19 0 40 -10
57 -26 32 -31 90 -46 184 -48 39 -1 102 -6 141 -10 59 -7 73 -6 87 8 9 9 13
24 10 32 -5 13 -16 15 -60 9 -49 -6 -54 -5 -51 11 2 10 20 22 48 30 49 15 70
36 70 70 0 25 -43 64 -71 64 -17 0 -28 23 -43 89 -2 13 2 37 10 54 15 27 14
30 -7 53 -29 31 -21 47 46 91 57 37 67 53 63 91 -4 37 -33 40 -67 8 -15 -15
-64 -42 -110 -61 l-82 -35 -92 40 c-51 22 -99 40 -107 40 -9 0 -32 11 -52 25
-20 14 -46 25 -58 25 -11 0 -29 5 -40 12 -15 10 -26 9 -55 -5 -20 -9 -48 -17
-64 -17 -37 0 -81 -35 -81 -64 0 -31 -27 -55 -158 -138 -37 -23 -74 -22 -107
3 -15 12 -41 25 -58 28 -35 7 -66 44 -76 92 -6 26 -3 43 12 71 20 36 20 37 0
70 -22 38 -24 38 -168 18 -49 -6 -95 -16 -101 -21 -21 -17 -114 -30 -135 -18
-15 8 -27 6 -52 -9 -18 -11 -46 -22 -63 -25 -28 -5 -38 0 -90 49 -68 65 -84
75 -112 67 -14 -3 -39 5 -69 24 -26 16 -72 40 -100 53 -54 25 -67 46 -35 56 9
3 40 17 67 32 28 14 69 35 92 46 27 12 46 29 52 46 5 15 22 32 39 39 17 7 33
19 36 26 2 7 -9 47 -27 89 -23 57 -45 89 -88 132 -51 51 -63 57 -107 62 -35 3
-56 0 -75 -12 -14 -10 -36 -16 -49 -14 -50 5 -224 -15 -246 -29 -54 -34 -101
16 -82 87 5 20 18 48 28 61 10 13 47 73 83 132 66 111 87 129 127 108 40 -21
77 -13 130 29 47 38 116 70 149 70 8 0 29 10 46 23 44 31 93 49 149 54 27 3
45 9 42 14 -11 19 -75 8 -145 -26 -41 -19 -81 -35 -91 -35 -44 0 -116 -35
-159 -77 l-47 -45 -58 6 c-90 10 -114 -11 -204 -172 -8 -15 -29 -52 -47 -83
-31 -54 -33 -62 -33 -157 0 -80 -3 -102 -17 -113 -20 -17 -108 -18 -124 -2
-17 17 -29 113 -17 136 5 9 20 17 33 17 13 0 27 5 30 10 10 16 -38 12 -63 -6
-19 -13 -22 -24 -22 -80 0 -59 3 -68 29 -95 23 -22 39 -29 70 -29 30 0 43 -5
51 -19 30 -58 -13 -134 -167 -296 -212 -223 -267 -289 -327 -392 -18 -32 -36
-74 -40 -94 -3 -20 -14 -43 -24 -51 -26 -24 -154 -33 -194 -14 -18 8 -44 16
-58 18 -21 3 -25 8 -22 34 3 33 -14 54 -70 83 -18 10 -37 27 -43 37 -16 30
-114 124 -130 124 -17 0 -26 -14 -34 -53 -11 -52 -34 -56 -81 -13 -23 21 -48
35 -55 32 -8 -3 -48 -8 -88 -12 -69 -6 -77 -5 -122 21 -34 20 -52 40 -65 69
-10 23 -27 46 -38 53 -11 7 -23 25 -26 40 -4 16 -39 64 -78 108 -39 43 -82
102 -95 129 -14 28 -36 69 -49 91 -57 95 -62 135 -23 171 10 9 19 25 19 36 0
10 9 35 20 55 28 53 25 84 -9 118 -25 23 -36 27 -64 22 -27 -4 -40 1 -72 28
l-39 32 18 84 c22 105 21 154 -5 196 -36 58 -90 79 -139 53 -15 -8 -24 -6 -40
10 -11 11 -20 28 -20 38 0 19 -18 42 -32 42 -5 0 -13 -12 -18 -26z m2508
-1053 c9 -5 43 -14 74 -20 62 -11 177 -61 197 -85 36 -43 -21 -101 -100 -100
-60 1 -87 22 -95 76 -8 47 -17 53 -73 53 -43 0 -45 1 -52 35 -4 19 -5 38 -3
42 7 11 30 10 52 -1z m422 -126 c16 -19 6 -45 -18 -45 -29 0 -48 26 -32 45 16
19 34 19 50 0z m-384 -88 c25 -22 26 -24 9 -41 -12 -12 -25 -15 -39 -11 -19 7
-37 9 -91 14 -22 2 -18 28 7 45 33 23 82 20 114 -7z m994 -123 c0 -14 -6 -24
-14 -24 -15 0 -30 45 -20 61 10 16 34 -10 34 -37z m824 -28 c34 -19 80 -37
104 -41 23 -4 42 -12 42 -18 0 -14 -50 -67 -64 -67 -18 0 -66 -54 -66 -74 0
-44 12 -66 35 -66 44 0 85 -13 85 -26 0 -8 9 -19 20 -26 11 -7 20 -16 20 -19
0 -12 -88 -59 -110 -59 -30 0 -77 35 -95 70 -14 27 -13 34 5 82 11 29 20 56
20 61 0 4 -20 7 -46 7 -42 0 -46 3 -59 33 -8 20 -11 50 -8 74 3 22 0 50 -6 62
-28 52 36 56 123 7z m-230 -139 c10 -40 30 -93 43 -119 14 -26 23 -54 20 -62
-14 -35 -77 -6 -77 35 0 23 -17 24 -44 4 -12 -9 -42 -15 -71 -15 -41 0 -61 6
-98 31 -27 18 -47 39 -47 49 0 22 78 70 115 70 41 0 65 17 65 47 0 15 10 37
22 50 l22 24 16 -21 c9 -12 24 -53 34 -93z m520 -167 c30 0 34 -20 9 -43 -19
-17 -66 -13 -82 7 -5 6 -5 21 0 34 7 19 12 21 28 12 11 -5 31 -10 45 -10z
m-5593 -1821 c31 -16 58 -89 52 -138 l-6 -41 -46 2 c-25 1 -53 -1 -62 -5 -21
-11 -83 33 -87 62 -3 17 11 36 53 77 61 58 66 60 96 43z m510 -446 c55 -68 59
-120 13 -142 -23 -10 -30 -9 -46 6 -46 42 -60 103 -31 135 20 23 46 23 64 1z
m64 -212 c0 -36 -27 -48 -59 -28 -34 23 -33 45 2 50 46 7 57 3 57 -22z m1013
-313 c-5 -15 -23 -11 -26 6 -2 11 2 14 13 10 9 -4 14 -11 13 -16z"/>
<path d="M5164 8429 c-8 -14 11 -33 25 -25 6 4 11 11 11 16 0 13 -29 20 -36 9z"/>
<path d="M5093 8346 c-27 -13 -29 -22 -6 -30 20 -8 52 20 38 32 -6 5 -20 4
-32 -2z"/>
<path d="M5006 8164 c-20 -19 -20 -51 0 -84 15 -25 15 -24 9 13 -7 47 7 67 46
67 16 0 29 5 29 10 0 16 -67 12 -84 -6z"/>
<path d="M4707 1639 c7 -7 15 -10 18 -7 3 3 -2 9 -12 12 -14 6 -15 5 -6 -5z"/>
<path d="M4760 1615 c14 -8 32 -14 40 -14 8 0 0 6 -19 14 -42 19 -54 19 -21 0z"/>
<path d="M3974 969 c-10 -17 13 -36 27 -22 12 12 4 33 -11 33 -5 0 -12 -5 -16
-11z"/>
<path d="M3560 963 c-36 -14 -27 -53 22 -95 31 -28 138 -23 138 6 0 13 -52 56
-97 79 -34 18 -39 19 -63 10z"/>
<path d="M4055 937 c-16 -13 -14 -15 26 -20 50 -7 57 -4 39 18 -15 19 -40 19
-65 2z"/>
<path d="M5945 455 c-41 -18 -3 -19 45 0 31 12 32 14 10 14 -14 0 -38 -6 -55
-14z"/>
</g>
</svg>
