<svg id="svg" version="1.1" xmlns="http://www.w3.org/2000/svg" xmlns:xlink="http://www.w3.org/1999/xlink" width="400" height="427.9202279202279" viewBox="0, 0, 400,427.9202279202279"><g id="svgg"><path id="path0" d="M0.003 90.791 L 0.013 181.581 1.431 182.340 C 2.211 182.757,2.849 183.272,2.849 183.483 C 2.849 183.694,4.113 184.730,5.658 185.784 C 7.203 186.839,9.062 188.667,9.789 189.847 C 10.516 191.027,11.568 191.999,12.126 192.007 C 12.684 192.016,13.296 192.426,13.485 192.920 C 13.716 193.520,14.253 193.711,15.109 193.496 C 18.042 192.760,21.580 194.940,24.650 199.375 C 27.538 203.549,28.188 204.044,29.320 202.930 C 30.205 202.061,30.344 202.081,31.265 203.203 C 31.811 203.868,32.864 204.604,33.606 204.839 C 35.249 205.361,36.296 206.385,38.416 209.544 C 39.310 210.876,40.235 211.966,40.472 211.966 C 40.708 211.966,41.052 212.563,41.235 213.293 C 41.418 214.022,42.195 214.905,42.962 215.254 C 45.220 216.283,46.724 217.831,46.724 219.127 C 46.724 221.876,48.920 222.705,50.757 220.649 C 52.375 218.838,54.815 218.174,55.540 219.348 C 55.725 219.648,56.220 219.761,56.640 219.600 C 57.060 219.439,57.822 219.727,58.335 220.240 C 59.460 221.365,62.289 220.920,63.971 219.352 C 64.760 218.617,65.614 218.412,66.966 218.631 C 68.710 218.914,68.872 218.811,69.044 217.304 C 69.175 216.159,69.529 215.693,70.228 215.749 C 71.658 215.862,71.508 213.764,69.847 210.446 C 68.710 208.175,68.547 207.269,68.915 205.276 C 69.406 202.615,69.079 202.103,66.501 201.486 C 65.626 201.277,65.064 200.857,65.252 200.553 C 65.440 200.249,65.176 200.000,64.665 200.000 C 63.409 200.000,62.253 198.759,62.018 197.155 C 61.877 196.201,61.196 195.619,59.557 195.053 C 58.310 194.624,56.633 193.552,55.829 192.672 C 55.026 191.792,53.994 190.838,53.537 190.551 C 52.478 189.885,51.282 187.758,51.282 186.541 C 51.282 185.858,51.615 186.024,52.499 187.149 C 53.330 188.205,54.074 188.603,54.841 188.402 C 55.620 188.198,56.054 188.441,56.250 189.192 C 56.406 189.788,56.985 190.419,57.536 190.594 C 58.088 190.769,58.997 191.419,59.557 192.037 C 62.235 194.996,62.713 192.443,60.345 187.833 C 59.052 185.318,59.803 183.013,61.263 185.010 C 61.829 185.784,62.250 185.866,63.285 185.404 C 64.287 184.957,64.826 185.030,65.589 185.715 C 67.527 187.456,68.334 188.034,68.822 188.034 C 70.369 188.034,71.984 190.890,71.231 192.296 C 70.489 193.683,71.782 198.291,72.914 198.291 C 73.120 198.291,73.860 198.822,74.556 199.471 C 76.348 201.140,77.033 200.618,75.957 198.404 C 75.269 196.987,75.205 196.362,75.698 195.869 C 76.192 195.375,76.353 195.379,76.353 195.883 C 76.353 196.625,79.580 196.224,80.709 195.341 C 81.068 195.061,81.709 194.905,82.134 194.994 C 82.635 195.100,82.846 194.719,82.734 193.911 C 82.623 193.108,82.990 192.435,83.763 192.021 C 84.942 191.390,84.926 191.335,82.938 189.135 C 81.824 187.901,80.912 186.636,80.912 186.323 C 80.912 186.011,80.174 185.755,79.272 185.755 C 78.370 185.755,77.313 185.370,76.923 184.900 C 76.533 184.430,75.925 184.045,75.571 184.045 C 75.218 184.045,74.245 183.468,73.410 182.763 C 72.574 182.058,71.351 181.031,70.691 180.480 C 69.579 179.551,69.553 179.359,70.332 177.852 C 71.100 176.367,71.079 176.134,70.087 175.150 C 68.116 173.197,67.486 172.824,65.500 172.428 C 62.589 171.850,59.221 168.735,58.917 166.342 C 58.780 165.267,58.513 163.532,58.322 162.487 L 57.976 160.587 60.327 161.787 C 61.620 162.446,62.678 163.181,62.678 163.420 C 62.678 164.454,65.418 163.948,66.951 162.631 L 68.625 161.192 66.756 159.730 C 65.712 158.913,65.018 157.929,65.183 157.500 C 65.345 157.077,65.232 156.580,64.932 156.395 C 64.633 156.210,64.387 154.853,64.387 153.380 C 64.387 151.286,64.129 150.540,63.205 149.963 C 61.443 148.863,62.801 147.581,65.739 147.570 C 68.706 147.559,69.187 147.224,70.054 144.567 C 71.159 141.177,73.144 140.185,75.097 142.044 C 76.359 143.247,76.809 143.390,77.581 142.839 C 78.099 142.468,79.060 141.788,79.717 141.327 C 81.923 139.779,81.220 137.894,77.137 134.417 C 76.549 133.917,75.812 133.081,75.499 132.561 C 75.185 132.040,73.593 131.150,71.961 130.582 C 70.328 130.014,68.176 128.873,67.178 128.046 C 66.154 127.197,64.017 126.263,62.268 125.900 C 59.210 125.265,59.185 125.243,60.213 124.107 C 61.039 123.194,61.221 122.192,61.096 119.245 C 60.983 116.598,61.269 114.648,62.093 112.446 C 62.728 110.748,63.248 108.642,63.248 107.766 C 63.248 106.890,63.440 105.981,63.675 105.745 C 63.910 105.510,64.112 105.147,64.123 104.938 C 64.134 104.729,64.495 103.923,64.925 103.146 C 67.902 97.769,66.157 79.051,62.654 78.787 C 61.937 78.733,60.945 78.283,60.448 77.786 C 59.624 76.962,59.714 76.942,61.482 77.559 C 63.005 78.089,64.042 78.074,66.325 77.487 C 67.923 77.076,69.744 76.674,70.370 76.593 C 70.997 76.512,72.664 76.021,74.074 75.502 C 77.559 74.218,78.551 74.050,78.939 74.679 C 79.290 75.246,82.621 75.439,82.621 74.891 C 82.621 74.714,82.376 74.110,82.076 73.550 C 81.608 72.677,81.764 72.539,83.165 72.590 C 84.420 72.636,84.660 72.818,84.199 73.376 C 83.073 74.736,84.260 74.772,86.150 73.434 C 93.709 68.084,96.866 63.626,96.866 58.301 C 96.866 57.575,97.062 56.980,97.301 56.980 C 98.268 56.980,111.411 62.725,113.327 63.985 C 114.459 64.729,116.667 65.814,118.234 66.397 C 119.801 66.980,121.852 68.009,122.792 68.685 C 123.732 69.361,125.912 70.705,127.635 71.671 C 131.094 73.611,139.601 81.614,139.601 82.929 C 139.601 83.386,139.799 83.761,140.041 83.761 C 140.283 83.761,140.986 84.722,141.603 85.897 C 142.220 87.073,142.885 88.162,143.081 88.319 C 144.479 89.435,147.655 95.554,147.949 97.700 C 148.375 100.808,152.529 101.071,155.459 98.175 C 155.876 97.763,156.414 97.547,156.655 97.696 C 156.896 97.845,157.403 97.387,157.782 96.679 C 158.525 95.292,157.777 93.578,154.247 88.581 C 153.371 87.340,151.659 84.786,150.442 82.906 C 149.226 81.026,147.571 78.742,146.765 77.832 C 145.959 76.921,145.299 75.838,145.299 75.425 C 145.299 75.011,144.466 74.231,143.447 73.691 C 141.580 72.701,141.282 72.609,139.445 72.451 C 138.888 72.404,138.190 71.724,137.892 70.940 C 137.594 70.157,137.082 69.516,136.754 69.516 C 136.426 69.516,135.879 68.903,135.537 68.154 C 135.196 67.405,134.303 66.512,133.552 66.170 C 132.801 65.828,132.219 65.351,132.258 65.110 C 132.460 63.866,132.023 63.890,130.277 65.222 C 128.219 66.792,127.612 66.572,126.813 63.963 C 126.597 63.260,125.989 62.253,125.461 61.724 C 124.819 61.081,124.515 59.879,124.542 58.088 L 124.582 55.412 122.886 56.443 C 121.222 57.455,121.193 57.556,121.317 61.806 L 121.443 66.138 119.838 65.762 C 115.765 64.810,113.686 63.095,113.500 60.534 C 113.402 59.183,113.577 58.120,113.896 58.120 C 114.210 58.120,114.546 56.902,114.641 55.413 C 114.796 52.994,114.968 52.689,116.261 52.538 C 118.831 52.238,119.409 50.338,117.267 49.230 C 116.269 48.714,114.997 47.747,114.441 47.080 C 113.884 46.414,113.420 46.080,113.409 46.337 C 113.377 47.131,111.681 45.145,111.681 44.314 C 111.681 42.912,112.886 42.160,114.096 42.808 C 114.702 43.132,115.329 43.265,115.491 43.104 C 115.991 42.604,116.051 38.127,115.562 37.825 C 114.608 37.236,115.153 35.369,116.614 34.219 L 118.128 33.028 116.845 31.662 C 115.597 30.333,115.595 27.455,116.843 28.226 C 117.356 28.543,123.151 30.168,124.746 30.441 C 125.194 30.518,125.753 31.072,125.988 31.672 C 126.223 32.272,126.434 32.483,126.456 32.140 C 126.569 30.379,129.205 28.304,129.834 29.480 C 130.170 30.107,130.306 30.758,130.136 30.927 C 129.967 31.096,130.323 31.392,130.926 31.583 C 131.864 31.881,131.994 32.368,131.819 34.912 L 131.614 37.892 132.480 35.650 C 132.956 34.418,133.777 32.933,134.304 32.351 C 135.145 31.421,135.179 30.895,134.582 28.005 C 133.674 23.607,133.703 23.301,135.186 21.652 C 138.455 18.018,144.590 16.509,145.750 19.054 C 146.730 21.205,146.628 21.609,144.943 22.249 C 143.544 22.781,143.465 23.003,143.723 25.686 C 144.067 29.271,141.764 31.629,138.547 30.986 C 137.342 30.745,136.752 30.849,136.752 31.301 C 136.752 31.672,136.525 31.836,136.247 31.664 C 135.969 31.492,135.425 31.733,135.038 32.200 C 134.478 32.874,134.479 33.048,135.043 33.048 C 135.572 33.048,135.591 33.243,135.117 33.813 C 134.047 35.102,135.109 35.358,136.733 34.202 C 138.550 32.908,139.105 33.304,143.043 38.707 C 145.315 41.823,145.746 43.192,144.768 44.188 C 143.557 45.423,143.811 48.139,145.157 48.330 C 146.281 48.490,146.439 48.262,146.439 46.478 C 146.439 43.957,147.253 43.882,148.706 46.271 C 149.744 47.978,149.865 49.876,149.326 55.983 C 149.305 56.218,148.262 56.410,147.009 56.410 C 144.104 56.410,144.110 57.211,147.026 58.698 C 151.670 61.068,155.427 66.044,153.419 67.168 C 152.533 67.664,152.597 67.793,153.984 68.320 C 155.413 68.863,155.489 69.038,154.879 70.376 C 154.424 71.376,153.930 71.723,153.317 71.473 C 149.262 69.814,146.927 70.978,147.868 74.189 C 148.844 77.522,152.348 83.732,154.649 86.208 C 156.045 87.710,157.766 90.146,158.473 91.621 C 159.180 93.095,160.228 94.640,160.801 95.053 C 161.374 95.466,161.712 96.015,161.554 96.272 C 160.034 98.731,170.639 102.292,173.703 100.350 C 174.222 100.021,175.024 100.404,176.178 101.531 C 178.484 103.786,180.381 103.557,180.242 101.042 C 180.066 97.855,181.533 98.238,185.751 102.481 C 187.888 104.631,190.045 106.546,190.545 106.738 C 191.417 107.073,191.691 108.035,191.491 110.067 C 191.356 111.435,193.306 111.880,199.091 111.801 C 204.880 111.723,204.927 111.696,205.932 107.884 C 206.770 104.708,211.760 97.785,216.544 93.162 C 227.461 82.613,229.007 80.674,229.444 76.983 L 229.788 74.074 227.824 74.074 C 225.826 74.074,224.815 73.509,223.334 71.564 C 222.530 70.509,222.557 70.505,224.331 71.422 C 229.411 74.049,230.972 72.019,230.836 62.965 C 230.816 61.640,239.007 49.209,240.386 48.471 C 240.898 48.196,242.473 48.102,243.885 48.261 C 246.229 48.526,246.649 48.370,248.719 46.474 C 249.966 45.332,251.630 44.262,252.416 44.096 C 253.203 43.931,254.872 43.461,256.125 43.052 C 267.186 39.445,270.085 40.022,270.085 45.831 C 270.085 47.258,270.340 47.863,270.940 47.863 C 271.410 47.863,271.795 47.607,271.795 47.293 C 271.795 46.980,272.060 46.724,272.385 46.724 C 272.785 46.724,272.778 47.091,272.365 47.863 C 271.248 49.951,269.885 49.318,269.295 46.439 C 268.755 43.799,268.202 42.839,266.876 42.235 C 264.925 41.345,262.880 41.437,261.279 42.486 C 260.532 42.975,259.580 43.304,259.163 43.215 C 258.746 43.127,257.676 43.540,256.787 44.134 C 255.897 44.727,254.743 45.254,254.222 45.305 C 252.436 45.479,249.190 47.158,247.637 48.711 C 246.218 50.131,245.828 50.234,243.127 49.902 L 240.171 49.539 238.328 53.117 C 237.315 55.085,235.589 57.721,234.493 58.974 C 230.756 63.249,231.911 68.708,236.025 66.218 C 237.261 65.470,239.048 65.056,241.311 64.992 C 245.521 64.874,248.741 64.575,251.037 64.089 C 255.736 63.094,262.926 74.913,259.628 78.212 C 258.891 78.949,258.186 79.826,258.061 80.161 C 257.789 80.891,250.768 84.589,249.619 84.608 C 249.175 84.614,248.718 84.899,248.605 85.240 C 248.318 86.099,257.268 90.598,259.263 90.598 C 260.798 90.598,262.678 91.839,262.678 92.852 C 262.678 93.106,263.191 93.448,263.818 93.612 C 264.525 93.797,264.957 94.390,264.957 95.175 C 264.957 96.563,268.139 96.462,269.014 95.046 C 269.532 94.208,271.118 93.952,271.541 94.638 C 271.963 95.319,274.447 95.302,275.742 94.609 C 276.916 93.981,279.612 93.444,282.906 93.183 C 284.160 93.084,285.907 92.718,286.789 92.370 C 291.464 90.527,292.675 96.386,288.022 98.332 C 286.500 98.968,286.312 99.303,286.403 101.228 C 286.556 104.485,285.829 105.413,283.123 105.413 C 280.430 105.413,280.319 106.539,282.945 107.215 C 285.772 107.942,292.919 108.656,293.178 108.236 C 293.413 107.857,296.042 107.112,298.148 106.829 C 298.697 106.755,299.274 106.631,299.430 106.553 C 299.587 106.474,299.926 106.378,300.183 106.339 C 300.441 106.300,301.100 105.819,301.648 105.271 C 302.197 104.722,302.989 104.274,303.409 104.274 C 304.450 104.274,307.123 101.009,307.123 99.737 C 307.123 98.500,309.583 96.775,311.631 96.576 C 312.442 96.497,313.554 96.273,314.103 96.079 C 314.651 95.885,315.503 95.599,315.995 95.444 C 316.488 95.288,317.755 95.821,318.812 96.626 C 319.869 97.432,321.966 98.429,323.472 98.842 C 324.978 99.254,327.452 100.154,328.968 100.842 C 332.518 102.452,336.304 101.382,340.465 97.594 C 342.032 96.167,354.339 88.319,355.009 88.319 C 355.310 88.319,355.556 88.127,355.557 87.892 C 355.557 87.657,356.698 86.744,358.091 85.864 C 359.485 84.983,361.446 83.317,362.449 82.160 C 363.452 81.003,365.518 78.695,367.040 77.030 C 370.540 73.202,370.998 72.287,373.159 64.797 C 375.178 57.801,377.982 51.935,380.734 48.950 C 381.772 47.824,383.246 45.729,384.009 44.295 C 384.772 42.860,385.843 41.095,386.387 40.373 L 387.378 39.059 387.738 40.492 C 387.936 41.280,387.785 42.684,387.404 43.612 C 387.023 44.540,386.758 45.510,386.816 45.767 C 386.874 46.024,386.433 46.665,385.835 47.191 C 385.238 47.718,384.142 49.302,383.400 50.712 C 382.658 52.123,381.751 53.470,381.383 53.707 C 379.679 54.807,378.385 58.173,377.577 63.608 C 376.902 68.151,376.225 70.363,374.399 73.994 C 373.124 76.531,372.080 78.997,372.080 79.475 C 372.080 80.956,373.716 80.428,374.635 78.649 C 376.448 75.143,379.141 75.062,378.621 78.529 C 378.449 79.683,378.159 82.678,377.977 85.185 L 377.647 89.744 379.564 87.978 C 383.214 84.616,386.790 83.276,388.241 84.727 C 388.459 84.945,389.036 85.182,389.525 85.254 C 390.013 85.325,391.352 86.025,392.500 86.809 C 395.602 88.927,396.722 88.948,397.159 86.895 C 397.625 84.708,398.743 82.621,399.450 82.621 C 399.798 82.621,400.000 67.467,400.000 41.311 L 400.000 0.000 199.997 -0.000 L -0.007 -0.000 0.003 90.791 M375.667 79.060 C 374.361 81.113,373.819 81.462,371.923 81.473 C 370.022 81.483,369.229 83.135,369.008 87.542 C 368.756 92.553,361.896 95.524,357.173 92.669 C 356.451 92.233,355.747 92.461,354.219 93.626 C 353.116 94.468,351.971 95.157,351.675 95.157 C 351.379 95.157,350.820 95.538,350.433 96.005 C 350.045 96.472,349.501 96.713,349.223 96.541 C 348.945 96.370,348.718 96.475,348.718 96.777 C 348.718 97.078,347.885 97.615,346.867 97.970 C 345.850 98.324,344.504 99.199,343.876 99.914 C 343.248 100.629,341.584 101.841,340.177 102.609 C 338.771 103.376,337.528 104.480,337.416 105.061 C 337.295 105.688,337.455 105.968,337.808 105.750 C 338.664 105.221,339.708 107.357,338.960 108.105 C 336.749 110.317,337.595 113.871,340.547 114.770 C 341.224 114.976,342.195 115.780,342.704 116.556 C 343.454 117.701,343.834 117.858,344.711 117.389 C 346.258 116.561,347.578 116.673,347.578 117.633 C 347.578 120.639,357.741 117.604,362.663 113.128 C 364.045 111.870,366.152 110.713,368.073 110.154 C 370.135 109.555,371.712 108.656,372.647 107.546 C 373.432 106.615,374.879 105.017,375.863 103.995 C 378.256 101.509,378.806 97.764,377.458 93.127 C 376.502 89.837,376.547 82.253,377.543 78.775 C 378.060 76.970,376.883 77.149,375.667 79.060 M362.821 86.240 C 357.255 91.528,357.191 92.021,362.108 91.772 C 365.791 91.585,366.844 90.726,367.548 87.336 C 368.736 81.612,367.896 81.417,362.821 86.240 M240.316 87.652 C 239.893 89.269,241.255 90.684,243.044 90.486 C 244.763 90.296,246.763 92.859,246.298 94.656 C 245.716 96.905,253.016 96.518,254.522 94.220 C 255.482 92.755,254.798 91.168,253.207 91.168 C 252.775 91.168,252.422 90.959,252.422 90.702 C 252.422 90.238,247.330 88.457,244.577 87.958 C 243.780 87.813,242.672 87.451,242.115 87.152 C 240.744 86.419,240.630 86.451,240.316 87.652 M383.391 87.823 C 381.165 88.638,380.438 90.963,380.881 95.849 C 381.087 98.132,381.245 100.817,381.230 101.814 C 381.199 103.890,382.128 104.395,386.325 104.589 C 387.735 104.654,389.449 104.891,390.133 105.117 C 391.353 105.518,391.381 105.407,391.558 99.486 C 391.657 96.163,391.525 93.445,391.265 93.446 C 391.005 93.447,390.957 92.700,391.157 91.787 C 391.455 90.433,391.305 90.058,390.348 89.755 C 389.702 89.550,389.174 89.184,389.174 88.942 C 389.174 87.625,385.743 86.961,383.391 87.823 M398.291 90.693 C 397.507 90.917,395.969 91.317,394.872 91.581 C 392.547 92.140,392.171 93.579,392.494 100.688 C 392.660 104.326,392.822 104.837,393.919 105.169 C 394.600 105.375,395.739 106.077,396.451 106.729 C 399.666 109.673,400.104 108.558,399.879 97.991 L 399.715 90.284 398.291 90.693 M258.689 93.381 C 258.689 94.073,259.195 94.551,260.114 94.726 C 261.540 94.999,262.048 94.399,260.959 93.726 C 260.641 93.530,260.528 93.130,260.708 92.838 C 260.888 92.546,260.508 92.308,259.863 92.308 C 259.094 92.308,258.689 92.677,258.689 93.381 M238.550 96.769 C 237.259 98.195,237.367 98.657,238.902 98.272 C 239.615 98.093,240.809 98.173,241.557 98.450 C 243.393 99.129,245.584 98.644,245.584 97.559 C 245.584 97.074,245.423 96.837,245.227 97.033 C 245.030 97.230,244.146 97.016,243.261 96.558 C 241.111 95.447,239.689 95.510,238.550 96.769 M263.547 96.842 C 263.343 97.173,263.588 97.602,264.091 97.795 C 265.345 98.276,265.734 97.748,264.737 96.920 C 264.175 96.454,263.803 96.429,263.547 96.842 M311.111 98.576 C 310.244 99.136,310.267 99.145,312.536 99.145 C 312.692 99.145,312.840 98.959,312.863 98.732 C 312.933 98.062,312.031 97.982,311.111 98.576 M318.240 103.124 C 318.087 103.372,318.343 103.891,318.810 104.279 C 319.335 104.715,319.661 105.988,319.666 107.620 C 319.677 111.239,320.142 112.665,321.420 112.999 C 322.221 113.209,322.507 113.794,322.507 115.221 C 322.507 119.218,327.426 123.093,330.533 121.543 C 331.423 121.099,333.447 120.531,335.033 120.280 C 340.070 119.484,338.932 117.251,332.919 116.133 C 328.246 115.264,327.168 112.162,330.504 109.189 C 332.301 107.588,332.306 106.553,330.516 106.553 C 329.315 106.553,326.841 105.535,324.786 104.196 C 323.201 103.162,318.674 102.421,318.240 103.124 M158.131 106.050 C 157.046 107.002,155.918 107.632,155.624 107.450 C 154.505 106.758,153.348 107.863,152.993 109.964 C 152.473 113.038,151.388 114.424,150.244 113.474 C 149.300 112.691,148.148 114.023,148.148 115.900 C 148.148 118.045,144.496 123.170,143.295 122.709 C 142.878 122.550,142.227 122.999,141.847 123.709 C 141.467 124.419,140.678 125.513,140.094 126.140 C 139.509 126.767,139.031 127.488,139.031 127.743 C 139.031 128.439,134.572 128.298,133.190 127.559 C 132.171 127.013,131.798 127.125,130.805 128.271 C 127.573 132.001,124.571 133.072,122.256 131.321 C 121.647 130.861,120.796 130.484,120.363 130.484 C 119.931 130.484,119.192 130.099,118.722 129.629 C 118.203 129.110,117.348 128.904,116.548 129.105 C 115.621 129.338,114.873 129.054,114.031 128.150 C 112.727 126.750,112.330 126.830,112.173 128.525 C 111.897 131.492,112.384 133.344,113.960 135.328 C 116.006 137.902,115.999 137.824,114.387 139.607 C 113.682 140.387,113.022 141.538,112.921 142.165 C 112.555 144.422,110.373 145.993,108.561 145.304 C 107.080 144.741,106.806 144.854,105.344 146.627 C 104.187 148.032,103.113 148.667,101.446 148.933 C 98.692 149.374,98.575 150.118,100.862 152.622 C 102.773 154.715,102.710 155.198,100.428 155.982 C 98.234 156.736,95.649 155.223,95.026 152.818 C 94.679 151.478,94.220 150.987,93.289 150.959 C 92.592 150.938,91.189 150.811,90.171 150.679 C 88.140 150.414,87.639 151.433,89.174 152.707 C 89.644 153.097,90.028 153.756,90.028 154.173 C 90.028 154.589,90.452 155.166,90.969 155.455 C 91.668 155.847,91.818 156.438,91.553 157.763 C 91.251 159.271,91.367 159.544,92.309 159.544 C 93.841 159.544,95.297 161.920,94.852 163.693 C 94.451 165.291,96.201 166.952,98.287 166.952 C 100.669 166.952,105.764 173.248,104.447 174.565 C 102.458 176.554,103.380 178.549,106.262 178.494 C 107.826 178.463,109.237 178.610,109.396 178.820 C 109.556 179.030,110.531 179.505,111.562 179.874 L 113.438 180.546 113.056 177.167 C 112.810 174.997,112.882 173.789,113.256 173.789 C 113.981 173.789,114.530 175.159,114.530 176.970 C 114.530 178.368,117.281 179.129,117.450 177.778 C 117.489 177.464,117.585 176.952,117.664 176.638 C 117.742 176.325,117.838 175.931,117.877 175.763 C 117.917 175.596,118.486 175.746,119.142 176.097 C 119.927 176.517,120.238 177.109,120.050 177.827 C 119.726 179.065,120.514 179.214,122.803 178.344 C 123.633 178.028,124.611 177.954,124.976 178.180 C 125.341 178.406,126.340 178.517,127.195 178.427 C 129.429 178.193,129.987 178.706,129.251 180.320 C 128.132 182.775,129.092 184.912,130.809 183.787 C 132.484 182.689,132.965 182.905,134.152 185.284 C 135.225 187.435,135.325 188.544,134.359 187.578 C 131.907 185.126,130.968 189.053,133.364 191.738 C 134.771 193.315,135.463 197.151,134.340 197.151 C 133.883 197.151,133.046 196.638,132.479 196.011 C 130.199 193.493,128.030 194.677,130.199 197.255 C 130.983 198.186,131.624 199.398,131.624 199.949 C 131.624 201.548,132.202 201.701,133.468 200.436 C 134.544 199.360,134.706 199.338,135.328 200.189 C 135.703 200.702,136.141 200.991,136.300 200.832 C 137.057 200.075,137.931 202.484,137.992 205.491 C 138.029 207.329,138.296 209.136,138.585 209.508 C 138.911 209.928,138.872 210.629,138.481 211.360 C 137.683 212.850,134.636 212.961,133.557 211.538 C 132.854 210.613,132.798 210.632,132.782 211.798 C 132.767 212.812,133.174 213.120,134.900 213.401 C 139.399 214.131,140.942 216.140,138.484 218.066 C 137.678 218.698,133.518 218.608,132.854 217.945 C 132.704 217.794,132.223 218.182,131.785 218.807 C 131.348 219.432,129.840 220.232,128.436 220.586 C 127.031 220.940,125.990 221.336,126.121 221.468 C 126.742 222.088,131.596 221.943,132.507 221.277 C 133.253 220.731,133.726 220.699,134.277 221.157 C 135.216 221.936,134.742 222.792,133.373 222.792 C 132.805 222.792,131.731 223.688,130.985 224.782 C 129.646 226.749,128.575 227.271,127.952 226.262 C 127.335 225.263,121.937 227.845,121.937 229.138 C 121.937 229.864,124.702 229.503,126.423 228.552 C 127.606 227.898,127.917 227.948,128.924 228.955 C 130.507 230.538,129.875 232.033,127.790 231.635 C 126.776 231.441,127.277 231.856,129.192 232.794 C 132.394 234.362,139.776 235.124,141.174 234.031 C 141.967 233.411,146.402 233.827,146.948 234.573 C 147.138 234.832,147.934 235.330,148.718 235.678 C 149.501 236.027,151.399 236.897,152.935 237.613 C 155.164 238.650,155.940 238.781,156.774 238.260 C 158.280 237.319,158.255 237.298,159.878 240.883 C 161.118 243.622,161.904 244.501,164.669 246.241 C 167.225 247.850,168.067 248.733,168.373 250.128 C 168.627 251.286,169.037 251.830,169.517 251.645 C 169.957 251.477,170.541 252.028,170.939 252.989 C 171.310 253.885,171.971 254.756,172.407 254.923 C 172.843 255.091,173.057 255.601,172.882 256.058 C 172.706 256.514,172.973 257.514,173.474 258.278 C 174.285 259.516,174.290 259.746,173.523 260.383 C 173.050 260.776,172.825 261.362,173.025 261.685 C 173.546 262.527,173.868 265.796,173.383 265.311 C 173.160 265.088,172.415 263.571,171.728 261.940 C 170.732 259.577,170.178 258.938,169.000 258.794 C 168.187 258.695,167.521 258.374,167.521 258.082 C 167.521 257.358,156.894 257.403,155.531 258.133 C 152.807 259.591,153.223 261.511,157.068 265.226 C 157.935 266.064,158.210 266.856,158.005 267.929 C 157.690 269.579,157.919 269.857,163.795 274.929 C 165.610 276.496,167.870 278.483,168.817 279.345 C 169.764 280.207,170.737 280.912,170.978 280.912 C 172.415 280.912,172.972 280.166,172.801 278.474 C 172.566 276.159,173.253 275.116,175.149 274.908 C 176.529 274.756,176.638 274.908,176.638 276.973 C 176.638 279.194,176.647 279.202,178.917 279.202 C 181.241 279.202,182.150 280.424,180.342 281.118 C 179.872 281.298,179.487 281.830,179.487 282.300 C 179.487 282.781,179.822 283.027,180.251 282.862 C 181.182 282.505,182.577 284.050,182.067 284.875 C 181.865 285.202,182.135 285.470,182.667 285.470 C 183.815 285.470,185.142 287.058,185.167 288.462 C 185.177 289.010,185.437 289.459,185.745 289.459 C 187.421 289.459,191.914 295.770,192.843 299.430 C 192.922 299.744,193.304 300.769,193.691 301.709 C 194.079 302.650,194.483 304.444,194.590 305.698 C 194.697 306.952,195.058 308.691,195.391 309.564 C 195.725 310.437,195.971 311.334,195.937 311.558 C 195.393 315.200,195.990 315.480,201.487 314.164 C 203.154 313.766,203.972 317.275,202.469 318.374 C 201.931 318.767,201.348 318.874,201.173 318.612 C 200.853 318.133,197.411 316.809,196.485 316.809 C 196.052 316.809,196.376 319.287,196.944 320.315 C 197.057 320.519,198.280 320.346,199.662 319.930 C 202.459 319.089,202.849 319.243,202.849 321.195 C 202.849 323.062,204.353 323.468,205.897 322.018 C 207.576 320.441,209.820 321.701,209.663 324.132 C 209.471 327.108,209.395 327.066,214.881 327.066 C 219.990 327.066,220.070 327.087,219.732 328.348 C 219.543 329.053,219.385 331.458,219.381 333.693 L 219.373 337.756 216.907 338.378 C 214.101 339.084,211.396 340.983,211.396 342.245 C 211.396 342.864,211.045 342.990,210.114 342.708 C 208.428 342.196,208.443 342.196,207.123 342.729 C 205.524 343.375,203.419 345.359,203.419 346.220 C 203.419 347.607,204.654 347.687,206.035 346.389 C 208.097 344.452,214.245 345.336,214.245 347.569 C 214.245 347.815,214.765 348.151,215.401 348.318 C 216.037 348.484,216.508 348.834,216.449 349.096 C 216.389 349.358,216.631 350.276,216.986 351.135 C 217.341 351.994,217.478 353.098,217.290 353.588 C 216.931 354.523,218.361 356.190,220.085 356.848 C 220.641 357.061,221.083 357.817,221.083 358.558 C 221.083 360.207,222.078 361.254,223.646 361.254 C 224.426 361.254,225.328 362.041,226.239 363.517 C 227.007 364.763,227.924 365.788,228.278 365.797 C 232.246 365.891,228.480 369.953,223.510 370.938 C 218.451 371.941,218.352 371.992,216.235 374.766 C 214.219 377.406,213.657 379.485,214.957 379.490 C 216.539 379.496,221.083 377.503,221.083 376.803 C 221.083 374.426,223.104 372.574,227.758 370.687 C 232.267 368.859,234.610 369.732,233.045 372.656 C 232.665 373.366,232.666 373.838,233.047 374.073 C 233.361 374.267,233.618 374.112,233.618 373.728 C 233.618 373.344,233.773 373.184,233.963 373.374 C 234.152 373.563,235.813 372.929,237.654 371.964 C 240.381 370.534,241.157 370.340,241.849 370.914 C 242.547 371.493,242.934 371.342,244.040 370.056 L 245.383 368.495 248.026 370.044 C 250.407 371.440,251.023 373.787,249.008 373.789 C 248.849 373.790,248.718 374.751,248.718 375.926 C 248.718 378.589,249.946 380.571,251.366 380.200 C 252.086 380.012,252.565 380.346,252.909 381.274 C 253.183 382.015,253.570 382.557,253.769 382.479 C 254.722 382.104,255.272 382.489,256.407 384.325 C 257.498 386.090,257.888 386.303,259.890 386.225 C 261.429 386.165,262.686 386.538,263.857 387.403 L 265.570 388.670 267.479 387.491 C 268.529 386.842,269.704 385.930,270.091 385.463 C 271.740 383.477,275.025 386.214,273.811 388.562 C 273.037 390.059,273.067 390.191,274.309 390.757 C 276.814 391.898,280.905 397.721,279.202 397.721 C 278.889 397.721,278.632 397.492,278.632 397.212 C 278.632 396.176,276.889 396.083,275.215 397.030 C 272.994 398.286,273.250 399.527,275.884 400.268 C 278.396 400.975,278.890 401.402,278.298 402.360 C 278.051 402.759,277.782 403.714,277.700 404.483 C 277.530 406.075,276.554 406.879,275.350 406.417 C 274.899 406.244,274.312 406.453,274.047 406.881 C 273.724 407.403,271.908 407.760,268.549 407.961 L 263.533 408.262 263.533 410.256 C 263.533 411.353,263.334 412.398,263.092 412.578 C 262.849 412.757,262.614 413.876,262.570 415.063 L 262.489 417.221 259.763 416.959 C 257.328 416.725,257.018 416.825,256.866 417.893 C 256.683 419.176,252.362 419.403,249.420 418.284 C 248.720 418.018,247.892 417.743,247.578 417.673 C 247.265 417.602,245.893 416.891,244.529 416.092 C 242.677 415.006,241.345 414.663,239.269 414.737 C 237.033 414.816,236.349 414.610,235.771 413.685 C 234.931 412.339,233.618 412.159,233.618 413.390 C 233.618 414.475,232.503 414.484,230.971 413.410 C 230.316 412.951,229.652 412.703,229.497 412.858 C 229.341 413.014,228.789 412.492,228.269 411.699 C 227.368 410.323,227.073 410.256,221.924 410.256 C 216.277 410.256,215.694 409.947,217.651 407.990 C 218.271 407.370,218.638 406.499,218.467 406.053 C 218.296 405.608,218.430 405.074,218.765 404.867 C 219.884 404.175,219.390 402.806,217.667 401.825 C 216.677 401.262,215.956 400.377,215.949 399.715 C 215.930 397.944,215.278 397.441,212.916 397.376 C 210.238 397.302,207.815 395.132,207.644 392.656 C 207.506 390.664,206.952 389.605,206.269 390.027 C 205.338 390.603,205.110 388.200,205.943 386.594 C 207.388 383.810,206.023 383.170,203.542 385.470 C 200.027 388.729,199.174 386.200,202.600 382.676 C 207.428 377.708,202.571 372.688,197.226 377.121 C 194.526 379.361,194.966 382.906,197.764 381.459 C 198.681 380.985,199.430 380.741,199.430 380.917 C 199.430 381.093,199.948 380.959,200.582 380.620 C 202.278 379.713,203.139 380.517,201.891 381.844 C 199.536 384.348,198.752 384.900,197.555 384.900 C 196.683 384.900,196.240 385.295,196.114 386.182 C 195.927 387.497,193.440 387.973,191.215 387.119 C 190.109 386.694,190.024 385.755,191.091 385.755 C 192.504 385.755,194.872 383.434,194.872 382.051 C 194.872 379.466,193.418 378.764,190.816 380.091 C 189.519 380.753,188.063 381.102,187.432 380.901 C 186.554 380.623,186.323 380.824,186.316 381.870 C 186.300 384.306,185.614 384.687,181.427 384.586 C 172.571 384.372,171.532 383.404,173.547 377.244 C 174.298 374.948,174.673 374.501,175.853 374.501 C 178.184 374.501,179.089 372.664,177.409 371.342 C 176.653 370.748,175.656 370.407,175.192 370.585 C 174.379 370.897,174.099 371.417,172.659 375.292 C 172.163 376.626,171.724 377.008,170.925 376.799 C 169.880 376.526,169.880 376.483,170.940 375.012 C 172.511 372.831,173.062 370.248,171.858 370.710 C 171.353 370.904,170.940 371.388,170.940 371.786 C 170.940 372.184,170.556 372.829,170.085 373.219 C 169.363 373.819,169.231 373.701,169.231 372.457 C 169.231 371.647,168.716 370.505,168.086 369.918 C 166.947 368.857,166.953 368.841,169.287 366.460 C 171.540 364.162,171.668 364.109,172.568 365.122 C 174.998 367.857,178.348 366.251,178.348 362.351 C 178.348 359.857,177.801 359.544,173.440 359.544 C 171.205 359.544,170.243 359.305,170.007 358.689 C 169.267 356.762,166.988 358.210,166.418 360.969 C 166.207 361.989,164.487 363.567,162.618 364.454 C 160.332 365.539,159.372 367.781,159.630 371.433 C 159.777 373.525,159.657 374.121,159.171 373.717 C 156.734 371.691,159.009 364.628,162.650 362.916 C 164.565 362.016,165.362 361.213,166.052 359.491 C 167.485 355.908,167.322 355.569,164.103 355.449 C 157.656 355.207,158.120 355.067,158.120 357.256 C 158.120 358.566,157.829 359.297,157.265 359.406 C 155.775 359.696,156.227 355.992,157.959 353.721 C 161.477 349.109,155.431 341.287,150.371 343.904 C 148.727 344.754,148.575 344.723,146.330 343.072 C 143.909 341.292,142.420 341.361,141.680 343.289 C 141.497 343.768,140.962 344.160,140.492 344.160 C 139.966 344.160,139.763 343.830,139.965 343.305 C 140.213 342.659,139.863 342.450,138.533 342.450 C 135.904 342.450,132.496 338.978,132.665 336.472 C 132.832 333.994,131.745 333.648,128.193 335.048 C 125.367 336.161,125.356 336.161,125.356 335.034 C 125.356 333.987,124.963 333.903,120.049 333.903 L 114.741 333.903 113.799 331.927 C 113.281 330.841,111.823 329.299,110.559 328.501 C 107.885 326.813,107.912 326.911,109.438 324.442 L 110.614 322.539 112.921 324.066 C 115.158 325.546,115.251 325.559,116.018 324.510 C 117.202 322.892,116.989 322.150,115.119 321.375 C 112.665 320.359,112.120 319.506,112.794 317.733 C 113.336 316.309,113.275 316.239,111.491 316.239 C 110.462 316.239,109.134 315.885,108.542 315.451 C 107.760 314.880,107.203 314.826,106.514 315.256 C 105.991 315.582,105.127 315.681,104.592 315.476 C 103.241 314.958,103.727 313.144,105.276 312.923 C 107.034 312.673,106.878 311.329,104.986 310.425 C 102.824 309.392,102.571 307.286,104.548 306.789 C 105.366 306.584,106.195 306.575,106.390 306.770 C 107.311 307.691,108.708 302.868,107.896 301.567 C 107.166 300.396,107.196 300.285,108.249 300.285 C 108.894 300.285,109.402 299.908,109.402 299.430 C 109.402 298.898,108.864 298.575,107.977 298.575 C 106.924 298.575,106.553 298.273,106.553 297.416 C 106.553 296.446,106.372 296.353,105.451 296.846 C 104.061 297.590,101.994 297.612,101.994 296.884 C 101.994 296.580,102.394 296.486,102.883 296.673 C 103.477 296.901,103.877 296.611,104.089 295.801 C 104.301 294.990,104.858 294.587,105.764 294.587 C 106.743 294.587,107.123 294.268,107.123 293.447 C 107.123 292.694,106.743 292.308,106.003 292.308 C 104.528 292.308,103.796 290.825,103.432 287.100 C 103.268 285.420,102.876 282.778,102.561 281.229 C 101.701 277.004,102.113 276.294,105.314 276.482 C 107.621 276.617,107.954 276.499,107.800 275.599 C 107.703 275.027,107.905 274.220,108.249 273.805 C 108.725 273.231,108.537 272.785,107.459 271.937 C 106.394 271.099,106.205 270.661,106.697 270.169 C 107.650 269.216,108.709 269.370,109.072 270.514 C 109.565 272.067,113.288 273.050,113.955 271.804 C 114.286 271.186,114.256 270.609,113.873 270.226 C 113.447 269.800,113.707 269.334,114.754 268.648 C 115.571 268.113,116.239 267.439,116.239 267.151 C 116.239 266.500,111.412 264.387,109.924 264.387 C 108.363 264.387,108.547 262.687,110.114 262.638 C 111.337 262.600,111.344 262.576,110.256 262.108 C 109.169 261.641,109.176 261.617,110.399 261.579 C 111.104 261.556,111.673 261.218,111.663 260.826 C 111.643 260.046,109.972 257.614,109.972 258.365 C 109.972 258.620,109.585 258.508,109.112 258.116 C 108.587 257.680,107.472 257.529,106.250 257.727 C 105.063 257.920,104.383 257.834,104.579 257.516 C 104.761 257.221,105.793 256.980,106.871 256.980 C 108.234 256.980,108.832 256.719,108.832 256.125 C 108.832 255.655,108.420 255.271,107.916 255.271 C 107.345 255.271,107.121 254.956,107.322 254.434 C 107.498 253.974,107.387 253.440,107.074 253.247 C 106.762 253.054,106.656 252.423,106.839 251.846 C 107.044 251.203,106.819 250.599,106.257 250.285 C 105.247 249.719,104.654 245.199,105.520 244.663 C 105.812 244.483,105.738 243.981,105.351 243.515 C 104.913 242.988,104.862 242.489,105.209 242.142 C 106.197 241.154,105.345 237.819,103.600 235.840 C 102.660 234.775,101.503 233.014,101.029 231.927 C 100.029 229.637,98.037 227.374,97.009 227.360 C 96.617 227.355,96.296 227.063,96.296 226.711 C 96.296 226.265,96.081 226.250,95.584 226.661 C 95.192 226.985,94.231 227.267,93.447 227.287 C 91.953 227.326,86.325 227.824,86.325 227.916 C 86.325 227.946,84.915 228.082,83.191 228.218 C 81.467 228.354,78.586 228.582,76.787 228.724 C 74.264 228.923,73.407 228.785,73.035 228.120 C 71.727 225.782,69.450 227.444,67.845 231.909 C 66.087 236.795,64.197 238.272,60.360 237.757 C 58.564 237.516,58.016 237.748,56.281 239.484 C 54.030 241.735,54.020 241.879,55.520 250.712 C 55.972 253.376,56.478 258.248,56.642 261.538 C 56.807 264.829,57.082 268.291,57.252 269.231 C 57.422 270.171,57.638 271.847,57.732 272.955 C 57.825 274.064,58.105 275.299,58.353 275.700 C 58.601 276.101,58.652 276.581,58.467 276.766 C 58.281 276.951,58.369 277.391,58.661 277.743 C 58.953 278.095,59.312 279.016,59.458 279.790 C 59.604 280.564,60.001 281.909,60.339 282.780 C 60.677 283.651,60.956 284.933,60.959 285.629 C 60.963 286.325,61.196 289.001,61.479 291.574 C 62.122 297.442,62.204 317.253,61.586 317.634 C 61.334 317.790,61.246 319.480,61.392 321.389 C 61.606 324.197,61.472 324.994,60.692 325.565 C 60.161 325.953,59.781 326.641,59.846 327.095 C 60.206 329.608,58.271 331.827,56.178 331.301 C 54.258 330.819,52.278 332.550,53.151 333.947 C 53.599 334.665,53.621 336.134,53.225 338.995 C 52.746 342.461,52.811 343.327,53.684 345.122 C 54.967 347.759,54.997 352.353,53.765 357.432 C 53.017 360.512,52.955 361.735,53.460 363.421 C 53.810 364.587,53.957 366.069,53.788 366.716 C 53.428 368.091,56.942 374.447,59.276 376.643 C 60.368 377.671,60.684 378.389,60.400 379.198 C 59.727 381.118,60.334 382.386,61.560 381.621 C 62.134 381.262,62.466 380.744,62.297 380.471 C 61.012 378.392,67.737 376.341,69.630 378.234 C 70.006 378.610,70.735 378.917,71.250 378.917 C 72.698 378.917,74.971 381.196,76.591 384.271 C 77.399 385.805,78.349 387.407,78.701 387.832 C 79.053 388.257,79.176 388.604,78.974 388.604 C 78.772 388.604,78.982 389.181,79.441 389.886 C 79.900 390.591,80.401 391.869,80.554 392.726 C 80.707 393.582,80.967 394.500,81.131 394.765 C 81.294 395.030,81.474 398.874,81.531 403.307 L 81.633 411.367 83.586 414.333 C 84.661 415.964,85.692 418.086,85.878 419.048 C 86.064 420.011,86.690 421.409,87.268 422.157 C 87.846 422.904,88.319 424.082,88.319 424.775 C 88.319 428.180,75.347 427.920,245.203 427.920 L 400.002 427.920 399.859 270.575 C 399.717 115.652,399.698 113.220,398.612 112.598 C 398.006 112.250,396.980 111.453,396.333 110.826 C 394.649 109.195,393.802 109.194,393.060 110.823 C 392.331 112.424,391.453 112.717,391.453 111.359 C 391.453 110.869,390.684 109.820,389.744 109.029 C 388.803 108.238,388.034 107.284,388.034 106.908 C 388.034 106.533,387.457 106.186,386.752 106.138 C 386.047 106.090,384.501 105.735,383.316 105.350 C 380.830 104.542,377.667 105.651,376.091 107.885 C 375.247 109.081,375.150 109.318,375.000 110.559 C 374.872 111.618,369.065 116.852,368.140 116.741 C 367.643 116.682,366.724 116.820,366.097 117.048 C 362.620 118.309,362.377 119.371,365.188 121.012 L 367.129 122.146 369.290 120.902 C 372.329 119.153,377.075 119.848,375.831 121.860 C 375.638 122.173,376.044 122.824,376.734 123.308 C 378.401 124.475,378.725 126.496,377.246 126.496 C 376.644 126.496,375.668 127.110,375.077 127.862 C 374.005 129.224,371.385 129.386,370.613 128.137 C 369.966 127.090,369.231 127.700,369.231 129.284 C 369.231 130.286,368.864 131.073,368.296 131.291 C 367.162 131.726,365.242 131.186,365.242 130.432 C 365.242 130.132,364.601 129.643,363.818 129.345 C 363.034 129.047,362.393 128.571,362.393 128.288 C 362.393 128.005,361.633 127.459,360.704 127.074 C 359.775 126.689,359.046 126.209,359.085 126.008 C 359.396 124.382,358.149 123.781,354.239 123.676 C 351.986 123.616,349.501 123.532,348.718 123.490 C 347.934 123.449,346.396 123.895,345.299 124.482 C 344.110 125.117,342.154 125.547,340.456 125.546 C 335.276 125.542,329.915 125.085,329.915 124.647 C 329.915 124.410,329.722 124.247,329.487 124.284 C 329.252 124.321,328.932 124.303,328.775 124.245 C 328.618 124.186,327.721 124.039,326.781 123.917 C 325.840 123.796,324.630 123.153,324.090 122.489 C 323.434 121.681,322.742 121.397,322.001 121.632 C 321.392 121.825,320.736 121.728,320.543 121.416 C 320.349 121.103,319.841 120.982,319.413 121.146 C 318.984 121.311,318.471 121.183,318.273 120.861 C 318.075 120.540,317.538 120.421,317.081 120.597 C 316.623 120.772,315.340 120.380,314.230 119.725 C 313.120 119.070,311.387 118.485,310.379 118.425 C 309.371 118.366,308.226 118.074,307.835 117.778 C 307.443 117.482,307.123 117.393,307.123 117.580 C 307.123 117.767,306.417 117.649,305.556 117.317 C 304.694 116.986,302.973 116.538,301.732 116.322 C 299.962 116.015,299.405 115.629,299.145 114.528 C 298.800 113.069,297.963 112.948,287.571 112.858 C 286.690 112.850,285.675 112.662,285.316 112.441 C 284.957 112.219,284.140 111.978,283.500 111.907 C 282.860 111.835,281.695 111.529,280.912 111.227 C 280.128 110.925,279.292 110.652,279.054 110.621 C 278.816 110.590,277.918 110.230,277.060 109.822 C 276.013 109.324,273.341 109.113,268.946 109.180 C 262.921 109.272,262.232 109.172,260.399 107.940 C 259.302 107.202,257.892 106.634,257.265 106.676 C 255.893 106.769,251.801 106.019,251.008 105.528 C 249.005 104.291,242.189 104.788,238.426 106.445 C 234.819 108.034,234.428 108.095,232.399 107.379 C 231.166 106.944,230.092 106.836,229.911 107.128 C 229.736 107.411,229.200 107.492,228.720 107.308 C 228.198 107.107,227.506 107.461,226.997 108.187 C 226.362 109.093,225.549 109.402,223.794 109.402 C 222.284 109.402,221.020 109.787,220.265 110.477 C 219.618 111.068,217.550 111.984,215.670 112.512 C 211.958 113.554,209.519 114.978,205.983 118.170 C 204.729 119.301,203.349 120.227,202.916 120.227 C 202.483 120.228,201.278 120.754,200.237 121.397 C 198.146 122.689,194.599 122.244,193.159 120.509 C 192.771 120.041,192.148 119.658,191.775 119.658 C 191.402 119.658,190.359 118.889,189.459 117.949 C 188.558 117.009,188.005 116.239,188.230 116.239 C 190.430 116.239,183.313 108.473,180.342 107.632 C 179.088 107.278,176.524 106.525,174.644 105.961 C 172.764 105.396,168.722 104.796,165.663 104.627 L 160.102 104.319 158.131 106.050 M311.254 106.005 C 309.642 107.995,309.652 108.364,311.372 110.408 C 312.142 111.324,313.231 113.459,313.793 115.153 C 314.581 117.530,315.108 118.275,316.097 118.416 C 317.576 118.626,317.656 118.219,316.524 116.239 C 316.076 115.456,315.699 114.302,315.686 113.675 C 315.673 113.048,315.270 111.783,314.791 110.864 C 314.311 109.944,314.045 108.863,314.199 108.460 C 314.354 108.058,314.235 107.577,313.935 107.392 C 313.636 107.207,313.390 106.573,313.390 105.983 C 313.390 104.285,312.640 104.293,311.254 106.005 M306.699 111.087 C 305.682 111.334,304.505 111.822,304.082 112.173 C 303.660 112.524,303.177 112.674,303.009 112.506 C 302.842 112.339,302.559 112.580,302.382 113.044 C 301.583 115.126,309.724 117.725,311.911 116.085 C 312.978 115.285,312.978 115.234,311.911 113.049 C 310.751 110.672,309.832 110.326,306.699 111.087 M114.925 182.198 C 114.027 182.402,114.101 182.610,115.494 183.808 C 117.936 185.908,118.877 185.477,116.939 183.147 C 116.391 182.489,115.498 182.068,114.925 182.198 M86.031 197.737 C 85.691 198.372,85.169 198.742,84.872 198.558 C 84.574 198.374,84.330 198.542,84.330 198.932 C 84.330 199.323,83.836 200.171,83.232 200.818 C 82.003 202.134,82.360 202.987,84.861 204.711 C 85.892 205.421,86.441 205.505,87.003 205.038 C 87.419 204.693,88.631 204.552,89.696 204.725 L 91.634 205.040 91.474 202.662 C 91.387 201.355,91.282 199.964,91.242 199.573 C 90.987 197.111,87.099 195.741,86.031 197.737 M108.518 216.774 C 107.682 218.049,107.731 218.345,109.288 221.461 C 110.203 223.290,110.823 225.149,110.668 225.591 C 110.342 226.517,112.009 227.920,113.433 227.920 C 114.017 227.920,114.508 227.341,114.678 226.452 C 114.927 225.149,114.809 225.021,113.627 225.317 C 111.394 225.878,110.802 223.864,112.804 222.518 L 114.411 221.438 113.242 219.032 C 111.684 215.825,109.746 214.899,108.518 216.774 M126.458 233.191 C 125.827 235.568,126.218 240.456,127.039 240.456 C 127.574 240.456,129.273 241.096,130.815 241.878 C 134.087 243.538,134.473 243.598,134.473 242.450 C 134.473 241.829,135.113 241.595,136.819 241.595 C 139.252 241.595,139.337 241.766,138.241 244.444 C 137.892 245.297,140.072 246.724,141.723 246.724 C 142.139 246.724,142.722 247.365,143.020 248.148 C 143.318 248.932,143.917 249.573,144.351 249.573 C 144.887 249.573,145.053 249.113,144.869 248.148 C 144.484 246.133,145.371 246.374,148.104 249.026 C 150.164 251.025,151.848 252.082,153.415 252.360 C 153.648 252.402,155.315 253.181,157.119 254.093 C 162.567 256.846,164.183 256.904,166.233 254.417 C 169.326 250.664,165.457 245.809,156.553 242.271 C 155.377 241.805,154.416 241.210,154.416 240.951 C 154.416 240.691,153.326 239.932,151.994 239.264 C 150.662 238.595,149.050 237.571,148.412 236.987 C 147.555 236.205,146.437 235.942,144.139 235.985 C 134.888 236.156,133.369 235.997,130.144 234.521 C 126.972 233.069,126.532 232.910,126.458 233.191 M157.353 240.201 C 157.461 240.759,157.895 241.331,158.317 241.471 C 158.807 241.635,159.012 241.361,158.886 240.711 C 158.778 240.153,158.344 239.581,157.923 239.440 C 157.432 239.277,157.227 239.551,157.353 240.201 M242.105 399.490 L 240.906 400.690 242.223 401.347 C 242.948 401.708,243.691 402.642,243.876 403.423 C 244.413 405.699,246.933 405.411,247.124 403.053 C 247.419 399.424,244.350 397.245,242.105 399.490 " stroke="none" fill="#000000" fill-rule="evenodd"></path></g></svg>