<svg id="svg" version="1.1" xmlns="http://www.w3.org/2000/svg" xmlns:xlink="http://www.w3.org/1999/xlink" width="400" height="427.9202279202279" viewBox="0, 0, 400,427.9202279202279"><g id="svgg"><path id="path0" d="M140.723 18.200 C 137.483 19.184,133.905 22.174,133.904 23.897 C 133.903 24.349,134.209 26.197,134.582 28.005 C 135.179 30.895,135.145 31.421,134.304 32.351 C 133.777 32.933,132.956 34.418,132.480 35.650 L 131.614 37.892 131.819 34.912 C 131.994 32.368,131.864 31.881,130.926 31.583 C 130.323 31.392,129.967 31.096,130.136 30.927 C 130.306 30.758,130.170 30.107,129.834 29.480 C 129.205 28.304,126.569 30.379,126.456 32.140 C 126.434 32.483,126.223 32.272,125.988 31.672 C 125.753 31.072,125.194 30.518,124.746 30.441 C 123.151 30.168,117.356 28.543,116.843 28.226 C 115.595 27.455,115.597 30.333,116.845 31.662 L 118.128 33.028 116.614 34.219 C 115.153 35.369,114.608 37.236,115.562 37.825 C 116.051 38.127,115.991 42.604,115.491 43.104 C 115.329 43.265,114.702 43.132,114.096 42.808 C 112.886 42.160,111.681 42.912,111.681 44.314 C 111.681 45.145,113.377 47.131,113.409 46.337 C 113.420 46.080,113.884 46.414,114.441 47.080 C 114.997 47.747,116.269 48.714,117.267 49.230 C 119.409 50.338,118.831 52.238,116.261 52.538 C 114.968 52.689,114.796 52.994,114.641 55.413 C 114.546 56.902,114.210 58.120,113.896 58.120 C 113.577 58.120,113.402 59.183,113.500 60.534 C 113.686 63.095,115.765 64.810,119.838 65.762 L 121.443 66.138 121.317 61.806 C 121.193 57.556,121.222 57.455,122.886 56.443 L 124.582 55.412 124.542 58.088 C 124.515 59.879,124.819 61.081,125.461 61.724 C 125.989 62.253,126.597 63.260,126.813 63.963 C 127.612 66.572,128.219 66.792,130.277 65.222 C 132.023 63.890,132.460 63.866,132.258 65.110 C 132.219 65.351,132.801 65.828,133.552 66.170 C 134.303 66.512,135.196 67.405,135.537 68.154 C 135.879 68.903,136.426 69.516,136.754 69.516 C 137.082 69.516,137.594 70.157,137.892 70.940 C 138.190 71.724,138.888 72.404,139.445 72.451 C 141.282 72.609,141.580 72.701,143.447 73.691 C 144.466 74.231,145.299 75.011,145.299 75.425 C 145.299 75.838,145.959 76.921,146.765 77.832 C 147.571 78.742,149.226 81.026,150.442 82.906 C 151.659 84.786,153.371 87.340,154.247 88.581 C 157.777 93.578,158.525 95.292,157.782 96.679 C 157.403 97.387,156.896 97.845,156.655 97.696 C 156.414 97.547,155.876 97.763,155.459 98.175 C 152.529 101.071,148.375 100.808,147.949 97.700 C 147.655 95.554,144.479 89.435,143.081 88.319 C 142.885 88.162,142.220 87.073,141.603 85.897 C 140.986 84.722,140.283 83.761,140.041 83.761 C 139.799 83.761,139.601 83.386,139.601 82.929 C 139.601 81.614,131.094 73.611,127.635 71.671 C 125.912 70.705,123.732 69.361,122.792 68.685 C 121.852 68.009,119.801 66.980,118.234 66.397 C 116.667 65.814,114.459 64.729,113.327 63.985 C 111.411 62.725,98.268 56.980,97.301 56.980 C 97.062 56.980,96.866 57.575,96.866 58.301 C 96.866 63.626,93.709 68.084,86.150 73.434 C 84.260 74.772,83.073 74.736,84.199 73.376 C 84.660 72.818,84.420 72.636,83.165 72.590 C 81.764 72.539,81.608 72.677,82.076 73.550 C 82.376 74.110,82.621 74.714,82.621 74.891 C 82.621 75.439,79.290 75.246,78.939 74.679 C 78.551 74.050,77.559 74.218,74.074 75.502 C 72.664 76.021,70.997 76.512,70.370 76.593 C 69.744 76.674,67.923 77.076,66.325 77.487 C 64.042 78.074,63.005 78.089,61.482 77.559 C 59.714 76.942,59.624 76.962,60.448 77.786 C 60.945 78.283,61.937 78.733,62.654 78.787 C 66.157 79.051,67.902 97.769,64.925 103.146 C 64.495 103.923,64.134 104.729,64.123 104.938 C 64.112 105.147,63.910 105.510,63.675 105.745 C 63.440 105.981,63.248 106.890,63.248 107.766 C 63.248 108.642,62.728 110.748,62.093 112.446 C 61.269 114.648,60.983 116.598,61.096 119.245 C 61.221 122.192,61.039 123.194,60.213 124.107 C 59.185 125.243,59.210 125.265,62.268 125.900 C 64.017 126.263,66.154 127.197,67.178 128.046 C 68.176 128.873,70.328 130.014,71.961 130.582 C 73.593 131.150,75.185 132.040,75.499 132.561 C 75.812 133.081,76.549 133.917,77.137 134.417 C 81.220 137.894,81.923 139.779,79.717 141.327 C 79.060 141.788,78.099 142.468,77.581 142.839 C 76.809 143.390,76.359 143.247,75.097 142.044 C 73.144 140.185,71.159 141.177,70.054 144.567 C 69.187 147.224,68.706 147.559,65.739 147.570 C 62.801 147.581,61.443 148.863,63.205 149.963 C 64.129 150.540,64.387 151.286,64.387 153.380 C 64.387 154.853,64.633 156.210,64.932 156.395 C 65.232 156.580,65.345 157.077,65.183 157.500 C 65.018 157.929,65.712 158.913,66.756 159.730 L 68.625 161.192 66.951 162.631 C 65.418 163.948,62.678 164.454,62.678 163.420 C 62.678 163.181,61.620 162.446,60.327 161.787 L 57.976 160.587 58.322 162.487 C 58.513 163.532,58.780 165.267,58.917 166.342 C 59.221 168.735,62.589 171.850,65.500 172.428 C 67.486 172.824,68.116 173.197,70.087 175.150 C 71.079 176.134,71.100 176.367,70.332 177.852 C 69.553 179.359,69.579 179.551,70.691 180.480 C 71.351 181.031,72.574 182.058,73.410 182.763 C 74.245 183.468,75.218 184.045,75.571 184.045 C 75.925 184.045,76.533 184.430,76.923 184.900 C 77.313 185.370,78.370 185.755,79.272 185.755 C 80.174 185.755,80.912 186.011,80.912 186.323 C 80.912 186.636,81.824 187.901,82.938 189.135 C 84.926 191.335,84.942 191.390,83.763 192.021 C 82.990 192.435,82.623 193.108,82.734 193.911 C 82.846 194.719,82.635 195.100,82.134 194.994 C 81.709 194.905,81.068 195.061,80.709 195.341 C 79.580 196.224,76.353 196.625,76.353 195.883 C 76.353 195.379,76.192 195.375,75.698 195.869 C 75.205 196.362,75.269 196.987,75.957 198.404 C 77.033 200.618,76.348 201.140,74.556 199.471 C 73.860 198.822,73.120 198.291,72.914 198.291 C 71.782 198.291,70.489 193.683,71.231 192.296 C 71.984 190.890,70.369 188.034,68.822 188.034 C 68.334 188.034,67.527 187.456,65.589 185.715 C 64.826 185.030,64.287 184.957,63.285 185.404 C 62.250 185.866,61.829 185.784,61.263 185.010 C 59.803 183.013,59.052 185.318,60.345 187.833 C 62.713 192.443,62.235 194.996,59.557 192.037 C 58.997 191.419,58.088 190.769,57.536 190.594 C 56.985 190.419,56.406 189.788,56.250 189.192 C 56.054 188.441,55.620 188.198,54.841 188.402 C 54.074 188.603,53.330 188.205,52.499 187.149 C 51.615 186.024,51.282 185.858,51.282 186.541 C 51.282 187.758,52.478 189.885,53.537 190.551 C 53.994 190.838,55.026 191.792,55.829 192.672 C 56.633 193.552,58.310 194.624,59.557 195.053 C 61.196 195.619,61.877 196.201,62.018 197.155 C 62.253 198.759,63.409 200.000,64.665 200.000 C 65.176 200.000,65.440 200.249,65.252 200.553 C 65.064 200.857,65.626 201.277,66.501 201.486 C 69.079 202.103,69.406 202.615,68.915 205.276 C 68.547 207.269,68.710 208.175,69.847 210.446 C 71.508 213.764,71.658 215.862,70.228 215.749 C 69.529 215.693,69.175 216.159,69.044 217.304 C 68.872 218.811,68.710 218.914,66.966 218.631 C 65.614 218.412,64.760 218.617,63.971 219.352 C 62.289 220.920,59.460 221.365,58.335 220.240 C 57.822 219.727,57.060 219.439,56.640 219.600 C 56.220 219.761,55.725 219.648,55.540 219.348 C 54.815 218.174,52.375 218.838,50.757 220.649 C 48.920 222.705,46.724 221.876,46.724 219.127 C 46.724 217.831,45.220 216.283,42.962 215.254 C 42.195 214.905,41.418 214.022,41.235 213.293 C 41.052 212.563,40.708 211.966,40.472 211.966 C 40.235 211.966,39.310 210.876,38.416 209.544 C 36.296 206.385,35.249 205.361,33.606 204.839 C 32.864 204.604,31.811 203.868,31.265 203.203 C 30.344 202.081,30.205 202.061,29.320 202.930 C 28.188 204.044,27.538 203.549,24.650 199.375 C 21.580 194.940,18.042 192.760,15.109 193.496 C 14.253 193.711,13.716 193.520,13.485 192.920 C 13.296 192.426,12.684 192.016,12.126 192.007 C 11.568 191.999,10.520 191.033,9.798 189.860 C 9.076 188.688,7.551 187.092,6.409 186.315 C 5.268 185.537,3.558 184.195,2.610 183.333 C 1.661 182.472,0.686 181.766,0.443 181.766 C 0.199 181.766,0.000 237.151,0.000 304.843 L 0.000 427.920 45.103 427.920 C 88.761 427.920,90.175 427.887,89.262 426.878 C 88.743 426.305,88.319 425.314,88.319 424.676 C 88.319 424.038,87.846 422.904,87.268 422.157 C 86.690 421.409,86.064 420.011,85.878 419.048 C 85.692 418.086,84.661 415.964,83.586 414.333 L 81.633 411.367 81.531 403.307 C 81.474 398.874,81.294 395.030,81.131 394.765 C 80.967 394.500,80.707 393.582,80.554 392.726 C 80.401 391.869,79.900 390.591,79.441 389.886 C 78.982 389.181,78.772 388.604,78.974 388.604 C 79.176 388.604,79.053 388.257,78.701 387.832 C 78.349 387.407,77.399 385.805,76.591 384.271 C 74.971 381.196,72.698 378.917,71.250 378.917 C 70.735 378.917,70.006 378.610,69.630 378.234 C 67.737 376.341,61.012 378.392,62.297 380.471 C 62.466 380.744,62.134 381.262,61.560 381.621 C 60.334 382.386,59.727 381.118,60.400 379.198 C 60.684 378.389,60.368 377.671,59.276 376.643 C 56.942 374.447,53.428 368.091,53.788 366.716 C 53.957 366.069,53.810 364.587,53.460 363.421 C 52.955 361.735,53.017 360.512,53.765 357.432 C 54.997 352.353,54.967 347.759,53.684 345.122 C 52.811 343.327,52.746 342.461,53.225 338.995 C 53.621 336.134,53.599 334.665,53.151 333.947 C 52.278 332.550,54.258 330.819,56.178 331.301 C 58.271 331.827,60.206 329.608,59.846 327.095 C 59.781 326.641,60.161 325.953,60.692 325.565 C 61.472 324.994,61.606 324.197,61.392 321.389 C 61.246 319.480,61.334 317.790,61.586 317.634 C 62.204 317.253,62.122 297.442,61.479 291.574 C 61.196 289.001,60.963 286.325,60.959 285.629 C 60.956 284.933,60.677 283.651,60.339 282.780 C 60.001 281.909,59.604 280.564,59.458 279.790 C 59.312 279.016,58.953 278.095,58.661 277.743 C 58.369 277.391,58.281 276.951,58.467 276.766 C 58.652 276.581,58.601 276.101,58.353 275.700 C 58.105 275.299,57.825 274.064,57.732 272.955 C 57.638 271.847,57.422 270.171,57.252 269.231 C 57.082 268.291,56.807 264.829,56.642 261.538 C 56.478 258.248,55.972 253.376,55.520 250.712 C 54.020 241.879,54.030 241.735,56.281 239.484 C 58.016 237.748,58.564 237.516,60.360 237.757 C 64.197 238.272,66.087 236.795,67.845 231.909 C 69.450 227.444,71.727 225.782,73.035 228.120 C 73.407 228.785,74.264 228.923,76.787 228.724 C 78.586 228.582,81.467 228.354,83.191 228.218 C 84.915 228.082,86.325 227.946,86.325 227.916 C 86.325 227.824,91.953 227.326,93.447 227.287 C 94.231 227.267,95.192 226.985,95.584 226.661 C 96.081 226.250,96.296 226.265,96.296 226.711 C 96.296 227.063,96.617 227.355,97.009 227.360 C 98.037 227.374,100.029 229.637,101.029 231.927 C 101.503 233.014,102.660 234.775,103.600 235.840 C 105.345 237.819,106.197 241.154,105.209 242.142 C 104.862 242.489,104.913 242.988,105.351 243.515 C 105.738 243.981,105.812 244.483,105.520 244.663 C 104.654 245.199,105.247 249.719,106.257 250.285 C 106.819 250.599,107.044 251.203,106.839 251.846 C 106.656 252.423,106.762 253.054,107.074 253.247 C 107.387 253.440,107.498 253.974,107.322 254.434 C 107.121 254.956,107.345 255.271,107.916 255.271 C 108.420 255.271,108.832 255.655,108.832 256.125 C 108.832 256.719,108.234 256.980,106.871 256.980 C 105.793 256.980,104.761 257.221,104.579 257.516 C 104.383 257.834,105.063 257.920,106.250 257.727 C 107.472 257.529,108.587 257.680,109.112 258.116 C 109.585 258.508,109.972 258.620,109.972 258.365 C 109.972 257.614,111.643 260.046,111.663 260.826 C 111.673 261.218,111.104 261.556,110.399 261.579 C 109.176 261.617,109.169 261.641,110.256 262.108 C 111.344 262.576,111.337 262.600,110.114 262.638 C 108.547 262.687,108.363 264.387,109.924 264.387 C 111.412 264.387,116.239 266.500,116.239 267.151 C 116.239 267.439,115.571 268.113,114.754 268.648 C 113.707 269.334,113.447 269.800,113.873 270.226 C 114.256 270.609,114.286 271.186,113.955 271.804 C 113.288 273.050,109.565 272.067,109.072 270.514 C 108.709 269.370,107.650 269.216,106.697 270.169 C 106.205 270.661,106.394 271.099,107.459 271.937 C 108.537 272.785,108.725 273.231,108.249 273.805 C 107.905 274.220,107.703 275.027,107.800 275.599 C 107.954 276.499,107.621 276.617,105.314 276.482 C 102.113 276.294,101.701 277.004,102.561 281.229 C 102.876 282.778,103.268 285.420,103.432 287.100 C 103.796 290.825,104.528 292.308,106.003 292.308 C 106.743 292.308,107.123 292.694,107.123 293.447 C 107.123 294.268,106.743 294.587,105.764 294.587 C 104.858 294.587,104.301 294.990,104.089 295.801 C 103.877 296.611,103.477 296.901,102.883 296.673 C 102.394 296.486,101.994 296.580,101.994 296.884 C 101.994 297.612,104.061 297.590,105.451 296.846 C 106.372 296.353,106.553 296.446,106.553 297.416 C 106.553 298.273,106.924 298.575,107.977 298.575 C 108.864 298.575,109.402 298.898,109.402 299.430 C 109.402 299.908,108.894 300.285,108.249 300.285 C 107.196 300.285,107.166 300.396,107.896 301.567 C 108.708 302.868,107.311 307.691,106.390 306.770 C 106.195 306.575,105.366 306.584,104.548 306.789 C 102.571 307.286,102.824 309.392,104.986 310.425 C 106.878 311.329,107.034 312.673,105.276 312.923 C 103.727 313.144,103.241 314.958,104.592 315.476 C 105.127 315.681,105.991 315.582,106.514 315.256 C 107.203 314.826,107.760 314.880,108.542 315.451 C 109.134 315.885,110.462 316.239,111.491 316.239 C 113.275 316.239,113.336 316.309,112.794 317.733 C 112.120 319.506,112.665 320.359,115.119 321.375 C 116.989 322.150,117.202 322.892,116.018 324.510 C 115.251 325.559,115.158 325.546,112.921 324.066 L 110.614 322.539 109.438 324.442 C 107.912 326.911,107.885 326.813,110.559 328.501 C 111.823 329.299,113.281 330.841,113.799 331.927 L 114.741 333.903 120.049 333.903 C 124.963 333.903,125.356 333.987,125.356 335.034 C 125.356 336.161,125.367 336.161,128.193 335.048 C 131.745 333.648,132.832 333.994,132.665 336.472 C 132.496 338.978,135.904 342.450,138.533 342.450 C 139.863 342.450,140.213 342.659,139.965 343.305 C 139.763 343.830,139.966 344.160,140.492 344.160 C 140.962 344.160,141.497 343.768,141.680 343.289 C 142.420 341.361,143.909 341.292,146.330 343.072 C 148.575 344.723,148.727 344.754,150.371 343.904 C 155.431 341.287,161.477 349.109,157.959 353.721 C 156.227 355.992,155.775 359.696,157.265 359.406 C 157.829 359.297,158.120 358.566,158.120 357.256 C 158.120 355.067,157.656 355.207,164.103 355.449 C 167.322 355.569,167.485 355.908,166.052 359.491 C 165.362 361.213,164.565 362.016,162.650 362.916 C 159.009 364.628,156.734 371.691,159.171 373.717 C 159.657 374.121,159.777 373.525,159.630 371.433 C 159.372 367.781,160.332 365.539,162.618 364.454 C 164.487 363.567,166.207 361.989,166.418 360.969 C 166.988 358.210,169.267 356.762,170.007 358.689 C 170.243 359.305,171.205 359.544,173.440 359.544 C 177.801 359.544,178.348 359.857,178.348 362.351 C 178.348 366.251,174.998 367.857,172.568 365.122 C 171.668 364.109,171.540 364.162,169.287 366.460 C 166.953 368.841,166.947 368.857,168.086 369.918 C 168.716 370.505,169.231 371.647,169.231 372.457 C 169.231 373.701,169.363 373.819,170.085 373.219 C 170.556 372.829,170.940 372.184,170.940 371.786 C 170.940 371.388,171.353 370.904,171.858 370.710 C 173.062 370.248,172.511 372.831,170.940 375.012 C 169.880 376.483,169.880 376.526,170.925 376.799 C 171.724 377.008,172.163 376.626,172.659 375.292 C 174.099 371.417,174.379 370.897,175.192 370.585 C 175.656 370.407,176.653 370.748,177.409 371.342 C 179.089 372.664,178.184 374.501,175.853 374.501 C 174.673 374.501,174.298 374.948,173.547 377.244 C 171.532 383.404,172.571 384.372,181.427 384.586 C 185.614 384.687,186.300 384.306,186.316 381.870 C 186.323 380.824,186.554 380.623,187.432 380.901 C 188.063 381.102,189.519 380.753,190.816 380.091 C 193.418 378.764,194.872 379.466,194.872 382.051 C 194.872 383.434,192.504 385.755,191.091 385.755 C 190.024 385.755,190.109 386.694,191.215 387.119 C 193.440 387.973,195.927 387.497,196.114 386.182 C 196.240 385.295,196.683 384.900,197.555 384.900 C 198.752 384.900,199.536 384.348,201.891 381.844 C 203.139 380.517,202.278 379.713,200.582 380.620 C 199.948 380.959,199.430 381.093,199.430 380.917 C 199.430 380.741,198.681 380.985,197.764 381.459 C 196.111 382.314,196.095 382.306,195.702 380.517 C 194.849 376.631,201.161 373.908,203.828 377.012 C 205.623 379.101,205.493 379.698,202.600 382.676 C 199.174 386.200,200.027 388.729,203.542 385.470 C 206.023 383.170,207.388 383.810,205.943 386.594 C 205.110 388.200,205.338 390.603,206.269 390.027 C 206.952 389.605,207.506 390.664,207.644 392.656 C 207.815 395.132,210.238 397.302,212.916 397.376 C 215.278 397.441,215.930 397.944,215.949 399.715 C 215.956 400.377,216.677 401.262,217.667 401.825 C 219.390 402.806,219.884 404.175,218.765 404.867 C 218.430 405.074,218.296 405.608,218.467 406.053 C 218.638 406.499,218.271 407.370,217.651 407.990 C 215.694 409.947,216.277 410.256,221.924 410.256 C 227.073 410.256,227.368 410.323,228.269 411.699 C 228.789 412.492,229.341 413.014,229.497 412.858 C 229.652 412.703,230.316 412.951,230.971 413.410 C 232.503 414.484,233.618 414.475,233.618 413.390 C 233.618 412.159,234.931 412.339,235.771 413.685 C 236.349 414.610,237.033 414.816,239.269 414.737 C 241.345 414.663,242.677 415.006,244.529 416.092 C 245.893 416.891,247.137 417.554,247.293 417.564 C 247.450 417.575,248.279 417.850,249.135 418.175 C 252.323 419.388,256.675 419.228,256.866 417.893 C 257.018 416.825,257.328 416.725,259.763 416.959 L 262.489 417.221 262.570 415.063 C 262.614 413.876,262.849 412.757,263.092 412.578 C 263.334 412.398,263.533 411.353,263.533 410.256 L 263.533 408.262 268.549 407.961 C 271.908 407.760,273.724 407.403,274.047 406.881 C 274.312 406.453,274.899 406.244,275.350 406.417 C 276.554 406.879,277.530 406.075,277.700 404.483 C 277.782 403.714,278.051 402.759,278.298 402.360 C 278.890 401.402,278.396 400.975,275.884 400.268 C 273.250 399.527,272.994 398.286,275.215 397.030 C 276.889 396.083,278.632 396.176,278.632 397.212 C 278.632 397.492,278.889 397.721,279.202 397.721 C 280.905 397.721,276.814 391.898,274.309 390.757 C 273.067 390.191,273.037 390.059,273.811 388.562 C 275.025 386.214,271.740 383.477,270.091 385.463 C 269.704 385.930,268.529 386.842,267.479 387.491 L 265.570 388.670 263.857 387.403 C 262.686 386.538,261.429 386.165,259.890 386.225 C 257.888 386.303,257.498 386.090,256.407 384.325 C 255.272 382.489,254.722 382.104,253.769 382.479 C 253.570 382.557,253.183 382.015,252.909 381.274 C 252.565 380.346,252.086 380.012,251.366 380.200 C 249.946 380.571,248.718 378.589,248.718 375.926 C 248.718 374.751,248.849 373.790,249.008 373.789 C 251.023 373.787,250.407 371.440,248.026 370.044 L 245.383 368.495 244.040 370.056 C 242.934 371.342,242.547 371.493,241.849 370.914 C 241.157 370.340,240.381 370.534,237.654 371.964 C 235.813 372.929,234.152 373.563,233.963 373.374 C 233.773 373.184,233.618 373.344,233.618 373.728 C 233.618 374.112,233.361 374.267,233.047 374.073 C 232.666 373.838,232.665 373.366,233.045 372.656 C 234.610 369.732,232.267 368.859,227.758 370.687 C 223.104 372.574,221.083 374.426,221.083 376.803 C 221.083 377.503,216.539 379.496,214.957 379.490 C 213.657 379.485,214.219 377.406,216.235 374.766 C 218.352 371.992,218.451 371.941,223.510 370.938 C 228.480 369.953,232.246 365.891,228.278 365.797 C 227.924 365.788,227.007 364.763,226.239 363.517 C 225.328 362.041,224.426 361.254,223.646 361.254 C 222.078 361.254,221.083 360.207,221.083 358.558 C 221.083 357.817,220.641 357.061,220.085 356.848 C 218.361 356.190,216.931 354.523,217.290 353.588 C 217.478 353.098,217.341 351.994,216.986 351.135 C 216.631 350.276,216.389 349.358,216.449 349.096 C 216.508 348.834,216.037 348.484,215.401 348.318 C 214.765 348.151,214.245 347.815,214.245 347.569 C 214.245 345.336,208.097 344.452,206.035 346.389 C 204.654 347.687,203.419 347.607,203.419 346.220 C 203.419 345.359,205.524 343.375,207.123 342.729 C 208.443 342.196,208.428 342.196,210.114 342.708 C 211.045 342.990,211.396 342.864,211.396 342.245 C 211.396 340.983,214.101 339.084,216.907 338.378 L 219.373 337.756 219.381 333.693 C 219.385 331.458,219.543 329.053,219.732 328.348 C 220.070 327.087,219.990 327.066,214.881 327.066 C 209.395 327.066,209.471 327.108,209.663 324.132 C 209.820 321.701,207.576 320.441,205.897 322.018 C 204.353 323.468,202.849 323.062,202.849 321.195 C 202.849 319.243,202.459 319.089,199.662 319.930 C 198.280 320.346,197.057 320.519,196.944 320.315 C 196.376 319.287,196.052 316.809,196.485 316.809 C 197.411 316.809,200.853 318.133,201.173 318.612 C 201.348 318.874,201.931 318.767,202.469 318.374 C 203.972 317.275,203.154 313.766,201.487 314.164 C 195.990 315.480,195.393 315.200,195.937 311.558 C 195.971 311.334,195.725 310.437,195.391 309.564 C 195.058 308.691,194.697 306.952,194.590 305.698 C 194.483 304.444,194.079 302.650,193.691 301.709 C 193.304 300.769,192.922 299.744,192.843 299.430 C 191.914 295.770,187.421 289.459,185.745 289.459 C 185.437 289.459,185.177 289.010,185.167 288.462 C 185.142 287.083,183.822 285.470,182.719 285.470 C 182.187 285.470,181.925 285.150,182.095 284.707 C 182.453 283.775,180.907 282.381,180.082 282.891 C 179.755 283.093,179.487 282.850,179.487 282.352 C 179.487 281.854,179.872 281.298,180.342 281.118 C 182.150 280.424,181.241 279.202,178.917 279.202 C 176.647 279.202,176.638 279.194,176.638 276.973 C 176.638 274.908,176.529 274.756,175.149 274.908 C 173.253 275.116,172.566 276.159,172.801 278.474 C 172.972 280.166,172.415 280.912,170.978 280.912 C 170.737 280.912,169.764 280.207,168.817 279.345 C 167.870 278.483,165.610 276.496,163.795 274.929 C 157.919 269.857,157.690 269.579,158.005 267.929 C 158.210 266.856,157.935 266.064,157.068 265.226 C 153.223 261.511,152.807 259.591,155.531 258.133 C 156.894 257.403,167.521 257.358,167.521 258.082 C 167.521 258.374,168.187 258.695,169.000 258.794 C 170.178 258.938,170.732 259.577,171.728 261.940 C 172.415 263.571,173.160 265.088,173.383 265.311 C 173.868 265.796,173.546 262.527,173.025 261.685 C 172.825 261.362,173.050 260.776,173.523 260.383 C 174.290 259.746,174.285 259.516,173.474 258.278 C 172.973 257.514,172.706 256.514,172.882 256.058 C 173.057 255.601,172.843 255.091,172.407 254.923 C 171.971 254.756,171.310 253.885,170.939 252.989 C 170.541 252.028,169.957 251.477,169.517 251.645 C 169.037 251.830,168.627 251.286,168.373 250.128 C 168.067 248.733,167.225 247.850,164.669 246.241 C 161.904 244.501,161.118 243.622,159.878 240.883 C 158.255 237.298,158.280 237.319,156.774 238.260 C 155.940 238.781,155.164 238.650,152.935 237.613 C 151.399 236.897,149.501 236.027,148.718 235.678 C 147.934 235.330,147.138 234.832,146.948 234.573 C 146.402 233.827,141.967 233.411,141.174 234.031 C 139.776 235.124,132.394 234.362,129.192 232.794 C 127.277 231.856,126.776 231.441,127.790 231.635 C 129.875 232.033,130.507 230.538,128.924 228.955 C 127.917 227.948,127.606 227.898,126.423 228.552 C 124.702 229.503,121.937 229.864,121.937 229.138 C 121.937 227.845,127.335 225.263,127.952 226.262 C 128.575 227.271,129.646 226.749,130.985 224.782 C 131.731 223.688,132.805 222.792,133.373 222.792 C 134.742 222.792,135.216 221.936,134.277 221.157 C 133.726 220.699,133.253 220.731,132.507 221.277 C 131.596 221.943,126.742 222.088,126.121 221.468 C 125.990 221.336,127.031 220.940,128.436 220.586 C 129.840 220.232,131.348 219.432,131.785 218.807 C 132.223 218.182,132.704 217.794,132.854 217.945 C 133.518 218.608,137.678 218.698,138.484 218.066 C 140.942 216.140,139.399 214.131,134.900 213.401 C 133.174 213.120,132.767 212.812,132.782 211.798 C 132.798 210.632,132.854 210.613,133.557 211.538 C 134.636 212.961,137.683 212.850,138.481 211.360 C 138.872 210.629,138.911 209.928,138.585 209.508 C 138.296 209.136,138.029 207.329,137.992 205.491 C 137.931 202.484,137.057 200.075,136.300 200.832 C 136.141 200.991,135.703 200.702,135.328 200.189 C 134.706 199.338,134.544 199.360,133.468 200.436 C 132.202 201.701,131.624 201.548,131.624 199.949 C 131.624 199.398,130.983 198.186,130.199 197.255 C 128.030 194.677,130.199 193.493,132.479 196.011 C 133.046 196.638,133.883 197.151,134.340 197.151 C 135.463 197.151,134.771 193.315,133.364 191.738 C 130.968 189.053,131.907 185.126,134.359 187.578 C 135.325 188.544,135.225 187.435,134.152 185.284 C 132.965 182.905,132.484 182.689,130.809 183.787 C 129.092 184.912,128.132 182.775,129.251 180.320 C 129.987 178.706,129.429 178.193,127.195 178.427 C 126.340 178.517,125.341 178.406,124.976 178.180 C 124.611 177.954,123.633 178.028,122.803 178.344 C 120.514 179.214,119.726 179.065,120.050 177.827 C 120.238 177.109,119.927 176.517,119.142 176.097 C 118.486 175.746,117.917 175.596,117.877 175.763 C 117.838 175.931,117.742 176.325,117.664 176.638 C 117.585 176.952,117.489 177.464,117.450 177.778 C 117.281 179.129,114.530 178.368,114.530 176.970 C 114.530 175.159,113.981 173.789,113.256 173.789 C 112.882 173.789,112.810 174.997,113.056 177.167 L 113.438 180.546 111.562 179.874 C 110.531 179.505,109.556 179.030,109.396 178.820 C 109.237 178.610,107.826 178.463,106.262 178.494 C 103.380 178.549,102.458 176.554,104.447 174.565 C 105.146 173.867,104.876 172.976,103.436 171.225 C 100.890 168.130,99.470 166.952,98.287 166.952 C 96.201 166.952,94.451 165.291,94.852 163.693 C 95.297 161.920,93.841 159.544,92.309 159.544 C 91.367 159.544,91.251 159.271,91.553 157.763 C 91.818 156.438,91.668 155.847,90.969 155.455 C 90.452 155.166,90.028 154.589,90.028 154.173 C 90.028 153.756,89.644 153.097,89.174 152.707 C 87.639 151.433,88.140 150.414,90.171 150.679 C 91.189 150.811,92.592 150.938,93.289 150.959 C 94.220 150.987,94.679 151.478,95.026 152.818 C 95.649 155.223,98.234 156.736,100.428 155.982 C 102.710 155.198,102.773 154.715,100.862 152.622 C 98.575 150.118,98.692 149.374,101.446 148.933 C 103.113 148.667,104.187 148.032,105.344 146.627 C 106.806 144.854,107.080 144.741,108.561 145.304 C 110.373 145.993,112.555 144.422,112.921 142.165 C 113.022 141.538,113.682 140.387,114.387 139.607 C 115.999 137.824,116.006 137.902,113.960 135.328 C 112.384 133.344,111.897 131.492,112.173 128.525 C 112.330 126.830,112.727 126.750,114.031 128.150 C 114.873 129.054,115.621 129.338,116.548 129.105 C 117.348 128.904,118.203 129.110,118.722 129.629 C 119.192 130.099,119.931 130.484,120.363 130.484 C 120.796 130.484,121.647 130.861,122.256 131.321 C 124.571 133.072,127.573 132.001,130.805 128.271 C 131.798 127.125,132.171 127.013,133.190 127.559 C 134.572 128.298,139.031 128.439,139.031 127.743 C 139.031 127.488,139.509 126.767,140.094 126.140 C 140.678 125.513,141.467 124.419,141.847 123.709 C 142.227 122.999,142.878 122.550,143.295 122.709 C 144.496 123.170,148.148 118.045,148.148 115.900 C 148.148 114.023,149.300 112.691,150.244 113.474 C 151.388 114.424,152.473 113.038,152.993 109.964 C 153.348 107.863,154.505 106.758,155.624 107.450 C 155.918 107.632,157.046 107.002,158.131 106.050 L 160.102 104.319 165.663 104.627 C 168.722 104.796,172.764 105.396,174.644 105.961 C 176.524 106.525,179.088 107.278,180.342 107.632 C 183.313 108.473,190.430 116.239,188.230 116.239 C 188.005 116.239,188.558 117.009,189.459 117.949 C 190.359 118.889,191.402 119.658,191.775 119.658 C 192.148 119.658,192.771 120.041,193.159 120.509 C 194.599 122.244,198.146 122.689,200.237 121.397 C 201.278 120.754,202.483 120.228,202.916 120.227 C 203.349 120.227,204.729 119.301,205.983 118.170 C 209.519 114.978,211.958 113.554,215.670 112.512 C 217.550 111.984,219.618 111.068,220.265 110.477 C 221.020 109.787,222.284 109.402,223.794 109.402 C 225.549 109.402,226.362 109.093,226.997 108.187 C 227.506 107.461,228.198 107.107,228.720 107.308 C 229.200 107.492,229.736 107.411,229.911 107.128 C 230.092 106.836,231.166 106.944,232.399 107.379 C 234.428 108.095,234.819 108.034,238.426 106.445 C 242.189 104.788,249.005 104.291,251.008 105.528 C 251.801 106.019,255.893 106.769,257.265 106.676 C 257.892 106.634,259.302 107.202,260.399 107.940 C 262.232 109.172,262.921 109.272,268.946 109.180 C 273.341 109.113,276.013 109.324,277.060 109.822 C 277.918 110.230,278.816 110.590,279.054 110.621 C 279.292 110.652,280.128 110.925,280.912 111.227 C 281.695 111.529,282.860 111.835,283.500 111.907 C 284.140 111.978,284.957 112.219,285.316 112.441 C 285.675 112.662,286.690 112.850,287.571 112.858 C 297.963 112.948,298.800 113.069,299.145 114.528 C 299.405 115.629,299.962 116.015,301.732 116.322 C 302.973 116.538,304.694 116.986,305.556 117.317 C 306.417 117.649,307.123 117.767,307.123 117.580 C 307.123 117.393,307.443 117.482,307.835 117.778 C 308.226 118.074,309.371 118.366,310.379 118.425 C 311.387 118.485,313.120 119.070,314.230 119.725 C 315.340 120.380,316.623 120.772,317.081 120.597 C 317.538 120.421,318.075 120.540,318.273 120.861 C 318.471 121.183,318.984 121.311,319.413 121.146 C 319.841 120.982,320.349 121.103,320.543 121.416 C 320.736 121.728,321.392 121.825,322.001 121.632 C 322.742 121.397,323.434 121.681,324.090 122.489 C 324.630 123.153,325.840 123.796,326.781 123.917 C 327.721 124.039,328.618 124.186,328.775 124.245 C 328.932 124.303,329.252 124.321,329.487 124.284 C 329.722 124.247,329.915 124.410,329.915 124.647 C 329.915 125.085,335.276 125.542,340.456 125.546 C 342.154 125.547,344.110 125.117,345.299 124.482 C 346.396 123.895,347.934 123.449,348.718 123.490 C 349.501 123.532,351.986 123.616,354.239 123.676 C 358.149 123.781,359.396 124.382,359.085 126.008 C 359.046 126.209,359.775 126.689,360.704 127.074 C 361.633 127.459,362.393 128.005,362.393 128.288 C 362.393 128.571,363.034 129.047,363.818 129.345 C 364.601 129.643,365.242 130.132,365.242 130.432 C 365.242 131.186,367.162 131.726,368.296 131.291 C 368.864 131.073,369.231 130.286,369.231 129.284 C 369.231 127.700,369.966 127.090,370.613 128.137 C 371.385 129.386,374.005 129.224,375.077 127.862 C 375.668 127.110,376.644 126.496,377.246 126.496 C 378.725 126.496,378.401 124.475,376.734 123.308 C 376.044 122.824,375.638 122.173,375.831 121.860 C 377.075 119.848,372.329 119.153,369.290 120.902 L 367.129 122.146 365.188 121.012 C 362.377 119.371,362.620 118.309,366.097 117.048 C 366.724 116.820,367.643 116.682,368.140 116.741 C 369.065 116.852,374.872 111.618,375.000 110.559 C 375.150 109.318,375.247 109.081,376.091 107.885 C 377.667 105.651,380.830 104.542,383.316 105.350 C 384.501 105.735,386.047 106.090,386.752 106.138 C 387.457 106.186,388.034 106.533,388.034 106.908 C 388.034 107.284,388.803 108.238,389.744 109.029 C 390.684 109.820,391.453 110.869,391.453 111.359 C 391.453 112.717,392.331 112.424,393.060 110.823 C 393.802 109.194,394.650 109.195,396.331 110.826 C 399.420 113.823,400.001 113.711,399.991 110.119 C 399.986 108.106,399.796 107.132,399.500 107.599 C 398.823 108.667,398.395 108.570,396.670 106.957 C 395.838 106.178,394.600 105.373,393.919 105.168 C 392.822 104.837,392.660 104.326,392.494 100.688 C 392.159 93.305,392.509 92.102,395.157 91.536 C 399.943 90.513,400.000 90.452,400.000 86.337 C 400.000 81.407,398.254 81.750,397.159 86.895 C 396.722 88.948,395.602 88.927,392.500 86.809 C 391.352 86.025,390.013 85.325,389.525 85.254 C 389.036 85.182,388.459 84.945,388.241 84.727 C 386.790 83.276,383.214 84.616,379.564 87.978 L 377.647 89.744 377.977 85.185 C 378.159 82.678,378.449 79.683,378.621 78.529 C 379.141 75.062,376.448 75.143,374.635 78.649 C 373.716 80.428,372.080 80.956,372.080 79.475 C 372.080 78.997,373.124 76.531,374.399 73.994 C 376.225 70.363,376.902 68.151,377.577 63.608 C 378.385 58.173,379.679 54.807,381.383 53.707 C 381.751 53.470,382.658 52.123,383.400 50.712 C 384.142 49.302,385.238 47.718,385.835 47.191 C 386.433 46.665,386.874 46.024,386.816 45.767 C 386.758 45.510,387.023 44.540,387.404 43.612 C 387.785 42.684,387.936 41.280,387.738 40.492 L 387.378 39.059 386.387 40.373 C 385.843 41.095,384.772 42.860,384.009 44.295 C 383.246 45.729,381.772 47.824,380.734 48.950 C 377.982 51.935,375.178 57.801,373.159 64.797 C 370.998 72.287,370.540 73.202,367.040 77.030 C 365.518 78.695,363.452 81.003,362.449 82.160 C 361.446 83.317,359.485 84.983,358.091 85.864 C 356.698 86.744,355.557 87.657,355.557 87.892 C 355.556 88.127,355.310 88.319,355.009 88.319 C 354.339 88.319,342.032 96.167,340.465 97.594 C 336.304 101.382,332.518 102.452,328.968 100.842 C 327.452 100.154,324.978 99.254,323.472 98.842 C 321.966 98.429,319.869 97.432,318.812 96.626 C 317.755 95.821,316.488 95.288,315.995 95.444 C 315.503 95.599,314.651 95.885,314.103 96.079 C 313.554 96.273,312.442 96.497,311.631 96.576 C 309.583 96.775,307.123 98.500,307.123 99.737 C 307.123 101.009,304.450 104.274,303.409 104.274 C 302.989 104.274,302.197 104.722,301.648 105.271 C 301.100 105.819,300.441 106.300,300.183 106.339 C 299.926 106.378,299.587 106.474,299.430 106.553 C 299.274 106.631,298.697 106.755,298.148 106.829 C 296.042 107.112,293.413 107.857,293.178 108.236 C 292.919 108.656,285.772 107.942,282.945 107.215 C 280.319 106.539,280.430 105.413,283.123 105.413 C 285.829 105.413,286.556 104.485,286.403 101.228 C 286.312 99.303,286.500 98.968,288.022 98.332 C 292.675 96.386,291.464 90.527,286.789 92.370 C 285.907 92.718,284.160 93.084,282.906 93.183 C 279.612 93.444,276.916 93.981,275.742 94.609 C 274.447 95.302,271.963 95.319,271.541 94.638 C 271.118 93.952,269.532 94.208,269.014 95.046 C 268.139 96.462,264.957 96.563,264.957 95.175 C 264.957 94.390,264.525 93.797,263.818 93.612 C 263.191 93.448,262.678 93.106,262.678 92.852 C 262.678 91.839,260.798 90.598,259.263 90.598 C 257.268 90.598,248.318 86.099,248.605 85.240 C 248.718 84.899,249.175 84.614,249.619 84.608 C 250.768 84.589,257.789 80.891,258.061 80.161 C 258.186 79.826,258.891 78.949,259.628 78.212 C 262.926 74.913,255.736 63.094,251.037 64.089 C 248.741 64.575,245.521 64.874,241.311 64.992 C 239.048 65.056,237.261 65.470,236.025 66.218 C 231.911 68.708,230.756 63.249,234.493 58.974 C 235.589 57.721,237.315 55.085,238.328 53.117 L 240.171 49.539 243.127 49.902 C 245.828 50.234,246.218 50.131,247.637 48.711 C 249.190 47.158,252.436 45.479,254.222 45.305 C 254.743 45.254,255.897 44.727,256.787 44.134 C 257.676 43.540,258.746 43.127,259.163 43.215 C 259.580 43.304,260.532 42.975,261.279 42.486 C 262.880 41.437,264.925 41.345,266.876 42.235 C 268.202 42.839,268.755 43.799,269.295 46.439 C 269.885 49.318,271.248 49.951,272.365 47.863 C 272.778 47.091,272.785 46.724,272.385 46.724 C 272.060 46.724,271.795 46.980,271.795 47.293 C 271.795 47.607,271.410 47.863,270.940 47.863 C 270.340 47.863,270.085 47.258,270.085 45.831 C 270.085 40.022,267.186 39.445,256.125 43.052 C 254.872 43.461,253.203 43.931,252.416 44.096 C 251.630 44.262,249.966 45.332,248.719 46.474 C 246.649 48.370,246.229 48.526,243.885 48.261 C 242.473 48.102,240.898 48.196,240.386 48.471 C 239.007 49.209,230.816 61.640,230.836 62.965 C 230.972 72.019,229.411 74.049,224.331 71.422 C 222.557 70.505,222.530 70.509,223.334 71.564 C 224.815 73.509,225.826 74.074,227.824 74.074 L 229.788 74.074 229.444 76.983 C 229.007 80.674,227.461 82.613,216.544 93.162 C 211.760 97.785,206.770 104.708,205.932 107.884 C 204.927 111.696,204.880 111.723,199.091 111.801 C 193.306 111.880,191.356 111.435,191.491 110.067 C 191.691 108.035,191.417 107.073,190.545 106.738 C 190.045 106.546,187.888 104.631,185.751 102.481 C 181.533 98.238,180.066 97.855,180.242 101.042 C 180.381 103.557,178.484 103.786,176.178 101.531 C 175.024 100.404,174.222 100.021,173.703 100.350 C 170.639 102.292,160.034 98.731,161.554 96.272 C 161.712 96.015,161.374 95.466,160.801 95.053 C 160.228 94.640,159.180 93.095,158.473 91.621 C 157.766 90.146,156.045 87.710,154.649 86.208 C 152.348 83.732,148.844 77.522,147.868 74.189 C 146.927 70.978,149.262 69.814,153.317 71.473 C 153.930 71.723,154.424 71.376,154.879 70.376 C 155.489 69.038,155.413 68.863,153.984 68.320 C 152.597 67.793,152.533 67.664,153.419 67.168 C 155.427 66.044,151.670 61.068,147.026 58.698 C 144.110 57.211,144.104 56.410,147.009 56.410 C 148.262 56.410,149.305 56.218,149.326 55.983 C 149.865 49.876,149.744 47.978,148.706 46.271 C 147.253 43.882,146.439 43.957,146.439 46.478 C 146.439 48.262,146.281 48.490,145.157 48.330 C 143.811 48.139,143.557 45.423,144.768 44.188 C 145.746 43.192,145.315 41.823,143.043 38.707 C 139.105 33.304,138.550 32.908,136.733 34.202 C 135.109 35.358,134.047 35.102,135.117 33.813 C 135.591 33.243,135.572 33.048,135.043 33.048 C 134.479 33.048,134.478 32.874,135.038 32.200 C 135.425 31.733,135.969 31.492,136.247 31.664 C 136.525 31.836,136.752 31.672,136.752 31.301 C 136.752 30.849,137.342 30.745,138.547 30.986 C 141.764 31.629,144.067 29.271,143.723 25.686 C 143.465 23.003,143.544 22.781,144.943 22.249 C 146.618 21.612,146.728 21.201,145.777 19.115 C 145.082 17.588,143.613 17.322,140.723 18.200 M377.543 78.775 C 376.547 82.253,376.502 89.837,377.458 93.127 C 378.806 97.764,378.256 101.509,375.863 103.995 C 374.879 105.017,373.432 106.615,372.647 107.546 C 371.712 108.656,370.135 109.555,368.073 110.154 C 366.152 110.713,364.045 111.870,362.663 113.128 C 357.741 117.604,347.578 120.639,347.578 117.633 C 347.578 116.673,346.258 116.561,344.711 117.389 C 343.834 117.858,343.454 117.701,342.704 116.556 C 342.195 115.780,341.224 114.976,340.547 114.770 C 337.595 113.871,336.749 110.317,338.960 108.105 C 339.708 107.357,338.664 105.221,337.808 105.750 C 337.455 105.968,337.295 105.688,337.416 105.061 C 337.528 104.480,338.771 103.376,340.177 102.609 C 341.584 101.841,343.248 100.629,343.876 99.914 C 344.504 99.199,345.850 98.324,346.867 97.970 C 347.885 97.615,348.718 97.078,348.718 96.777 C 348.718 96.475,348.945 96.370,349.223 96.541 C 349.501 96.713,350.045 96.472,350.433 96.005 C 350.820 95.538,351.379 95.157,351.675 95.157 C 351.971 95.157,353.116 94.468,354.219 93.626 C 355.747 92.461,356.451 92.233,357.173 92.669 C 361.896 95.524,368.756 92.553,369.008 87.542 C 369.229 83.135,370.022 81.483,371.923 81.473 C 373.819 81.462,374.361 81.113,375.667 79.060 C 376.883 77.149,378.060 76.970,377.543 78.775 M367.548 87.336 C 366.844 90.726,365.791 91.585,362.108 91.772 C 357.191 92.021,357.255 91.528,362.821 86.240 C 367.896 81.417,368.736 81.612,367.548 87.336 M242.115 87.152 C 242.672 87.451,243.780 87.813,244.577 87.958 C 247.330 88.457,252.422 90.238,252.422 90.702 C 252.422 90.959,252.775 91.168,253.207 91.168 C 254.798 91.168,255.482 92.755,254.522 94.220 C 253.016 96.518,245.716 96.905,246.298 94.656 C 246.763 92.859,244.763 90.296,243.044 90.486 C 241.255 90.684,239.893 89.269,240.316 87.652 C 240.630 86.451,240.744 86.419,242.115 87.152 M387.722 87.841 C 388.521 88.204,389.174 88.700,389.174 88.942 C 389.174 89.184,389.702 89.550,390.348 89.755 C 391.305 90.058,391.455 90.433,391.157 91.787 C 390.957 92.700,391.005 93.447,391.265 93.446 C 391.525 93.445,391.657 96.163,391.558 99.486 C 391.381 105.407,391.353 105.518,390.133 105.117 C 389.449 104.891,387.735 104.654,386.325 104.589 C 382.128 104.395,381.199 103.890,381.230 101.814 C 381.245 100.817,381.087 98.132,380.881 95.849 C 380.438 90.963,381.165 88.638,383.391 87.823 C 385.445 87.070,386.036 87.072,387.722 87.841 M260.708 92.838 C 260.528 93.130,260.641 93.530,260.959 93.726 C 262.048 94.399,261.540 94.999,260.114 94.726 C 258.318 94.383,258.102 92.308,259.863 92.308 C 260.508 92.308,260.888 92.546,260.708 92.838 M243.261 96.558 C 244.146 97.016,245.030 97.230,245.227 97.033 C 245.423 96.837,245.584 97.074,245.584 97.559 C 245.584 98.644,243.393 99.129,241.557 98.450 C 240.809 98.173,239.615 98.093,238.902 98.272 C 237.367 98.657,237.259 98.195,238.550 96.769 C 239.689 95.510,241.111 95.447,243.261 96.558 M265.281 97.872 C 264.764 98.389,263.175 97.445,263.547 96.842 C 263.803 96.429,264.175 96.454,264.737 96.920 C 265.187 97.293,265.431 97.722,265.281 97.872 M312.863 98.732 C 312.840 98.959,312.692 99.145,312.536 99.145 C 310.267 99.145,310.244 99.136,311.111 98.576 C 312.031 97.982,312.933 98.062,312.863 98.732 M324.786 104.196 C 326.841 105.535,329.315 106.553,330.516 106.553 C 332.306 106.553,332.301 107.588,330.504 109.189 C 327.168 112.162,328.246 115.264,332.919 116.133 C 338.932 117.251,340.070 119.484,335.033 120.280 C 333.447 120.531,331.423 121.099,330.533 121.543 C 327.426 123.093,322.507 119.218,322.507 115.221 C 322.507 113.794,322.221 113.209,321.420 112.999 C 320.142 112.665,319.677 111.239,319.666 107.620 C 319.661 105.988,319.335 104.715,318.810 104.279 C 316.626 102.467,322.019 102.392,324.786 104.196 M313.390 105.983 C 313.390 106.573,313.636 107.207,313.935 107.392 C 314.235 107.577,314.354 108.058,314.199 108.460 C 314.045 108.863,314.311 109.944,314.791 110.864 C 315.270 111.783,315.673 113.048,315.686 113.675 C 315.699 114.302,316.076 115.456,316.524 116.239 C 317.656 118.219,317.576 118.626,316.097 118.416 C 315.108 118.275,314.581 117.530,313.793 115.153 C 313.231 113.459,312.142 111.324,311.372 110.408 C 309.652 108.364,309.642 107.995,311.254 106.005 C 312.640 104.293,313.390 104.285,313.390 105.983 M311.911 113.049 C 312.978 115.234,312.978 115.285,311.911 116.085 C 309.724 117.725,301.583 115.126,302.382 113.044 C 302.559 112.580,302.842 112.339,303.009 112.506 C 303.177 112.674,303.660 112.524,304.082 112.173 C 305.012 111.401,308.119 110.602,309.687 110.732 C 310.397 110.791,311.235 111.663,311.911 113.049 M117.936 184.758 C 117.959 185.532,117.118 185.204,115.494 183.808 C 114.101 182.610,114.027 182.402,114.925 182.198 C 115.864 181.984,117.905 183.720,117.936 184.758 M90.028 197.721 C 90.655 198.348,91.201 199.181,91.242 199.573 C 91.282 199.964,91.387 201.355,91.474 202.662 L 91.634 205.040 89.696 204.725 C 88.631 204.552,87.419 204.693,87.003 205.038 C 86.441 205.505,85.892 205.421,84.861 204.711 C 82.360 202.987,82.003 202.134,83.232 200.818 C 83.836 200.171,84.330 199.323,84.330 198.932 C 84.330 198.542,84.574 198.374,84.872 198.558 C 85.169 198.742,85.691 198.372,86.031 197.737 C 86.819 196.265,88.565 196.258,90.028 197.721 M113.242 219.032 L 114.411 221.438 112.804 222.518 C 110.802 223.864,111.394 225.878,113.627 225.317 C 114.809 225.021,114.927 225.149,114.678 226.452 C 114.508 227.341,114.017 227.920,113.433 227.920 C 112.009 227.920,110.342 226.517,110.668 225.591 C 110.823 225.149,110.203 223.290,109.288 221.461 C 107.731 218.345,107.682 218.049,108.518 216.774 C 109.746 214.899,111.684 215.825,113.242 219.032 M130.144 234.521 C 133.369 235.997,134.888 236.156,144.139 235.985 C 146.437 235.942,147.555 236.205,148.412 236.987 C 149.050 237.571,150.662 238.595,151.994 239.264 C 153.326 239.932,154.416 240.691,154.416 240.951 C 154.416 241.210,155.377 241.805,156.553 242.271 C 165.457 245.809,169.326 250.664,166.233 254.417 C 164.183 256.904,162.567 256.846,157.119 254.093 C 155.315 253.181,153.648 252.402,153.415 252.360 C 151.848 252.082,150.164 251.025,148.104 249.026 C 145.371 246.374,144.484 246.133,144.869 248.148 C 145.053 249.113,144.887 249.573,144.351 249.573 C 143.917 249.573,143.318 248.932,143.020 248.148 C 142.722 247.365,142.139 246.724,141.723 246.724 C 140.072 246.724,137.892 245.297,138.241 244.444 C 139.337 241.766,139.252 241.595,136.819 241.595 C 135.113 241.595,134.473 241.829,134.473 242.450 C 134.473 243.598,134.087 243.538,130.815 241.878 C 129.273 241.096,127.574 240.456,127.039 240.456 C 126.218 240.456,125.827 235.568,126.458 233.191 C 126.532 232.910,126.972 233.069,130.144 234.521 M158.886 240.711 C 159.012 241.361,158.807 241.635,158.317 241.471 C 157.895 241.331,157.461 240.759,157.353 240.201 C 157.227 239.551,157.432 239.277,157.923 239.440 C 158.344 239.581,158.778 240.153,158.886 240.711 M246.101 399.777 C 247.772 401.902,247.479 404.843,245.595 404.843 C 244.589 404.843,244.119 404.455,243.876 403.423 C 243.691 402.642,242.948 401.708,242.223 401.347 L 240.906 400.690 242.105 399.490 C 243.690 397.906,244.685 397.977,246.101 399.777 " stroke="none" fill="#000000" fill-rule="evenodd"></path></g></svg>